<?xml version="1.0" encoding="utf-8"?>
<!-- Generator: Adobe Illustrator 27.1.1, SVG Export Plug-In . SVG Version: 6.00 Build 0)  -->
<svg version="1.1" xmlns="http://www.w3.org/2000/svg" xmlns:xlink="http://www.w3.org/1999/xlink" x="0px" y="0px"
	 viewBox="0 0 500 500" style="enable-background:new 0 0 500 500;" xml:space="preserve">
<style type="text/css">
	.st0{display:none;}
	.st1{display:inline;fill:#FCC961;}
	.st2{display:inline;fill:#FCFCF5;}
	.st3{display:inline;}
	.st4{fill:#D9D9D7;}
	.st5{display:inline;opacity:0.51;}
	.st6{fill:#A7D5B9;}
	.st7{display:inline;fill:#231F20;}
	.st8{clip-path:url(#SVGID_00000013894597434948891580000006032034423107697556_);fill:#FCFCF5;}
	.st9{fill:#FCFCF5;}
	.st10{fill:#FBC862;}
	.st11{fill:#FCC961;}
</style>
<g id="PSL_473STD" class="st0">
</g>
<g id="PSL_355STD" class="st0">
	<path class="st1" d="M286.27,238.59v93.05c0,13.88-11.16,25.15-25.04,25.33c-33.83,0.43-95.48,4.52-144.01-11.1
		c-10.45-3.36-17.5-13.12-17.5-24.09v-86.25c0-14.37,11.93-25.85,26.29-25.31c31.39,1.18,85.53,7.95,132.33,3.18
		C273.28,211.87,286.27,223.57,286.27,238.59"/>
	<path class="st2" d="M304.67,248.59c0,40.47,0,80.94,0,121.41c0,4.6-1.38,5.99-5.93,6.26c-14.45,0.86-28.88,2.15-43.34,2.55
		c-11.33,0.31-22.69-0.32-34.02-0.81c-8.05-0.35-16.08-1.18-24.11-1.76c-4.21-0.3-5.74-1.84-5.75-6.05
		c-0.02-6.83-0.01-13.65-0.01-20.17l0.09-30V214.95c-0.01-0.13-0.02-0.27-0.03-0.4c-0.04-0.84-0.02-1.68,0.03-2.51v-0.75
		c0.02,0,0.04,0,0.06,0c0.32-3.52,1.41-6.88,3.09-9.93l0.84-1.47c0.61-0.83,0.12-0.2,0.7-1.01c0.16-0.24,0.33-0.46,0.5-0.69
		c0.4-0.54,0.8-1.08,1.22-1.6c3.86-4.75,6.77-9.9,7.46-16.15c0.06-0.58,1.23-1.46,1.9-1.48c18.01-0.48,36.03-1.07,54.04-1.19
		c9.95-0.07,19.9,0.71,29.85,1.11c0.73,0.03,1.45,0.11,1.93,0.14c1.14,4.07,1.96,8.03,3.39,11.76c1.43,3.72,3.47,7.19,5.14,10.57
		h-0.25c1.49,3.07,2.49,6.43,2.91,9.94c0.04,0,0.07,0,0.1,0v0.92c0.04,0.47,0.08,0.95,0.1,1.43c0.05,1.14,0.01,2.26-0.1,3.37v-6.14
		c0.12,0.23,0.19,0.5,0.19,0.82v34.1h0.02V248.59z M288.66,392.49c-7.88,1.14-15.87,1.96-23.82,1.99
		c-15.87,0.05-31.73-0.5-47.6-0.92c-2.86-0.07-5.7-0.88-8.56-1.04c-4.47-0.26-6.17-3.4-7.86-7.27c32.03,3.33,63.79,3.51,95.64,0.03
		C294.23,392.05,295.33,391.53,288.66,392.49 M319.4,213.31c0-6.44-1.47-12.55-4.55-18.27c-1.79-3.33-3.41-6.76-4.84-10.26
		c-1.14-2.79-1.82-5.62-0.9-8.83c1.32-4.65-1.93-9.47-6.65-10.4c-2-0.39-4.08-0.45-6.13-0.6c-29.01-2.21-58.04-2.23-87.07-0.73
		c-4.43,0.23-8.89,0.56-13.25,1.32c-5.89,1.03-8.8,6.52-6.34,11.97c0.97,2.14,0.66,3.78-0.34,5.54c-0.77,1.35-1.63,2.68-2.63,3.86
		c-6.73,7.93-9.97,17.09-9.95,27.48c0.03,29.1,0.01,36.94,0.01,66.04c0,29.84,0,59.68,0,89.51c0,7.29,2.58,13.21,8.59,17.68
		c2.59,1.92,5.27,4.26,6.72,7.03c1.98,3.79,4.46,6.64,8.45,7.69c4.99,1.32,10.07,2.59,15.18,3.04c22.25,1.99,44.54,1.82,66.8,0.01
		c5.81-0.47,11.6-1.33,16.96-3.95c2.8-1.37,4.42-3.6,5.84-6.36c1.46-2.84,3.38-5.75,5.83-7.72c5.24-4.22,8.28-9.32,8.28-16.04
		C319.43,311.58,319.43,273.06,319.4,213.31"/>
</g>
<g id="PSL_355SLK" class="st0">
	<path class="st1" d="M280.52,186.59v145.05c0,13.88-10.32,25.15-23.15,25.33c-31.28,0.43-88.28,4.52-133.16-11.1
		c-9.66-3.36-16.18-13.12-16.18-24.09V183.52c0-14.37,11.03-25.85,24.31-25.31c29.02,1.18,79.08,7.95,122.36,3.18
		C268.51,159.87,280.52,171.57,280.52,186.59"/>
	<path class="st2" d="M294.92,248.59c0,40.47,0,80.94,0,121.41c0,4.6-1.38,5.99-5.93,6.26c-14.45,0.86-8.88,2.15-23.34,2.55
		c-11.33,0.31-22.69-0.32-34.02-0.81c-8.05-0.35-16.08-1.18-24.11-1.76c-4.21-0.3-5.74-1.84-5.75-6.05
		c-0.02-6.83-0.01-13.65-0.01-20.17l0.09-30V162.95c-0.01-0.13-0.02-0.27-0.03-0.4c-0.04-0.84-0.02-1.68,0.03-2.51v-0.75
		c0.02,0,0.04,0,0.06,0c0.32-3.52,1.41-6.88,3.09-9.93l0.84-1.47c0.61-0.83,0.12-0.2,0.7-1.01c0.16-0.24,0.33-0.46,0.5-0.69
		c0.4-0.54,0.8-1.08,1.22-1.6c3.86-4.75,6.77-6.9,7.46-13.15c0.06-0.58,1.23-1.46,1.9-1.48c18.01-0.48,36.03-1.07,54.04-1.19
		c9.95-0.07-0.1,0.71,9.85,1.11c0.73,0.03,1.45,0.11,1.93,0.14c1.14,4.07,1.96,8.03,3.39,11.76c1.43,3.72,3.47,4.19,5.14,7.57h-0.25
		c1.49,3.07,2.49,6.43,2.91,9.94c0.04,0,0.07,0,0.1,0v0.92c0.04,0.47,0.08,0.95,0.1,1.43c0.05,1.14,0.01,2.26-0.1,3.37v45.86
		c0.12,0.23,0.19,0.5,0.19,0.82v34.1h0.02V248.59z M278.91,392.49c-3.94,0.62-5.06,1.12-7.88,1.14
		c-15.87,0.08-27.68,0.36-43.54-0.06c-2.86-0.07-5.7-0.88-8.56-1.04c-4.47-0.26-6.17-3.4-7.86-7.27
		c32.03,3.33,43.79,3.51,75.64,0.03C284.48,392.05,285.58,391.53,278.91,392.49 M309.65,161.31c0-6.44-1.47-12.55-4.55-18.27
		c-1.79-3.33-3.41-3.76-4.84-7.26c-1.14-2.79-1.82-5.62-0.9-8.83c1.32-4.65-1.93-9.47-6.65-10.4c-2-0.39-4.08-0.45-6.13-0.6
		c-29.01-2.21-38.04-2.23-67.07-0.73c-4.43,0.23-8.89,0.56-13.25,1.32c-5.89,1.03-8.8,6.52-6.34,11.97
		c0.97,2.14,0.66,3.78-0.34,5.54c-0.77,1.35-1.63,2.68-2.63,3.86c-6.73,7.93-9.97,14.09-9.95,24.48
		c0.03,29.1,0.01,88.94,0.01,118.04c0,29.84,0,59.68,0,89.51c0,7.29,2.58,13.21,8.59,17.68c2.59,1.92,5.27,4.26,6.72,7.03
		c1.98,3.79,4.46,6.64,8.45,7.69c4.99,1.32,10.07,2.59,15.18,3.04c22.25,1.99,24.54,1.82,46.8,0.01c5.81-0.47,11.6-1.33,16.96-3.95
		c2.8-1.37,4.42-3.6,5.84-6.36c1.46-2.84,3.38-5.75,5.83-7.72c5.24-4.22,8.28-9.32,8.28-16.04
		C309.68,311.58,309.68,221.06,309.65,161.31"/>
</g>
<g id="PSL_250_SLM" class="st0">
	<path class="st1" d="M278.91,207.46v131.06c0,12.54-9.04,22.73-20.29,22.88c-27.41,0.39-77.35,4.08-116.67-10.03
		c-8.46-3.04-14.17-11.85-14.17-21.77V204.69c0-12.98,9.67-23.35,21.3-22.87c25.43,1.06,69.29,7.18,107.21,2.88
		C268.39,183.33,278.91,193.89,278.91,207.46"/>
	<path class="st2" d="M291.53,263.48c0,36.56,0,73.13,0,109.69c0,4.16-1.21,5.41-5.2,5.66c-12.66,0.78-7.78,1.94-20.45,2.3
		c-9.92,0.28-19.88-0.29-29.81-0.73c-7.05-0.31-14.09-1.07-21.13-1.59c-3.69-0.27-5.03-1.66-5.03-5.47
		c-0.02-6.17-0.01-12.34-0.01-18.22l0.08-27.11V186.1c-0.01-0.12-0.02-0.24-0.03-0.36c-0.03-0.76-0.02-1.52,0.03-2.27v-0.67
		c0.02,0,0.03,0,0.05,0c0.28-3.18,1.24-6.22,2.7-8.97l0.73-1.33c0.53-0.75,0.1-0.18,0.61-0.91c0.14-0.21,0.29-0.42,0.44-0.62
		c0.35-0.49,0.7-0.97,1.07-1.44c3.39-4.29,5.93-6.24,6.54-11.88c0.05-0.52,1.07-1.32,1.66-1.33c15.78-0.43,31.56-0.97,47.35-1.07
		c8.72-0.06-0.09,0.64,8.63,1c0.64,0.03,1.27,0.09,1.69,0.12c1,3.67,1.72,7.26,2.97,10.63c1.25,3.36,3.04,3.79,4.51,6.84h-0.22
		c1.31,2.77,2.18,5.81,2.55,8.98c0.03,0,0.06,0,0.09,0v0.83c0.04,0.43,0.07,0.86,0.09,1.29c0.04,1.03,0.01,2.04-0.09,3.05v41.43
		c0.1,0.21,0.17,0.45,0.17,0.75v30.81h0.02V263.48z M277.5,393.5c-6.91,1.03-6.21,1.72-13.17,1.75c-13.9,0.04-17.98-0.4-31.89-0.78
		c-2.5-0.07-4.99-0.79-7.5-0.94c-3.91-0.24-5.41-3.07-6.89-6.57c28.06,3,38.37,3.17,66.27,0.03
		C282.38,393.1,283.35,392.63,277.5,393.5 M304.44,184.62c0-5.82-1.28-11.33-3.99-16.51c-1.57-3-2.99-3.4-4.24-6.56
		c-1-2.52-1.59-5.07-0.79-7.98c1.16-4.2-1.69-8.56-5.83-9.39c-1.76-0.36-3.57-0.41-5.37-0.55c-25.41-2-33.33-2.02-58.77-0.66
		c-3.88,0.21-7.79,0.51-11.61,1.2c-5.16,0.93-7.71,5.89-5.55,10.82c0.85,1.93,0.58,3.42-0.29,5c-0.68,1.22-1.43,2.42-2.31,3.49
		c-5.89,7.17-8.73,12.73-8.72,22.12c0.02,26.29,0.01,80.36,0.01,106.65c0,26.96,0,53.92,0,80.88c0,6.59,2.26,11.94,7.52,15.98
		c2.27,1.74,4.62,3.85,5.88,6.36c1.73,3.42,3.91,6,7.4,6.95c4.37,1.19,8.82,2.34,13.3,2.75c19.5,1.79,21.5,1.64,41,0.01
		c5.09-0.43,10.17-1.2,14.86-3.57c2.46-1.24,3.87-3.25,5.12-5.75c1.28-2.57,2.96-5.19,5.1-6.97c4.59-3.82,7.25-8.42,7.26-14.5
		C304.46,320.39,304.46,238.61,304.44,184.62"/>
</g>
<g id="SS_473STD" class="st0">
	<g class="st3">
		<path class="st4" d="M323.08,360.54c-49.66,15.48-100.33,15.48-149.99,0c-7.91-2.46-13.47-11.37-12.62-19.49
			c7.85-79.92,6.34-163.01-6-242.91c-1.32-8.11,4.25-17.07,12.72-19.58c53.09-15.83,108.69-15.83,161.79,0
			c8.47,2.51,14.04,11.47,12.72,19.58c-12.34,79.89-13.85,162.98-6,242.91C336.56,349.17,330.99,358.08,323.08,360.54z"/>
	</g>
	<g class="st5">
		<path class="st6" d="M309.77,366.43c-40.97,8.79-82.39,8.79-123.36,0c-12.48-2.73-21.46-15.76-20.39-28.05
			c6.27-77.17,6.27-155.48,0-232.65c-1.07-12.29,7.91-25.31,20.39-28.05c40.97-8.79,82.38-8.79,123.36,0
			c12.48,2.73,21.46,15.76,20.39,28.05c-6.28,77.17-6.28,155.48,0,232.65C331.22,350.67,322.24,363.69,309.77,366.43z"/>
	</g>
	<path class="st2" d="M304.67,248.59c0,40.47,0,80.94,0,121.41c0,4.6-1.38,5.99-5.93,6.26c-14.45,0.86-28.88,2.15-43.34,2.55
		c-11.33,0.31-22.69-0.32-34.02-0.81c-8.05-0.35-16.08-1.18-24.11-1.76c-4.21-0.3-5.74-1.84-5.75-6.05
		c-0.02-6.83-0.01-13.65-0.01-20.17l0.09-30V144.95c-0.01-0.13-0.02-0.27-0.03-0.4c-0.04-0.84-0.02-1.68,0.03-2.51v-0.75
		c0.02,0,0.04,0,0.06,0c0.32-3.52,1.41-6.88,3.09-9.93l0.84-1.47c0.61-0.83,0.12-0.2,0.7-1.01c0.16-0.24,0.33-0.46,0.5-0.69
		c0.4-0.54,0.8-1.08,1.22-1.6c3.86-4.75,6.77-9.9,7.46-16.15c0.06-0.58,1.23-1.46,1.9-1.48c18.01-0.48,36.03-1.07,54.04-1.19
		c9.95-0.07,19.9,0.71,29.85,1.11c0.73,0.03,1.45,0.11,1.93,0.14c1.14,4.07,1.96,8.03,3.39,11.76c1.43,3.72,3.47,7.19,5.14,10.57
		h-0.25c1.49,3.07,2.49,6.43,2.91,9.94c0.04,0,0.07,0,0.1,0v0.92c0.04,0.47,0.08,0.95,0.1,1.43c0.05,1.14,0.01,2.26-0.1,3.37v63.86
		c0.12,0.23,0.19,0.5,0.19,0.82v34.1h0.02V248.59z M288.66,392.49c-7.88,1.14-15.87,1.96-23.82,1.99
		c-15.87,0.05-31.73-0.5-47.6-0.92c-2.86-0.07-5.7-0.88-8.56-1.04c-4.47-0.26-6.17-3.4-7.86-7.27c32.03,3.33,63.79,3.51,95.64,0.03
		C294.23,392.05,295.33,391.53,288.66,392.49 M319.4,143.31c0-6.44-1.47-12.55-4.55-18.27c-1.79-3.33-3.41-6.76-4.84-10.26
		c-1.14-2.79-1.82-5.62-0.9-8.83c1.32-4.65-1.93-9.47-6.65-10.4c-2-0.39-4.08-0.45-6.13-0.6c-29.01-2.21-58.04-2.23-87.07-0.73
		c-4.43,0.23-8.89,0.56-13.25,1.32c-5.89,1.03-8.8,6.52-6.34,11.97c0.97,2.14,0.66,3.78-0.34,5.54c-0.77,1.35-1.63,2.68-2.63,3.86
		c-6.73,7.93-9.97,17.09-9.95,27.48c0.03,29.1,0.01,106.94,0.01,136.04c0,29.84,0,59.68,0,89.51c0,7.29,2.58,13.21,8.59,17.68
		c2.59,1.92,5.27,4.26,6.72,7.03c1.98,3.79,4.46,6.64,8.45,7.69c4.99,1.32,10.07,2.59,15.18,3.04c22.25,1.99,44.54,1.82,66.8,0.01
		c5.81-0.47,11.6-1.33,16.96-3.95c2.8-1.37,4.42-3.6,5.84-6.36c1.46-2.84,3.38-5.75,5.83-7.72c5.24-4.22,8.28-9.32,8.28-16.04
		C319.43,311.58,319.43,203.06,319.4,143.31"/>
	<ellipse class="st7" cx="249.76" cy="100.42" rx="77.86" ry="20.75"/>
</g>
<g id="SS_355STD" class="st0">
	<g class="st3">
		<path class="st4" d="M319.86,365.49c-47.53,11.7-96.02,11.7-143.54,0c-7.87-1.94-13.18-10.32-12.16-18.39
			c6.93-58.67,5.51-119.5-5.53-178.15c-1.6-8.06,3.61-16.47,12.04-18.46c50.82-11.97,104.02-11.97,154.84,0
			c8.43,1.98,13.64,10.4,12.04,18.46c-11.04,58.65-12.46,119.48-5.53,178.15C333.04,355.17,327.73,363.55,319.86,365.49z"/>
	</g>
	<g class="st5">
		<path class="st6" d="M306.79,371.32c-39,6.61-78.4,6.61-117.4,0c-12.42-2.17-21.06-14.51-19.8-26.73
			c5.36-55.79,5.36-112.32,0-168.11c-1.26-12.21,7.39-24.56,19.8-26.73c39-6.61,78.4-6.61,117.4,0
			c12.42,2.17,21.06,14.51,19.8,26.73c-5.36,55.79-5.36,112.32,0,168.11C327.85,356.81,319.2,369.16,306.79,371.32z"/>
	</g>
	<path class="st2" d="M304.67,249.49c0,40.47,0,80.94,0,121.41c0,4.6-1.38,5.99-5.93,6.26c-14.45,0.86-28.88,2.15-43.34,2.55
		c-11.33,0.31-22.69-0.32-34.02-0.81c-8.05-0.35-16.08-1.18-24.11-1.76c-4.21-0.3-5.74-1.84-5.75-6.05
		c-0.02-6.83-0.01-13.65-0.01-20.17l0.09-30V215.85c-0.01-0.13-0.02-0.27-0.03-0.4c-0.04-0.84-0.02-1.68,0.03-2.51v-0.75
		c0.02,0,0.04,0,0.06,0c0.32-3.52,1.41-6.88,3.09-9.93l0.84-1.47c0.61-0.83,0.12-0.2,0.7-1.01c0.16-0.24,0.33-0.46,0.5-0.69
		c0.4-0.54,0.8-1.08,1.22-1.6c3.86-4.75,6.77-9.9,7.46-16.15c0.06-0.58,1.23-1.46,1.9-1.48c18.01-0.48,36.03-1.07,54.04-1.19
		c9.95-0.07,19.9,0.71,29.85,1.11c0.73,0.03,1.45,0.11,1.93,0.14c1.14,4.07,1.96,8.03,3.39,11.76c1.43,3.72,3.47,7.19,5.14,10.57
		h-0.25c1.49,3.07,2.49,6.43,2.91,9.94c0.04,0,0.07,0,0.1,0v0.92c0.04,0.47,0.08,0.95,0.1,1.43c0.05,1.14,0.01,2.26-0.1,3.37v-6.14
		c0.12,0.23,0.19,0.5,0.19,0.83v34.1h0.02V249.49z M288.66,393.4c-7.88,1.14-15.87,1.96-23.82,1.99c-15.87,0.05-31.73-0.5-47.6-0.92
		c-2.86-0.07-5.7-0.88-8.56-1.04c-4.47-0.26-6.17-3.4-7.86-7.27c32.03,3.33,63.79,3.51,95.64,0.03
		C294.23,392.95,295.33,392.43,288.66,393.4 M319.4,214.21c0-6.44-1.47-12.55-4.55-18.27c-1.79-3.33-3.41-6.76-4.84-10.26
		c-1.14-2.79-1.82-5.62-0.9-8.83c1.32-4.65-1.93-9.47-6.65-10.4c-2-0.39-4.08-0.45-6.13-0.6c-29.01-2.21-58.04-2.23-87.07-0.73
		c-4.43,0.23-8.89,0.56-13.25,1.32c-5.89,1.03-8.8,6.52-6.34,11.97c0.97,2.14,0.66,3.78-0.34,5.54c-0.77,1.35-1.63,2.68-2.63,3.86
		c-6.73,7.93-9.97,17.09-9.95,27.48c0.03,29.1,0.01,36.94,0.01,66.04c0,29.84,0,59.68,0,89.51c0,7.29,2.58,13.21,8.59,17.68
		c2.59,1.92,5.27,4.26,6.72,7.03c1.98,3.79,4.46,6.64,8.45,7.69c4.99,1.32,10.07,2.59,15.18,3.04c22.25,1.99,44.54,1.82,66.8,0.01
		c5.81-0.47,11.6-1.33,16.96-3.95c2.8-1.37,4.42-3.6,5.84-6.36c1.46-2.84,3.38-5.75,5.83-7.72c5.24-4.22,8.28-9.32,8.28-16.04
		C319.43,312.48,319.43,273.96,319.4,214.21"/>
	<ellipse class="st7" cx="248.38" cy="169.69" rx="72.29" ry="20.75"/>
</g>
<g id="SS_355SLK" class="st0">
	<g class="st3">
		<path class="st4" d="M311.16,362.04c-41.6,14.2-84.04,14.2-125.64,0c-7.04-2.39-12.06-10.55-11.37-17.77
			c6.73-75.3,5.46-153.61-5.11-228.87c-1.07-7.21,3.99-15.41,11.53-17.86c44.49-14.53,91.05-14.53,135.54,0
			c7.55,2.45,12.6,10.65,11.53,17.86c-10.56,75.27-11.84,153.58-5.11,228.87C323.22,351.49,318.2,359.65,311.16,362.04z"/>
	</g>
	<g class="st5">
		<path class="st6" d="M299.53,367.58c-34.01,7.92-68.38,7.92-102.39,0c-11.11-2.64-19.19-14.53-18.32-25.45
			c5.41-72.96,5.41-147.01,0-219.97c-0.87-10.93,7.21-22.81,18.32-25.45c34.01-7.92,68.38-7.92,102.39,0
			c11.11,2.64,19.19,14.52,18.32,25.45c-5.41,72.96-5.41,147.01,0,219.97C318.72,353.05,310.64,364.94,299.53,367.58z"/>
	</g>
	<path class="st2" d="M294.92,249.85c0,40.47,0,80.94,0,121.41c0,4.6-1.38,5.99-5.93,6.26c-14.45,0.86-8.88,2.15-23.34,2.55
		c-11.33,0.31-22.69-0.32-34.02-0.81c-8.05-0.35-16.08-1.18-24.11-1.76c-4.21-0.3-5.74-1.84-5.75-6.05
		c-0.02-6.83-0.01-13.65-0.01-20.17l0.09-30V164.21c-0.01-0.13-0.02-0.27-0.03-0.4c-0.04-0.84-0.02-1.68,0.03-2.51v-0.75
		c0.02,0,0.04,0,0.06,0c0.32-3.52,1.41-6.88,3.09-9.93l0.84-1.47c0.61-0.83,0.12-0.2,0.7-1.01c0.16-0.24,0.33-0.46,0.5-0.69
		c0.4-0.54,0.8-1.08,1.22-1.6c3.86-4.75,6.77-6.9,7.46-13.15c0.06-0.58,1.23-1.46,1.9-1.48c18.01-0.48,36.03-1.07,54.04-1.19
		c9.95-0.07-0.1,0.71,9.85,1.11c0.73,0.03,1.45,0.11,1.93,0.14c1.14,4.07,1.96,5.03,3.39,8.76c1.43,3.72,3.47,7.19,5.14,10.57h-0.25
		c1.49,3.07,2.49,6.43,2.91,9.94c0.04,0,0.07,0,0.1,0v0.92c0.04,0.47,0.08,0.95,0.1,1.43c0.05,1.14,0.01,2.26-0.1,3.37v45.86
		c0.12,0.23,0.19,0.5,0.19,0.82v34.1h0.02V249.85z M278.91,393.75c-7.88,1.14-11.74,2.01-19.69,2.04
		c-15.87,0.05-15.87-0.54-31.73-0.96c-2.86-0.07-5.7-0.88-8.56-1.04c-4.47-0.26-6.17-3.4-7.86-7.27
		c32.03,3.33,43.79,3.51,75.64,0.03C284.48,393.31,285.58,392.79,278.91,393.75 M309.65,162.57c0-6.44-1.47-12.55-4.55-18.27
		c-1.79-3.33-3.41-3.76-4.84-7.26c-1.14-2.79-1.82-5.62-0.9-8.83c1.32-4.65-1.93-9.47-6.65-10.4c-2-0.39-4.08-0.45-6.13-0.6
		c-29.01-2.21-38.04-2.23-67.07-0.73c-4.43,0.23-8.89,0.56-13.25,1.32c-5.89,1.03-8.8,6.52-6.34,11.97
		c0.97,2.14,0.66,3.78-0.34,5.54c-0.77,1.35-1.63,2.68-2.63,3.86c-6.73,7.93-9.97,14.09-9.95,24.48
		c0.03,29.1,0.01,88.94,0.01,118.04c0,29.84,0,59.68,0,89.51c0,7.29,2.58,13.21,8.59,17.68c2.59,1.92,5.27,4.26,6.72,7.03
		c1.98,3.79,4.46,6.64,8.45,7.69c4.99,1.32,10.07,2.59,15.18,3.04c22.25,1.99,24.54,1.82,46.8,0.01c5.81-0.47,11.6-1.33,16.96-3.95
		c2.8-1.37,4.42-3.6,5.84-6.36c1.46-2.84,3.38-5.75,5.83-7.72c5.24-4.22,8.28-9.32,8.28-16.04
		C309.68,312.84,309.68,222.32,309.65,162.57"/>
	<ellipse class="st7" cx="250.11" cy="118.54" rx="64.78" ry="18.96"/>
</g>
<g id="SS_250SLM" class="st0">
	<g class="st3">
		<path class="st4" d="M304.39,363.71c-35.55,13.05-71.8,13.05-107.35,0c-6.32-2.31-10.87-9.8-10.29-16.27
			c5.86-70.66,4.76-144.18-4.42-214.82c-0.89-6.47,3.72-14,10.49-16.36c38.03-13.34,77.79-13.34,115.81,0
			c6.77,2.36,11.38,9.9,10.49,16.36c-9.18,70.64-10.29,144.16-4.42,214.82C315.26,353.9,310.71,361.4,304.39,363.71z"/>
	</g>
	<g class="st5">
		<path class="st6" d="M294.11,368.89c-28.83,7.16-57.96,7.16-86.79,0c-9.96-2.52-17.27-13.42-16.55-23.21
			c4.73-68.65,4.73-138.35,0-207c-0.73-9.8,6.58-20.69,16.55-23.21c28.83-7.16,57.96-7.16,86.79,0
			c9.97,2.52,17.28,13.42,16.55,23.21c-4.73,68.65-4.73,138.35,0,207C311.39,355.47,304.08,366.36,294.11,368.89z"/>
	</g>
	<path class="st2" d="M290.85,258.72c0,37.81,0,75.62,0,113.43c0,4.3-1.19,5.59-5.11,5.85c-12.45,0.8-7.65,2.01-20.11,2.38
		c-9.76,0.29-19.55-0.3-29.32-0.75c-6.93-0.32-13.85-1.1-20.78-1.64c-3.63-0.28-4.94-1.72-4.95-5.65
		c-0.02-6.38-0.01-12.76-0.01-18.84l0.08-28.03V178.71c-0.01-0.13-0.02-0.25-0.02-0.38c-0.03-0.79-0.02-1.57,0.02-2.34v-0.7
		c0.02,0,0.03,0,0.05,0c0.28-3.29,1.22-6.43,2.66-9.27l0.72-1.37c0.52-0.78,0.1-0.18,0.6-0.94c0.14-0.22,0.29-0.43,0.43-0.65
		c0.34-0.51,0.69-1.01,1.05-1.49c3.33-4.44,5.83-6.45,6.43-12.28c0.05-0.54,1.06-1.36,1.63-1.38c15.52-0.45,31.04-1,46.56-1.11
		c8.57-0.06-0.09,0.66,8.48,1.03c0.63,0.03,1.25,0.1,1.66,0.13c0.98,3.8,1.69,4.7,2.92,8.18c1.23,3.47,2.99,6.72,4.43,9.87h-0.21
		c1.29,2.87,2.14,6,2.51,9.29c0.03,0,0.06,0,0.09,0v0.86c0.04,0.44,0.07,0.89,0.08,1.34c0.04,1.06,0.01,2.11-0.08,3.15v42.84
		c0.1,0.22,0.17,0.47,0.17,0.77v31.86h0.02V258.72z M277.06,393.16c-6.79,1.06-2.54,1.82-9.39,1.84
		c-13.67,0.04-21.24-0.45-34.91-0.84c-2.46-0.07-4.91-0.82-7.37-0.97c-3.85-0.24-5.32-3.18-6.77-6.79
		c27.6,3.11,37.73,3.28,65.17,0.03C281.85,392.75,282.8,392.27,277.06,393.16 M303.54,177.17c0-6.02-1.26-11.72-3.92-17.07
		c-1.54-3.11-2.94-3.52-4.17-6.78c-0.98-2.61-1.57-5.25-0.77-8.25c1.14-4.34-1.66-8.85-5.73-9.71c-1.73-0.37-3.51-0.42-5.28-0.56
		c-24.99-2.07-32.77-2.09-57.79-0.68c-3.82,0.22-7.66,0.52-11.41,1.24c-5.08,0.96-7.58,6.1-5.46,11.19c0.84,2,0.57,3.54-0.29,5.17
		c-0.66,1.26-1.4,2.51-2.27,3.61c-5.8,7.41-8.59,13.16-8.58,22.87c0.02,27.18,0.01,83.1,0.01,110.28c0,27.88,0,55.75,0,83.63
		c0,6.82,2.22,12.34,7.4,16.52c2.23,1.8,4.54,3.98,5.79,6.57c1.7,3.54,3.84,6.2,7.28,7.18c4.3,1.23,8.67,2.42,13.08,2.84
		c19.17,1.86,21.14,1.7,40.32,0.01c5.01-0.44,10-1.24,14.62-3.69c2.42-1.28,3.81-3.36,5.03-5.95c1.26-2.65,2.91-5.37,5.02-7.21
		c4.51-3.95,7.13-8.71,7.14-14.99C303.57,317.57,303.57,233,303.54,177.17"/>
	<ellipse class="st7" cx="250.71" cy="133.96" rx="57.38" ry="18.96"/>
</g>
<g id="Shrink_Sleeve">
	<g>
		<g>
			<defs>
				<rect id="SVGID_1_" x="157.82" y="18.03" width="182.36" height="388.8"/>
			</defs>
			<clipPath id="SVGID_00000016041583589851896990000014462653671549167002_">
				<use xlink:href="#SVGID_1_"  style="overflow:visible;"/>
			</clipPath>
			<path style="clip-path:url(#SVGID_00000016041583589851896990000014462653671549167002_);fill:#FCFCF5;" d="M185.13,387.48
				c2.58,1.94,5.25,4.28,6.69,7.05c1.96,3.79,4.45,6.64,8.42,7.72c4.99,1.32,10.06,2.6,15.17,3.08c22.24,2.04,44.51,1.92,66.76,0.18
				c5.82-0.46,11.61-1.31,16.97-3.91c2.81-1.37,4.43-3.59,5.86-6.36c1.47-2.83,3.4-5.73,5.84-7.7c1.61-1.29,2.98-2.68,4.15-4.15
				H180.92C182.08,384.85,183.46,386.23,185.13,387.48z M296.2,385.41c-2.24,6.75-1.14,6.23-7.82,7.18
				c-7.87,1.11-15.87,1.94-23.81,1.94c-15.85,0.01-31.72-0.58-47.57-1.04c-2.86-0.08-5.69-0.88-8.56-1.06
				c-4.46-0.26-6.15-3.41-7.83-7.28C232.6,388.55,264.35,388.81,296.2,385.41z"/>
			<path style="clip-path:url(#SVGID_00000016041583589851896990000014462653671549167002_);fill:#FCFCF5;" d="M194.92,131.34
				c1.19-1.63,2.27-3.26,3.49-4.75c3.87-4.73,6.79-9.88,7.5-16.11c0.06-0.58,1.23-1.46,1.9-1.47c18.01-0.44,36.01-0.99,54.02-1.05
				c9.95-0.04,19.89,0.76,29.84,1.18c0.73,0.03,1.45,0.1,1.92,0.14c1.14,4.06,1.94,8.04,3.36,11.77c1.39,3.63,3.36,7.03,5,10.34
				h15.87c-0.68-2.06-1.53-4.08-2.59-6.06c-1.78-3.32-3.38-6.77-4.81-10.27c-1.14-2.79-1.81-5.61-0.88-8.82
				c1.35-4.65-1.9-9.48-6.61-10.42c-2.01-0.4-4.08-0.46-6.13-0.62c-28.99-2.28-58.01-2.37-87.03-0.94
				c-4.42,0.22-8.88,0.53-13.24,1.28c-5.9,1.01-8.82,6.5-6.37,11.96c0.96,2.14,0.65,3.78-0.35,5.54c-0.77,1.35-1.64,2.67-2.64,3.86
				c-3.78,4.43-6.43,9.27-8.06,14.48h30.11L194.92,131.34z"/>
		</g>
		<g>
			<polygon class="st9" points="163.29,377.94 163.29,377.94 163.29,377.94 			"/>
			<polygon class="st9" points="163.29,136.82 163.29,136.82 163.29,136.81 			"/>
			<polygon class="st9" points="168.73,131.37 168.73,131.37 168.73,131.37 			"/>
			<polygon class="st9" points="329.27,131.37 329.27,131.37 329.27,131.37 			"/>
			<polygon class="st9" points="168.73,383.38 168.73,383.37 168.72,383.37 			"/>
			<path class="st9" d="M334.71,388.83c2.85,0,5.58-2.51,5.45-5.45C340.16,386.43,337.66,388.7,334.71,388.83z"/>
			<path class="st9" d="M334.72,377.94v5.44h-5.45c0,0,0,0.01,0,0.01c0,2.85,2.51,5.57,5.45,5.45c2.95-0.13,5.45-2.4,5.45-5.45
				C340.03,380.44,337.77,377.94,334.72,377.94z"/>
			<path class="st9" d="M340.16,131.81c0-0.15,0-0.29,0-0.44c0-2.95-2.5-5.45-5.45-5.45H317.6h-41.05h-49.37H184.3
				c-6.91,0-13.83-0.14-20.72,0c-0.1,0-0.19,0-0.29,0c-2.95,0-5.45,2.5-5.45,5.45v6.75v18.37v27.07v33.13v36.28v36.5v34.15v28.85
				v20.67c0,3.27-0.04,6.54,0,9.8c0,0.15,0,0.29,0,0.44c0,2.95,2.5,5.45,5.45,5.45h17.11h41.05h49.37h42.88
				c6.89,0,13.82,0.14,20.72,0c0.1,0,0.19,0,0.29,0c-2.93,0.13-5.45-2.6-5.45-5.45c0,0,0-0.01,0-0.01H168.73v0.01
				c0,0-0.01-0.01-0.01-0.01h-5.43v-5.43c0,0,0,0-0.01-0.01c0,0,0,0,0.01,0V136.82h-0.01c0,0,0,0,0.01-0.01v-5.44h5.44c0,0,0,0,0,0
				c0,0,0,0,0,0h160.53v0c0,0,0,0,0,0h5.45v246.56c3.05,0,5.31,2.5,5.44,5.45v-6.75v-18.38V331.2v-33.13v-36.28v-36.5v-34.15v-28.85
				v-20.67C340.16,138.34,340.2,135.07,340.16,131.81z"/>
			<path class="st9" d="M163.29,131.37v5.44c1.82-1.82,3.62-3.62,5.44-5.44H163.29z"/>
			<path class="st9" d="M163.29,383.37h5.43c-1.81-1.81-3.62-3.63-5.43-5.43V383.37z"/>
			<path class="st9" d="M168.73,377.84v-1.21v-18.38V331.2v-33.13v-36.28v-36.5v-34.15v-28.85v-20.67c0-1.6,0.02-3.2,0.02-4.79
				h-5.46v241.12c0.1,0,0.19,0,0.29,0C165.3,377.88,167.01,377.85,168.73,377.84z"/>
			<path class="st9" d="M329.25,377.94H317.6h-41.05h-49.37H184.3c-5.18,0-10.38-0.14-15.57-0.1v5.54h160.53c0-0.14,0-0.28,0-0.43
				C329.25,381.28,329.25,379.61,329.25,377.94z"/>
			<path class="st9" d="M163.58,377.94c-0.1,0-0.19,0-0.29,0v0.01c1.81,1.8,3.62,3.62,5.43,5.43h0.01v-5.54
				C167.01,377.85,165.3,377.88,163.58,377.94z"/>
			<path class="st9" d="M334.72,377.94C334.72,377.94,334.71,377.94,334.72,377.94l-5.47,0c0,1.67-0.01,3.34,0.01,5.01
				c0,0.15,0,0.29,0,0.43h5.45V377.94z"/>
			<path class="st9" d="M334.42,136.82c-1.72,0.06-3.43,0.09-5.15,0.1v1.21v18.37v27.07v33.13v36.28v36.5v34.15v28.85v20.67
				c0,1.6-0.01,3.2-0.01,4.79h5.46c0,0,0,0,0.01,0V131.37h-5.45c1.82,1.82,3.64,3.63,5.44,5.44
				C334.61,136.82,334.52,136.82,334.42,136.82z"/>
			<path class="st9" d="M334.42,136.82c0.1,0,0.19,0,0.29,0c-1.81-1.82-3.63-3.63-5.44-5.44h0v5.54
				C330.98,136.9,332.7,136.88,334.42,136.82z"/>
			<path class="st9" d="M168.73,131.81c0-0.15,0-0.29,0-0.43h0c-1.82,1.82-3.62,3.62-5.44,5.44v0.01h5.46
				C168.76,135.14,168.77,133.47,168.73,131.81z"/>
			<path class="st9" d="M168.76,136.82h11.64h41.05h49.37h42.88c5.18,0,10.38,0.13,15.57,0.1v-5.54H168.73c0,0.14,0,0.28,0,0.43
				C168.77,133.47,168.76,135.14,168.76,136.82z"/>
			<path class="st10" d="M207.44,21.81c-2.56,7.87-2.93,16.3-0.7,24.3c2.08,7.43,9.27,16.94,4.74,24.66
				c-3.55,6.05,5.87,11.55,9.41,5.5c4.64-7.91,2.87-16.43-0.42-24.48c-3.78-9.19-5.69-17.35-2.51-27.08
				C220.11,18.03,209.6,15.16,207.44,21.81"/>
			<path class="st10" d="M240.33,21.81c-2.56,7.87-2.93,16.3-0.7,24.3c2.08,7.43,9.27,16.94,4.74,24.66
				c-3.55,6.05,5.87,11.55,9.41,5.5c4.64-7.91,2.87-16.43-0.42-24.48c-3.78-9.19-5.69-17.35-2.51-27.08
				C253.01,18.03,242.5,15.16,240.33,21.81"/>
			<path class="st10" d="M270.7,21.81c-2.56,7.87-2.93,16.3-0.7,24.3c2.08,7.43,9.27,16.94,4.74,24.66
				c-3.55,6.05,5.86,11.55,9.41,5.5c4.64-7.91,2.87-16.43-0.42-24.48c-3.78-9.19-5.69-17.35-2.51-27.08
				C283.38,18.03,272.87,15.16,270.7,21.81"/>
			<path class="st10" d="M201.33,235.11h-0.97c-3.9-0.01-7.09,3.17-7.1,7.06l-0.33,135.08c0.06,0,0.14,0,0.21,0.01h14.93
				l0.33-135.05C208.4,238.31,205.22,235.11,201.33,235.11z"/>
			<path class="st10" d="M228.5,282.45l-0.97-0.01c-3.9,0-7.1,3.18-7.1,7.07l-0.22,87.94h15.14l0.22-87.92
				C235.57,285.65,232.4,282.45,228.5,282.45z"/>
		</g>
	</g>
</g>
<g id="PSL" class="st0">
	<g class="st3">
		<path class="st11" d="M286.27,168.59v163.05c0,13.88-11.16,25.15-25.04,25.33c-33.83,0.43-95.48,4.52-144.01-11.1
			c-10.45-3.36-17.5-13.12-17.5-24.09V165.52c0-14.37,11.93-25.85,26.29-25.31c31.39,1.18,85.53,7.95,132.33,3.18
			C273.28,141.87,286.27,153.57,286.27,168.59"/>
		<path class="st9" d="M304.67,248.59c0,40.47,0,80.94,0,121.41c0,4.6-1.38,5.99-5.93,6.26c-14.45,0.86-28.88,2.15-43.34,2.55
			c-11.33,0.31-22.69-0.32-34.02-0.81c-8.05-0.35-16.08-1.18-24.11-1.76c-4.21-0.3-5.74-1.84-5.75-6.05
			c-0.02-6.83-0.01-13.65-0.01-20.17l0.09-30V144.95c-0.01-0.13-0.02-0.27-0.03-0.4c-0.04-0.84-0.02-1.68,0.03-2.51v-0.75
			c0.02,0,0.04,0,0.06,0c0.32-3.52,1.41-6.88,3.09-9.93l0.84-1.47c0.61-0.83,0.12-0.2,0.7-1.01c0.16-0.24,0.33-0.46,0.5-0.69
			c0.4-0.54,0.8-1.08,1.22-1.6c3.86-4.75,6.77-9.9,7.46-16.15c0.06-0.58,1.23-1.46,1.9-1.48c18.01-0.48,36.03-1.07,54.04-1.19
			c9.95-0.07,19.9,0.71,29.85,1.11c0.73,0.03,1.45,0.11,1.93,0.14c1.14,4.07,1.96,8.03,3.39,11.76c1.43,3.72,3.47,7.19,5.14,10.57
			h-0.25c1.49,3.07,2.49,6.43,2.91,9.94c0.04,0,0.07,0,0.1,0v0.92c0.04,0.47,0.08,0.95,0.1,1.43c0.05,1.14,0.01,2.26-0.1,3.37v63.86
			c0.12,0.23,0.19,0.5,0.19,0.82v34.1h0.02V248.59z M288.66,392.49c-7.88,1.14-15.87,1.96-23.82,1.99
			c-15.87,0.05-31.73-0.5-47.6-0.92c-2.86-0.07-5.7-0.88-8.56-1.04c-4.47-0.26-6.17-3.4-7.86-7.27c32.03,3.33,63.79,3.51,95.64,0.03
			C294.23,392.05,295.33,391.53,288.66,392.49 M319.4,143.31c0-6.44-1.47-12.55-4.55-18.27c-1.79-3.33-3.41-6.76-4.84-10.26
			c-1.14-2.79-1.82-5.62-0.9-8.83c1.32-4.65-1.93-9.47-6.65-10.4c-2-0.39-4.08-0.45-6.13-0.6c-29.01-2.21-58.04-2.23-87.07-0.73
			c-4.43,0.23-8.89,0.56-13.25,1.32c-5.89,1.03-8.8,6.52-6.34,11.97c0.97,2.14,0.66,3.78-0.34,5.54c-0.77,1.35-1.63,2.68-2.63,3.86
			c-6.73,7.93-9.97,17.09-9.95,27.48c0.03,29.1,0.01,106.94,0.01,136.04c0,29.84,0,59.68,0,89.51c0,7.29,2.58,13.21,8.59,17.68
			c2.59,1.92,5.27,4.26,6.72,7.03c1.98,3.79,4.46,6.64,8.45,7.69c4.99,1.32,10.07,2.59,15.18,3.04c22.25,1.99,44.54,1.82,66.8,0.01
			c5.81-0.47,11.6-1.33,16.96-3.95c2.8-1.37,4.42-3.6,5.84-6.36c1.46-2.84,3.38-5.75,5.83-7.72c5.24-4.22,8.28-9.32,8.28-16.04
			C319.43,311.58,319.43,203.06,319.4,143.31"/>
	</g>
</g>
</svg>
