<?xml version="1.0" encoding="UTF-8"?>
<svg id="Layer_2" data-name="Layer 2" xmlns="http://www.w3.org/2000/svg" viewBox="0 0 432 159.67">
  <defs>
    <style>
      .cls-1 {
        fill: #fff;
      }
    </style>
  </defs>
  <g id="Layer_1-2" data-name="Layer 1">
    <g>
      <g>
        <path class="cls-1" d="m266.72,155.77h-2.3c-2.1,0-3.83-1.72-3.83-3.83v-.37c0-2.11,1.72-3.83,3.83-3.83h2.3c1.35,0,2.55.68,3.28,1.71l3.81-1.65c-1.36-2.3-3.86-3.85-6.72-3.85h-3.02c-4.21,0-7.63,3.42-7.63,7.63v.35c0,4.21,3.42,7.63,7.63,7.63h3.02c2.86,0,5.36-1.55,6.72-3.85l-3.81-1.65c-.73,1.03-1.92,1.71-3.27,1.71Z"/>
        <path class="cls-1" d="m330.62,144.12h-11.56s0,15.28,0,15.28h4.14v-5.57h7.42c2.68,0,4.86-2.18,4.86-4.86s-2.18-4.86-4.86-4.86Zm-.78,6.37h-6.64v-3.02h6.64c.83,0,1.51.68,1.51,1.51s-.68,1.51-1.51,1.51Z"/>
        <polygon class="cls-1" points="370.97 144.11 366.83 144.11 366.83 153.54 358.82 144.11 354.65 144.11 354.65 159.41 358.79 159.41 358.79 149.97 366.8 159.41 370.97 159.41 370.97 144.11"/>
        <path class="cls-1" d="m401.49,146.12c0,.55-.1,1.06-.29,1.52-.19.46-.46.85-.79,1.17-.33.32-.72.58-1.16.75-.44.18-.9.27-1.38.27-.53,0-1.03-.09-1.47-.28-.45-.19-.83-.45-1.15-.78-.32-.33-.57-.72-.75-1.17-.18-.45-.27-.94-.27-1.47,0-.55.1-1.06.29-1.52.19-.46.46-.84.79-1.17.33-.32.72-.57,1.16-.75.44-.18.91-.27,1.4-.27s.94.09,1.38.27c.44.18.83.43,1.16.75.33.32.6.71.79,1.17.19.46.29.96.29,1.52Zm-.79,0c0-.45-.07-.86-.22-1.24-.15-.38-.35-.7-.6-.97-.26-.27-.56-.48-.9-.63-.34-.15-.71-.22-1.11-.22s-.78.07-1.12.22c-.35.15-.65.36-.91.63-.26.27-.46.59-.6.97-.15.38-.22.79-.22,1.24,0,.42.07.82.2,1.19.13.37.32.69.57.97.25.28.55.5.9.66.35.16.75.24,1.19.24.4,0,.77-.08,1.11-.22.34-.15.64-.36.9-.63.26-.27.46-.59.6-.97.15-.37.22-.79.22-1.24Zm-3.57,2.12h-.67v-4.1h1.56c.5,0,.87.09,1.12.28.25.19.38.49.38.9,0,.37-.1.64-.31.81-.2.17-.46.27-.76.31l1.15,1.8h-.76l-1.06-1.75h-.63v1.75Zm.75-2.33c.13,0,.25,0,.36-.02.12,0,.22-.04.3-.08.09-.05.16-.11.21-.19.05-.08.08-.2.08-.35,0-.13-.03-.22-.08-.3-.06-.07-.13-.13-.21-.17-.09-.04-.18-.06-.29-.07-.11,0-.21-.01-.31-.01h-.81v1.2h.75Z"/>
        <path class="cls-1" d="m37.81,144.12h5.38l7.41,15.29h-4.6l-1.28-2.7h-8.37l-1.21,2.7h-4.61l7.29-15.29Zm.07,9.29h5.29l-2.68-5.74-2.61,5.74Z"/>
        <path class="cls-1" d="m340.39,144.12h5.38l7.41,15.29h-4.6l-1.29-2.7h-8.38l-1.21,2.7h-4.61l7.3-15.29Zm.07,9.29h5.29l-2.68-5.75-2.61,5.75Z"/>
        <polygon class="cls-1" points="311.03 144.12 305.62 150.1 300.23 144.12 295.42 144.12 295.42 159.41 299.64 159.41 299.64 149.3 305.62 155.93 311.61 149.3 311.61 159.41 315.82 159.41 315.82 144.12 311.03 144.12"/>
        <polygon class="cls-1" points="382.59 149.84 377.79 144.11 372.38 144.11 380.52 153.81 380.52 159.4 384.66 159.4 384.66 153.81 392.8 144.11 387.4 144.11 382.59 149.84"/>
        <path class="cls-1" d="m110.54,155.77h-2.3c-2.1,0-3.83-1.72-3.83-3.83v-.37c0-2.11,1.72-3.83,3.83-3.83h2.3c1.35,0,2.55.68,3.28,1.71l3.81-1.65c-1.36-2.3-3.86-3.85-6.72-3.85h-3.02c-4.21,0-7.63,3.42-7.63,7.63v.35c0,4.21,3.42,7.63,7.63,7.63h3.02c2.86,0,5.36-1.55,6.72-3.85l-3.81-1.65c-.73,1.03-1.92,1.71-3.27,1.71Z"/>
        <polygon class="cls-1" points="73.1 147.46 73.1 144.12 57.36 144.12 57.36 147.46 63.17 147.46 63.16 159.4 67.3 159.4 67.3 147.46 73.1 147.46"/>
        <rect class="cls-1" x="93.88" y="144.12" width="4.14" height="15.29"/>
        <polygon class="cls-1" points="247.11 144.12 242.97 144.12 242.97 153.54 234.97 144.12 230.79 144.12 230.79 159.4 234.93 159.4 234.93 149.97 242.94 159.4 247.11 159.4 247.11 144.12"/>
        <path class="cls-1" d="m129.53,143.95h-3.57c-4.1,0-7.44,3.34-7.44,7.44v.73c0,4.1,3.34,7.44,7.44,7.44h3.57c4.1,0,7.44-3.34,7.44-7.44v-.73c0-4.1-3.34-7.44-7.44-7.44Zm3.28,8.42c0,1.87-1.53,3.4-3.4,3.4h-3.33c-1.87,0-3.4-1.53-3.4-3.4v-1.22c0-1.87,1.53-3.4,3.4-3.4h3.33c1.87,0,3.4,1.53,3.4,3.4v1.22Z"/>
        <path class="cls-1" d="m87.59,153.75c2.28-.39,4.03-2.39,4.03-4.78,0-2.68-2.18-4.86-4.86-4.86h-11.56v15.29h4.14v-5.57h3.58l4.05,5.57h4.72l-4.1-5.65Zm-1.61-3.26h-6.64v-3.04h6.64c.83,0,1.51.68,1.51,1.52s-.68,1.52-1.51,1.52Z"/>
        <path class="cls-1" d="m151.64,153.75c2.28-.39,4.03-2.39,4.03-4.78,0-2.68-2.18-4.86-4.86-4.86h-11.56v15.29h4.14v-5.57h3.58l4.05,5.57h4.72l-4.1-5.65Zm-1.61-3.26h-6.64v-3.04h6.64c.83,0,1.51.68,1.51,1.52s-.68,1.52-1.51,1.52Z"/>
        <path class="cls-1" d="m285.6,143.99h-3.57c-4.1,0-7.44,3.34-7.44,7.44v.73c0,4.1,3.34,7.44,7.44,7.44h3.57c4.1,0,7.44-3.34,7.44-7.44v-.73c0-4.1-3.34-7.44-7.44-7.44Zm3.28,8.42c0,1.87-1.53,3.4-3.4,3.4h-3.33c-1.87,0-3.4-1.53-3.4-3.4v-1.22c0-1.87,1.53-3.4,3.4-3.4h3.33c1.87,0,3.4,1.53,3.4,3.4v1.22Z"/>
        <path class="cls-1" d="m172.73,151.63c1.27-1.06,1.43-2.37,1.43-2.96,0-2.72-1.69-4.55-4.22-4.55h-11.69s0,15.29,0,15.29h12.02c2.71,0,4.53-1.89,4.53-4.71,0-1.56-.92-2.5-2.09-3.07Zm-10.33-4.06h6.39c.7,0,1.27.57,1.27,1.27s-.57,1.27-1.27,1.27h-6.39v-2.53Zm6.78,8.38h-6.78v-2.53h6.78c.7,0,1.27.57,1.27,1.27s-.57,1.27-1.27,1.27Z"/>
        <path class="cls-1" d="m205.25,144.12h-5.38l-6.95,14.57-3.58-4.94c2.28-.39,4.02-2.39,4.02-4.78,0-2.68-2.18-4.86-4.85-4.86h-8.64s-2.91,0-2.91,0v15.29h4.14v-5.58h3.58l4.05,5.58h8.47l1.21-2.71h8.37l1.29,2.71h4.59l-7.4-15.29Zm-24.16,3.34h6.64c.83,0,1.51.68,1.51,1.52s-.68,1.52-1.51,1.52h-6.64v-3.04Zm18.86,5.95l2.6-5.75,2.68,5.75h-5.29Z"/>
        <path class="cls-1" d="m224.34,144.12v8.21c0,1.78-1.45,3.23-3.23,3.23h-1.67c-1.78,0-3.23-1.45-3.23-3.23v-8.21h-4.12v8.21c0,4.05,3.29,7.34,7.34,7.34h1.67c4.05,0,7.34-3.29,7.34-7.34v-8.21h-4.12Z"/>
      </g>
      <g>
        <path class="cls-1" d="m129.9,40.63l5.23-11.9c.27-.62-.18-1.32-.86-1.32h-42.21c-.52,0-.94.42-.94.94v67.48c0,.52.42.94.94.94h42.7c.52,0,.94-.42.94-.94l-.05-11.94c0-.52-.42-.93-.94-.93l-28.88.04c-.52,0-.94-.42-.94-.94v-12.09c0-.52.42-.94.94-.94h20.62c.52,0,.94-.42.94-.94v-12c0-.52-.42-.94-.94-.94h-20.62c-.52,0-.94-.42-.94-.94v-12.09c0-.52.42-.94.94-.94h23.21c.37,0,.71-.22.86-.56Z"/>
        <path class="cls-1" d="m329.63,40.63l5.23-11.9c.27-.62-.18-1.32-.86-1.32h-42.21c-.52,0-.94.42-.94.94v67.48c0,.52.42.94.94.94h42.7c.52,0,.94-.42.94-.94l-.05-11.94c0-.52-.42-.93-.94-.93l-28.88.04c-.52,0-.94-.42-.94-.94v-12.09c0-.52.42-.94.94-.94h20.62c.52,0,.94-.42.94-.94v-12c0-.52-.42-.94-.94-.94h-20.62c-.52,0-.94-.42-.94-.94v-12.09c0-.52.42-.94.94-.94h23.21c.37,0,.71-.22.86-.56Z"/>
        <path class="cls-1" d="m185.84,82.06c-.93.56-1.95.97-3.07,1.24-1.12.26-2.25.4-3.37.4-1.32,0-2.71-.26-4.16-.79-1.45-.53-2.84-1.17-4.16-1.93-1.32-.76-2.49-1.55-3.52-2.38-.51-.41-.96-.8-1.34-1.17-.46-.45-1.24-.28-1.5.31l-5.17,11.72c-.17.38-.06.83.26,1.1,1.29,1.1,2.75,1.96,2.75,1.96,2.51,1.59,5.18,2.81,8.03,3.67,2.84.86,5.78,1.29,8.82,1.29,3.37,0,6.49-.54,9.36-1.63,2.87-1.09,5.35-2.58,7.43-4.46,2.08-1.88,3.72-4.11,4.9-6.69,1.19-2.58,1.78-5.32,1.78-8.22,0-2.38-.35-4.57-1.04-6.59-.7-2.01-1.87-3.9-3.52-5.65-1.65-1.75-3.83-3.4-6.54-4.95-2.71-1.55-6.04-3.09-10.01-4.61-1.39-.46-2.71-.96-3.96-1.49-1.26-.53-2.36-1.11-3.32-1.73-.96-.63-1.72-1.32-2.28-2.08-.56-.76-.84-1.6-.84-2.53,0-2.05.77-3.62,2.33-4.71,1.55-1.09,3.72-1.63,6.49-1.63,1.52,0,3.01.26,4.46.79,1.45.53,2.74,1.09,3.86,1.68,1,.55,1.98,1.14,2.94,1.76.49.32,1.14.13,1.37-.4l4.88-11.05c.19-.43.03-.94-.37-1.18-.2-.12-.41-.24-.64-.37-1.68-.96-3.49-1.8-5.4-2.53-1.92-.73-3.88-1.32-5.9-1.78-2.02-.46-3.91-.69-5.7-.69-3.3,0-6.33.51-9.07,1.54-2.74,1.03-5.09,2.44-7.04,4.26-1.95,1.82-3.45,3.96-4.51,6.44-1.06,2.48-1.59,5.14-1.59,7.98s.48,5.22,1.44,7.33c.96,2.11,2.31,4,4.06,5.65,1.75,1.65,3.81,3.09,6.19,4.31,2.38,1.22,4.96,2.36,7.73,3.42,2.38.93,4.36,1.8,5.95,2.63,1.58.83,2.82,1.6,3.71,2.33.89.73,1.52,1.4,1.88,2.03.36.63.55,1.21.55,1.73,0,1.39-.3,2.54-.89,3.47-.59.93-1.35,1.67-2.28,2.23Z"/>
        <path class="cls-1" d="m248.55,82.06c-.93.56-1.95.97-3.07,1.24-1.12.26-2.25.4-3.37.4-1.32,0-2.71-.26-4.16-.79-1.45-.53-2.84-1.17-4.16-1.93-1.32-.76-2.49-1.55-3.52-2.38-.51-.41-.96-.8-1.34-1.17-.46-.45-1.24-.28-1.5.31l-5.17,11.72c-.17.38-.06.83.26,1.1,1.29,1.1,2.75,1.96,2.75,1.96,2.51,1.59,5.18,2.81,8.03,3.67,2.84.86,5.78,1.29,8.82,1.29,3.37,0,6.49-.54,9.36-1.63,2.87-1.09,5.35-2.58,7.43-4.46,2.08-1.88,3.72-4.11,4.9-6.69,1.19-2.58,1.78-5.32,1.78-8.22,0-2.38-.35-4.57-1.04-6.59-.7-2.01-1.87-3.9-3.52-5.65-1.65-1.75-3.83-3.4-6.54-4.95-2.71-1.55-6.04-3.09-10.01-4.61-1.39-.46-2.71-.96-3.96-1.49-1.26-.53-2.36-1.11-3.32-1.73-.96-.63-1.72-1.32-2.28-2.08-.56-.76-.84-1.6-.84-2.53,0-2.05.77-3.62,2.33-4.71,1.55-1.09,3.72-1.63,6.49-1.63,1.52,0,3.01.26,4.46.79,1.45.53,2.74,1.09,3.86,1.68,1,.55,1.98,1.14,2.94,1.76.49.32,1.14.13,1.37-.4l4.88-11.05c.19-.43.03-.94-.37-1.18-.2-.12-.41-.24-.64-.37-1.68-.96-3.49-1.8-5.4-2.53-1.92-.73-3.88-1.32-5.9-1.78-2.02-.46-3.91-.69-5.7-.69-3.3,0-6.33.51-9.07,1.54-2.74,1.03-5.09,2.44-7.04,4.26-1.95,1.82-3.45,3.96-4.51,6.44-1.06,2.48-1.59,5.14-1.59,7.98s.48,5.22,1.44,7.33c.96,2.11,2.31,4,4.06,5.65,1.75,1.65,3.81,3.09,6.19,4.31,2.38,1.22,4.96,2.36,7.73,3.42,2.38.93,4.36,1.8,5.95,2.63,1.58.83,2.82,1.6,3.71,2.33.89.73,1.52,1.4,1.88,2.03.36.63.55,1.21.55,1.73,0,1.39-.3,2.54-.89,3.47-.59.93-1.35,1.67-2.28,2.23Z"/>
        <path class="cls-1" d="m361.2,28.35v67.48c0,.52.42.94.94.94h34.08c.37,0,.71-.22.86-.56l5.25-11.9c.27-.62-.18-1.32-.86-1.32h-25.56c-.52,0-.94-.42-.94-.94V28.35c0-.52-.42-.94-.94-.94h-11.9c-.52,0-.94.42-.94.94Z"/>
        <path class="cls-1" d="m408.14,0H19.59C13.39,0,7.42,2.78,3.75,7.77-.41,13.42-1.15,20.74,1.73,27.05l30.99,69.94c.15.34.49.56.86.56h4.52c.37,0,.71-.22.86-.56l30.09-68.17c.27-.62-.18-1.32-.86-1.32h-13.02c-.37,0-.7.22-.86.55-3.09,6.82-6.16,13.69-9.21,20.6-2.7,6.12-5.39,12.22-8.07,18.31-.33.74-1.38.75-1.71,0L14.53,21.23c-1.03-2.27-.1-4.14.35-4.84.45-.7,1.77-2.32,4.26-2.32h389c5.41,0,9.79,4.38,9.79,9.79v74.42c0,6.95-5.65,12.6-12.6,12.6l-364.8.11c-.68,0-1.13.7-.86,1.32l5.43,12.19c.15.34.49.56.86.56h359.36c14.73,0,26.67-11.94,26.67-26.67V23.86C432,10.68,421.32,0,408.14,0Z"/>
      </g>
    </g>
  </g>
</svg>