<?xml version="1.0" encoding="utf-8"?>
<!-- Generator: Adobe Illustrator 28.0.0, SVG Export Plug-In . SVG Version: 6.00 Build 0)  -->
<svg version="1.1" id="Layer_1" xmlns="http://www.w3.org/2000/svg" xmlns:xlink="http://www.w3.org/1999/xlink" x="0px" y="0px"
	 viewBox="0 0 87.6 87.6" style="enable-background:new 0 0 87.6 87.6;" xml:space="preserve">
<style type="text/css">
	.st0{fill:#A8D6BA;}
	.st1{fill:#FCFDF6;}
	.st2{fill:#FBC862;stroke:#FCFDF6;stroke-width:0.6835;stroke-linecap:round;stroke-linejoin:round;stroke-miterlimit:10;}
	.st3{fill:none;stroke:#FCFDF6;stroke-width:0.6835;stroke-linecap:round;stroke-linejoin:round;stroke-miterlimit:10;}
	.st4{fill:none;stroke:#FCFDF6;stroke-width:2;stroke-linecap:round;stroke-miterlimit:10;}
</style>
<g>
	<path class="st0" d="M30.9,23.4c0,0,7.2-0.2,13.2-0.2c6,0,13.2,0.2,13.2,0.2v43.8c0,0-8.5,0.7-13.2,0.7c-4.7,0-13.2-0.6-13.2-0.6
		L30.9,23.4z"/>
	<path class="st1" d="M55.2,43.2c0,8,0,16,0,24c0,0.9-0.3,1.2-1.2,1.2c-2.9,0.2-5.7,0.4-8.6,0.5c-2.2,0.1-4.5-0.1-6.7-0.2
		c-1.6-0.1-3.2-0.2-4.8-0.3c-0.8-0.1-1.1-0.4-1.1-1.2c0-1.3,0-2.7,0-4l0-5.9V22c7.4-0.3,14.9-0.4,22.3,0v13.8c0,0,0,0.1,0,0.2v6.7
		c0,0,0,0,0,0V43.2z M52.1,71.6c-1.6,0.2-3.1,0.4-4.7,0.4c-3.1,0-6.3-0.1-9.4-0.2c-0.6,0-1.1-0.2-1.7-0.2c-0.9-0.1-1.2-0.7-1.6-1.4
		c6.3,0.7,12.6,0.7,18.9,0C53.2,71.5,53.4,71.4,52.1,71.6 M34.1,19c0.8-0.9,1.3-2,1.5-3.2c0-0.1,0.2-0.3,0.4-0.3
		c3.6-0.1,7.1-0.2,10.7-0.2c2,0,3.9,0.1,5.9,0.2c0.1,0,0.3,0,0.4,0c0.2,0.8,0.4,1.6,0.7,2.3c0.3,0.7,0.7,1.4,1,2.1H33.5
		C33.7,19.7,33.9,19.3,34.1,19 M57.3,18.7c-0.4-0.7-0.7-1.3-1-2c-0.2-0.6-0.4-1.1-0.2-1.7c0.3-0.9-0.4-1.9-1.3-2.1
		c-0.4-0.1-0.8-0.1-1.2-0.1c-5.7-0.4-11.5-0.4-17.2-0.1c-0.9,0-1.8,0.1-2.6,0.3c-1.2,0.2-1.7,1.3-1.3,2.4c0.2,0.4,0.1,0.7-0.1,1.1
		c-0.2,0.3-0.3,0.5-0.5,0.8c-1.3,1.6-2,3.4-2,5.4c0,5.8,0,21.2,0,26.9c0,5.9,0,11.8,0,17.7c0,1.4,0.5,2.6,1.7,3.5
		c0.5,0.4,1,0.8,1.3,1.4c0.4,0.7,0.9,1.3,1.7,1.5c1,0.3,2,0.5,3,0.6c4.4,0.4,8.8,0.4,13.2,0c1.2-0.1,2.3-0.3,3.4-0.8
		c0.6-0.3,0.9-0.7,1.2-1.3c0.3-0.6,0.7-1.1,1.2-1.5c1-0.8,1.6-1.8,1.6-3.2c0-11.8,0-33.3,0-45.1C58.2,21.1,57.9,19.9,57.3,18.7"/>
	<g>
		<path class="st2" d="M55.9,7.2l0.5,1.3c0.1,0.1,0.2,0.2,0.4,0.3l1.4,0.1c0.3,0,0.5,0.3,0.3,0.6L58,10.7c-0.1,0.1,0,0.3,0.1,0.4
			l0.9,1c0.2,0.2,0.1,0.5-0.2,0.6l-1.3,0.5c-0.1,0.1-0.2,0.2-0.3,0.4l-0.1,1.4c0,0.3-0.3,0.5-0.6,0.3l-1.3-0.6
			c-0.1-0.1-0.3,0-0.4,0.1l-1,0.9c-0.2,0.2-0.5,0.1-0.6-0.2l-0.5-1.3c-0.1-0.1-0.2-0.2-0.4-0.3L50.9,14c-0.3,0-0.5-0.3-0.3-0.6
			l0.6-1.3c0.1-0.1,0-0.3-0.1-0.4l-0.9-1c-0.2-0.2-0.1-0.5,0.2-0.6l1.3-0.5c0.1-0.1,0.2-0.2,0.3-0.4L52,7.8c0-0.3,0.3-0.5,0.6-0.3
			l1.3,0.6c0.1,0.1,0.3,0,0.4-0.1l1-0.9C55.5,6.9,55.8,7,55.9,7.2z"/>
		<line class="st3" x1="50.7" y1="8.6" x2="49.3" y2="7.6"/>
		<line class="st3" x1="53.9" y1="6.8" x2="53.6" y2="5.1"/>
		<line class="st3" x1="57.4" y1="7.7" x2="58.4" y2="6.3"/>
		<line class="st3" x1="59.3" y1="10.8" x2="61" y2="10.6"/>
		<line class="st3" x1="58.4" y1="14.4" x2="59.8" y2="15.4"/>
		<line class="st3" x1="55.2" y1="16.2" x2="55.5" y2="18"/>
		<line class="st3" x1="51.8" y1="15.5" x2="50.8" y2="16.9"/>
		<line class="st3" x1="49.9" y1="12.6" x2="48.2" y2="12.8"/>
	</g>
</g>
<line class="st4" x1="52.8" y1="26.5" x2="52.8" y2="48.7"/>
<line class="st4" x1="52.8" y1="51.5" x2="52.8" y2="53.2"/>
</svg>
