<?xml version="1.0" encoding="utf-8"?>
<!-- Generator: Adobe Illustrator 27.7.0, SVG Export Plug-In . SVG Version: 6.00 Build 0)  -->
<svg version="1.1" id="Layer_1" xmlns="http://www.w3.org/2000/svg" xmlns:xlink="http://www.w3.org/1999/xlink" x="0px" y="0px"
	 viewBox="0 0 432 432" style="enable-background:new 0 0 432 432;" xml:space="preserve">
<style type="text/css">
	.st0{fill:#FCFDF6;stroke:#383738;stroke-width:5.8689;stroke-linecap:round;stroke-linejoin:round;stroke-miterlimit:10;}
	.st1{fill:#D9F8FF;stroke:#383738;stroke-width:5.8689;stroke-linecap:round;stroke-linejoin:round;stroke-miterlimit:10;}
	.st2{fill:#383738;stroke:#231F20;stroke-width:4.2402;stroke-linecap:round;stroke-linejoin:round;stroke-miterlimit:10;}
	.st3{fill:#FFFFFF;stroke:#383738;stroke-width:6.2789;stroke-linecap:round;stroke-linejoin:round;stroke-miterlimit:10;}
	.st4{clip-path:url(#SVGID_00000006676993888324383110000017647631884462195112_);fill:#DBF1F9;}
	.st5{opacity:0.61;clip-path:url(#SVGID_00000006676993888324383110000017647631884462195112_);}
	.st6{opacity:0.69;fill:#FFFFFF;}
	.st7{fill:#91AA83;}
	.st8{opacity:0.12;fill:#91AA83;}
	.st9{fill:#ADADAD;}
	.st10{opacity:0.12;fill:#ADADAD;}
	.st11{fill:none;stroke:#383738;stroke-width:5.8689;stroke-linecap:round;stroke-linejoin:round;stroke-miterlimit:10;}
	.st12{fill:none;stroke:#231F20;stroke-width:4.199;stroke-linecap:round;stroke-linejoin:round;stroke-miterlimit:10;}
</style>
<g>
	<path class="st0" d="M183.4,206.2"/>
	<ellipse class="st1" cx="183.4" cy="181.1" rx="121.1" ry="43.2"/>
	<ellipse class="st2" cx="183.4" cy="181.1" rx="38.4" ry="13.7"/>
	<path class="st1" d="M62.3,181.1c0,23.9,54.2,43.2,121.1,43.2s121.1-19.3,121.1-43.2v68.3c0,23.8-54.2,43.2-121.1,43.2
		S62.3,273.2,62.3,249.4V181.1z"/>
	<path class="st3" d="M62.3,181.1c0,23.9,62,43.2,138.6,43.2s138.6-19.3,138.6-43.2v68.3c0,23.8-62,43.2-138.6,43.2
		S62.3,273.2,62.3,249.4V181.1z"/>
	<g>
		<g>
			<defs>
				<path id="SVGID_1_" d="M64.4,263.9c87,42.6,189.7,41.9,276.2-2.2c0-22.8,0-45.5,0-68.3c-86.5,44.1-189.2,44.8-276.2,2.2
					C64.4,218.3,64.4,241.1,64.4,263.9z"/>
			</defs>
			<clipPath id="SVGID_00000013904657708880862160000011175643145588215487_">
				<use xlink:href="#SVGID_1_"  style="overflow:visible;"/>
			</clipPath>
		</g>
		<g>
			<defs>
				<path id="SVGID_00000054987096548295731550000018403685063243199913_" d="M64.4,260.8c87,42.6,189.7,45,276.2,0.9
					c0-22.8,0-45.5,0-68.3c-86.5,44.1-189.2,44.8-276.2,2.2C64.4,218.3,64.4,238,64.4,260.8z"/>
			</defs>
			<clipPath id="SVGID_00000085242409026026840690000009887261120926080161_">
				<use xlink:href="#SVGID_00000054987096548295731550000018403685063243199913_"  style="overflow:visible;"/>
			</clipPath>
			<path style="clip-path:url(#SVGID_00000085242409026026840690000009887261120926080161_);fill:#DBF1F9;" d="M64,261.4
				c87,42.6,189.7,41.9,276.2-2.2c0-22.8,0-45.5,0-68.3C253.8,235,151.1,234.3,64,191.7C64,214.5,64,238.6,64,261.4z"/>
			<path style="clip-path:url(#SVGID_00000085242409026026840690000009887261120926080161_);fill:#DBF1F9;" d="M340.6,241.1
				c-54.2,40.5-225.6,45.5-276.2,0.1c0-1.5,0-2.9,0-4.4c40.8,43.8,213.4,43.1,276.2-0.1C340.6,238.1,340.6,239.6,340.6,241.1z"/>
			<g style="opacity:0.61;clip-path:url(#SVGID_00000085242409026026840690000009887261120926080161_);">
				<path class="st6" d="M196.6,295.3c-35-0.4-69.9-6.7-103.2-19c0-22.8,0-45.5,0-68.3c33.3,12.2,68.2,18.6,103.2,19
					C196.6,249.8,196.6,272.5,196.6,295.3z"/>
				<path class="st7" d="M153.2,276c-18.4-1.9-36.6-5.2-49.8-10.7c0-18,0-35.9,0-53.9c16.3,5.4,33,9.4,49.8,11.9
					C153.2,241.4,153.2,258,153.2,276z"/>
				<path class="st8" d="M153.2,248.8c-16.8-2.6-33.5-6.6-49.8-11.9c0-8.4,0-16.9,0-25.3c16.3,5.4,33,9.4,49.8,11.9
					C153.2,231.9,153.2,240.3,153.2,248.8z"/>
				<path class="st9" d="M163.2,278.6c-1.1-0.1-2.2-0.3-3.2-0.4c0-18,0-35.9,0-53.9c1.1,0.1,2.2,0.3,3.2,0.4
					C163.2,242.7,163.2,260.7,163.2,278.6z"/>
				<path class="st10" d="M163.2,250.1c-1.1-0.1-2.2-0.3-3.2-0.4c0-8.4,0-16.9,0-25.3c1.1,0.1,2.2,0.3,3.2,0.4
					C163.2,233.2,163.2,241.7,163.2,250.1z"/>
				<path class="st9" d="M168.4,279.2c-1.1-0.1-2.2-0.2-3.2-0.4c0-18,0-35.9,0-53.9c1.1,0.1,2.2,0.2,3.2,0.4
					C168.4,243.3,168.4,261.3,168.4,279.2z"/>
				<path class="st10" d="M168.4,250.7c-1.1-0.1-2.2-0.2-3.2-0.4c0-8.4,0-16.9,0-25.3c1.1,0.1,2.2,0.2,3.2,0.4
					C168.4,233.8,168.4,242.3,168.4,250.7z"/>
				<path class="st9" d="M173.6,279.7c-1.1-0.1-2.2-0.2-3.2-0.3c0-18,0-35.9,0-53.9c1.1,0.1,2.2,0.2,3.2,0.3
					C173.6,243.8,173.6,261.8,173.6,279.7z"/>
				<path class="st10" d="M173.6,251.2c-1.1-0.1-2.2-0.2-3.2-0.3c0-8.4,0-16.9,0-25.3c1.1,0.1,2.2,0.2,3.2,0.3
					C173.6,234.3,173.6,242.8,173.6,251.2z"/>
				<path class="st9" d="M178.8,266.8c-1.1-0.1-2.2-0.2-3.2-0.2c0-13.5,0-27,0-40.6c1.1,0.1,2.2,0.2,3.2,0.2
					C178.8,239.8,178.8,253.3,178.8,266.8z"/>
				<path class="st10" d="M178.8,246.5c-1.1-0.1-2.2-0.2-3.2-0.2c0-6.8,0-13.5,0-20.3c1.1,0.1,2.2,0.2,3.2,0.2
					C178.8,233,178.8,239.8,178.8,246.5z"/>
				<path class="st9" d="M184,267.1c-1.1-0.1-2.2-0.1-3.2-0.2c0-13.5,0-27,0-40.6c1.1,0.1,2.2,0.1,3.2,0.2
					C184,240.1,184,253.6,184,267.1z"/>
				<path class="st10" d="M184,246.9c-1.1-0.1-2.2-0.1-3.2-0.2c0-6.8,0-13.5,0-20.3c1.1,0.1,2.2,0.1,3.2,0.2
					C184,233.3,184,240.1,184,246.9z"/>
				<path class="st7" d="M138.5,280.3c15,3.1,32.5,4.6,44.9,4.6c0,2.9,0.6,7.1,0.6,10c-15.3-0.8-30.5-2.7-45.5-5.8
					C138.5,286.2,138.5,283.3,138.5,280.3z"/>
			</g>
			<g style="opacity:0.61;clip-path:url(#SVGID_00000085242409026026840690000009887261120926080161_);">
				<path class="st6" d="M88.4,274.4C55.3,261.5,24,242.8-4,218.1c0-22.8,12.1-49.9,12.1-72.7c28,24.7,47.2,47.8,80.3,60.7
					C88.4,228.9,88.4,251.6,88.4,274.4z"/>
				<path class="st7" d="M48.2,240.9c-15.2-8.6-29.9-18.7-43.8-30.1c0-18,0-35.9,0-53.9C18.3,168.4,33,178.4,48.2,187
					C48.2,205,48.2,222.9,48.2,240.9z"/>
				<path class="st8" d="M48.2,212.4c-15.2-8.6-29.9-18.7-43.8-30.1c0-8.4,0-16.9,0-25.3C18.3,168.4,33,178.4,48.2,187
					C48.2,195.5,48.2,203.9,48.2,212.4z"/>
				<path class="st9" d="M57.3,245.8c-1-0.5-2-1-2.9-1.6c0-18,0-35.9,0-53.9c1,0.5,2,1,2.9,1.6C57.3,209.9,57.3,227.9,57.3,245.8z"
					/>
				<path class="st10" d="M57.3,217.3c-1-0.5-2-1-2.9-1.6c0-8.4,0-16.9,0-25.3c1,0.5,2,1,2.9,1.6C57.3,200.4,57.3,208.9,57.3,217.3z
					"/>
				<path class="st9" d="M62.1,248.3c-1-0.5-2-1-3-1.5c0-18,0-35.9,0-53.9c1,0.5,2,1,3,1.5C62.1,212.4,62.1,230.3,62.1,248.3z"/>
				<path class="st10" d="M62.1,219.8c-1-0.5-2-1-3-1.5c0-8.4,0-16.9,0-25.3c1,0.5,2,1,3,1.5C62.1,202.9,62.1,211.3,62.1,219.8z"/>
				<path class="st9" d="M66.7,247.4c-1-0.5-2-1-3-1.5c0-18,0.7-36.3,0.7-54.3c1,0.5,2,2.5,3,3C67.4,212.6,66.7,229.4,66.7,247.4z"
					/>
				<path class="st10" d="M67.4,220c-1-0.5-2-1-3-1.5c0-8.4,0.5-20.6,0.5-29c1,0.5,1.5,4.6,2.4,5.1C67.4,203.1,67.4,211.5,67.4,220z
					"/>
				<path class="st9" d="M70.8,239.3c-1-0.5-1.2-0.7-2.2-1.2c0-13.5,0-27,0-40.6c1,0.5,1.2,0.7,2.2,1.2
					C70.8,212.3,70.8,225.8,70.8,239.3z"/>
				<path class="st10" d="M71.7,219.3c-1-0.5-2-0.9-3-1.4c0-6.8,0-13.5,0-20.3c1,0.5,2,0.9,3,1.4C71.7,205.8,71.7,212.5,71.7,219.3z
					"/>
				<path class="st9" d="M75.4,241.4c-1-0.4-2-0.9-3-1.3c0-13.5,0-27,0-40.6c1,0.5,2,0.9,3,1.3C75.4,214.3,75.4,227.8,75.4,241.4z"
					/>
				<path class="st10" d="M76.5,221.4c-1-0.4-2-0.9-3-1.3c0-6.8,0-13.5,0-20.3c1,0.5,2,0.9,3,1.3C76.5,207.9,76.5,214.7,76.5,221.4z
					"/>
				<path class="st7" d="M60.6,235.4c1.7,14,8.2,20,15.9,25.4c0,2.9,0,5.8,0,8.7c-14.2-6.2-28.1-13.6-41.5-22.1
					C35,244.5,60.6,238.3,60.6,235.4z"/>
			</g>
			<g style="opacity:0.61;clip-path:url(#SVGID_00000085242409026026840690000009887261120926080161_);">
				<path class="st6" d="M305.4,276.9c-33.3,12-68.3,18.2-103.3,18.4c0-22.8,0-45.5,0-68.3c35-0.2,69.9-6.3,103.3-18.4
					C305.4,231.4,305.4,254.2,305.4,276.9z"/>
				<path class="st7" d="M263.2,274.4c-16.7,3.5-33.8,4.6-50.7,4.7c0-18,0-34.4,0-52.3c17-0.7,33.9-2.7,50.7-6.2
					C263.2,238.5,263.2,256.5,263.2,274.4z"/>
				<path class="st8" d="M263.2,245.9c-16.7,3.5-33.7,5.5-50.7,6.2c0-8.4,0-16.9,0-25.3c17-0.7,33.9-2.7,50.7-6.2
					C263.2,229,263.2,237.5,263.2,245.9z"/>
				<path class="st9" d="M273.1,272.2c-1.1,0.3-2.1,0.5-3.2,0.8c0-18,0-35.9,0-53.9c1.1-0.2,2.1-0.5,3.2-0.8
					C273.1,236.3,273.1,254.2,273.1,272.2z"/>
				<path class="st10" d="M273.1,243.7c-1.1,0.3-2.1,0.5-3.2,0.8c0-8.4,0-16.9,0-25.3c1.1-0.2,2.1-0.5,3.2-0.8
					C273.1,226.8,273.1,235.2,273.1,243.7z"/>
				<path class="st9" d="M278.2,270.9c-1.1,0.3-2.1,0.5-3.2,0.8c0-18,0-35.9,0-53.9c1.1-0.3,2.1-0.5,3.2-0.8
					C278.2,235,278.2,253,278.2,270.9z"/>
				<path class="st10" d="M278.2,242.4c-1.1,0.3-2.1,0.5-3.2,0.8c0-8.4,0-16.9,0-25.3c1.1-0.3,2.1-0.5,3.2-0.8
					C278.2,225.5,278.2,234,278.2,242.4z"/>
				<path class="st9" d="M283.2,269.6c-1.1,0.3-2.1,0.6-3.2,0.9c0-18,0-35.9,0-53.9c1.1-0.3,2.1-0.6,3.2-0.9
					C283.2,233.7,283.2,251.6,283.2,269.6z"/>
				<path class="st10" d="M283.2,241.1c-1.1,0.3-2.1,0.6-3.2,0.9c0-8.4,0-16.9,0-25.3c1.1-0.3,2.1-0.6,3.2-0.9
					C283.2,224.2,283.2,232.6,283.2,241.1z"/>
				<path class="st9" d="M288.3,254.8c-1,0.3-2.1,0.6-3.1,0.9c0-13.5,0-27,0-40.6c1-0.3,2.1-0.6,3.1-0.9
					C288.3,227.8,288.3,241.3,288.3,254.8z"/>
				<path class="st10" d="M288.3,234.5c-1,0.3-2.1,0.6-3.1,0.9c0-6.8,0-13.5,0-20.3c1-0.3,2.1-0.6,3.1-0.9
					C288.3,221,288.3,227.8,288.3,234.5z"/>
				<path class="st9" d="M293.3,253.3c-1,0.3-2.1,0.7-3.1,1c0-13.5,0-27,0-40.6c1-0.3,2.1-0.6,3.1-1
					C293.3,226.2,293.3,239.8,293.3,253.3z"/>
				<path class="st10" d="M293.3,233c-1,0.3-2.1,0.7-3.1,1c0-6.8,0-13.5,0-20.3c1-0.3,2.1-0.6,3.1-1
					C293.3,219.5,293.3,226.2,293.3,233z"/>
				<path class="st7" d="M248.5,282.8c15.1-2.4,30.1-4.7,44.8-9.3c0,2.9,0,4.6,0,7.5c-14.7,4.6-29.7,8.1-44.8,10.5
					C248.5,288.6,248.5,285.7,248.5,282.8z"/>
			</g>
			<g style="opacity:0.61;clip-path:url(#SVGID_00000085242409026026840690000009887261120926080161_);">
				<path class="st6" d="M404.1,218.2c-28,24.7-59.3,43.4-92.4,56.3c0-22.8,0-45.5,0-68.3c33.1-12.8,64.4-31.6,92.4-56.3
					C404.1,172.7,404.1,195.5,404.1,218.2z"/>
				<path class="st7" d="M340.6,231.9c-3.4,9.1-1.2,13.5-18.7,26.6c0-18,0.1-38.5,0.1-56.4c15.9-6.8,20.5-23.7,35.3-33.3
					C357.3,186.7,340.6,214,340.6,231.9z"/>
				<path class="st8" d="M368.2,202.8c-14.8,9.6-30.3,17.8-46.2,24.6c0-8.4,0-16.9,0-25.3c15.9-6.8,26.2-20.7,41-30.3
					C363,180.3,368.2,194.4,368.2,202.8z"/>
				<path class="st9" d="M376.9,225.5c-0.9,0.6-1.9,1.3-2.8,1.9c0-18,0-35.9,0-53.9c0.9-0.6,1.9-1.3,2.8-1.9
					C376.9,189.6,376.9,207.5,376.9,225.5z"/>
				<path class="st10" d="M376.9,197c-0.9,0.6-1.9,1.3-2.8,1.9c0-8.4,0-16.9,0-25.3c0.9-0.6,1.9-1.3,2.8-1.9
					C376.9,180.1,376.9,188.5,376.9,197z"/>
				<path class="st9" d="M381.3,222.3c-0.9,0.7-1.8,1.3-2.8,2c0-18,0-35.9,0-53.9c0.9-0.7,1.8-1.3,2.8-2
					C381.3,186.4,381.3,204.4,381.3,222.3z"/>
				<path class="st10" d="M381.3,193.8c-0.9,0.7-1.8,1.3-2.8,2c0-8.4,0-16.9,0-25.3c0.9-0.7,1.8-1.3,2.8-2
					C381.3,176.9,381.3,185.4,381.3,193.8z"/>
				<path class="st9" d="M385.7,219.1c-0.9,0.7-1.8,1.4-2.7,2c0-18,0-35.9,0-53.9c0.9-0.7,1.8-1.3,2.7-2
					C385.7,183.2,385.7,201.1,385.7,219.1z"/>
				<path class="st10" d="M385.7,190.6c-0.9,0.7-1.8,1.4-2.7,2c0-8.4,0-16.9,0-25.3c0.9-0.7,1.8-1.3,2.7-2
					C385.7,173.7,385.7,182.1,385.7,190.6z"/>
				<path class="st9" d="M390,202.4c-0.9,0.7-1.8,1.4-2.7,2.1c0-13.5,0-27,0-40.6c0.9-0.7,1.8-1.4,2.7-2.1
					C390,175.4,390,188.9,390,202.4z"/>
				<path class="st10" d="M390,182.2c-0.9,0.7-1.8,1.4-2.7,2.1c0-6.8,0-13.5,0-20.3c0.9-0.7,1.8-1.4,2.7-2.1
					C390,168.7,390,175.4,390,182.2z"/>
				<path class="st9" d="M394.3,199c-0.9,0.7-1.8,1.4-2.7,2.1c0-13.5,0-27,0-40.6c0.9-0.7,1.8-1.4,2.7-2.1
					C394.3,172,394.3,185.5,394.3,199z"/>
				<path class="st10" d="M394.3,178.8c-0.9,0.7-1.8,1.4-2.7,2.1c0-6.8,0-13.5,0-20.3c0.9-0.7,1.8-1.4,2.7-2.1
					C394.3,165.2,394.3,172,394.3,178.8z"/>
				<path class="st7" d="M355,245.1c13.6-7.9,26.8-16.9,39.4-27.1c0,2.9,0,5.8,0,8.7c-12.6,10.1-25.7,19.2-39.4,27.1
					C355,250.9,355,248,355,245.1z"/>
			</g>
		</g>
		<g>
			<defs>
				<path id="SVGID_00000011032769968631890030000014857382056921045179_" d="M64.4,260.8c87,42.6,189.7,45,276.2,0.9
					c0-22.8,0-45.5,0-68.3c-86.5,44.1-189.2,42.6-276.2,0C60.4,200.4,64.3,237.5,64.4,260.8z"/>
			</defs>
			<clipPath id="SVGID_00000155124332747511420910000007026785388930391959_">
				<use xlink:href="#SVGID_00000011032769968631890030000014857382056921045179_"  style="overflow:visible;"/>
			</clipPath>
		</g>
	</g>
	<path class="st11" d="M62.3,181.1c0,23.9,62,43.2,138.6,43.2s138.6-19.3,138.6-43.2v68.3c0,23.8-62,43.2-138.6,43.2
		S62.3,273.2,62.3,249.4V181.1z"/>
	<g>
		<path class="st12" d="M241.1,209.2c31.7-5.7,53-16.2,53-28.1c0-8.6-11.1-16.5-29.2-22.3"/>
	</g>
	<g>
		<path class="st12" d="M238.6,201.7c26.9-4.3,45-12.3,45-21.3c0-6.6-9.4-12.5-24.8-16.9"/>
	</g>
</g>
</svg>
