<?xml version="1.0" encoding="utf-8"?>
<!-- Generator: Adobe Illustrator 27.6.1, SVG Export Plug-In . SVG Version: 6.00 Build 0)  -->
<svg version="1.1" id="Layer_1" xmlns="http://www.w3.org/2000/svg" xmlns:xlink="http://www.w3.org/1999/xlink" x="0px" y="0px"
	 viewBox="0 0 432 432" style="enable-background:new 0 0 432 432;" xml:space="preserve">
<style type="text/css">
	.st0{fill:#FBFCF5;}
	.st1{fill:#FBC862;}
	.st2{fill:#FBC862;stroke:#FCFDF6;stroke-width:4.9718;stroke-linecap:round;stroke-linejoin:round;stroke-miterlimit:10;}
	.st3{fill:none;stroke:#FCFDF6;stroke-width:4.9718;stroke-linecap:round;stroke-linejoin:round;stroke-miterlimit:10;}
</style>
<path class="st0" d="M125.13,146.8c0,10.89,0,21.78,0,32.67c0,1.24-0.4,1.61-1.71,1.68c-4.17,0.23-8.33,0.58-12.5,0.68
	c-3.27,0.08-6.54-0.08-9.81-0.22c-2.32-0.09-4.64-0.32-6.95-0.47c-1.21-0.08-1.65-0.49-1.65-1.63c-0.01-1.84,0-3.67,0-5.43
	l0.02-8.07v-34.97c10.83-0.35,21.65-0.52,32.54,0.01v5.6c0.03,0.06,0.06,0.14,0.06,0.22v9.18h0V146.8z M120.52,185.52
	c-2.27,0.3-4.58,0.53-6.87,0.54c-4.57,0.01-9.15-0.14-13.72-0.25c-0.82-0.02-1.64-0.23-2.47-0.28c-1.29-0.07-1.78-0.91-2.27-1.96
	c9.24,0.89,18.39,0.94,27.57,0.01C122.12,185.4,122.44,185.26,120.52,185.52 M94.38,127.09c1.11-1.28,1.95-2.67,2.15-4.35
	c0.02-0.15,0.35-0.39,0.54-0.4c5.19-0.13,10.38-0.29,15.58-0.32c2.87-0.02,5.74,0.19,8.61,0.3c0.21,0.01,0.42,0.03,0.56,0.04
	c0.33,1.1,0.56,2.16,0.98,3.16c0.41,1,1,1.94,1.48,2.84H93.38C93.72,127.93,94.03,127.49,94.38,127.09 M128.07,126.67
	c-0.52-0.89-0.98-1.82-1.39-2.76c-0.33-0.75-0.52-1.51-0.26-2.38c0.38-1.25-0.56-2.55-1.92-2.8c-0.58-0.11-1.18-0.12-1.77-0.16
	c-8.36-0.6-16.73-0.6-25.1-0.2c-1.28,0.06-2.56,0.15-3.82,0.36c-1.7,0.28-2.54,1.76-1.83,3.22c0.28,0.58,0.19,1.02-0.1,1.49
	c-0.22,0.36-0.47,0.72-0.76,1.04c-1.94,2.13-2.87,4.6-2.87,7.39c0.01,7.83,0,15.66,0,23.48c0,8.03,0,16.06,0,24.09
	c0,1.97,0.74,3.56,2.48,4.76c0.74,0.52,1.52,1.15,1.94,1.89c0.57,1.02,1.28,1.79,2.44,2.07c1.44,0.36,2.9,0.7,4.38,0.82
	c6.41,0.54,12.84,0.49,19.25,0c1.68-0.13,3.35-0.36,4.89-1.06c0.81-0.37,1.27-0.97,1.68-1.71c0.42-0.76,0.97-1.55,1.68-2.08
	c1.51-1.14,2.39-2.51,2.39-4.32c0.01-16.08,0.01-32.16,0-48.24C129.38,129.85,128.96,128.21,128.07,126.67"/>
<path class="st0" d="M95.2,183.57c9.23,0.89,18.39,0.94,27.57,0.01c-0.65,1.82-0.33,1.68-2.25,1.94c-2.27,0.31-4.57,0.53-6.86,0.54
	c-4.57,0.01-9.15-0.14-13.72-0.25c-0.83-0.02-1.64-0.23-2.47-0.28C96.17,185.46,95.68,184.61,95.2,183.57"/>
<path class="st0" d="M172.07,146.8c0,10.89,0,21.78,0,32.67c0,1.24-0.4,1.61-1.71,1.68c-4.16,0.23-8.32,0.58-12.49,0.68
	c-3.27,0.08-6.54-0.08-9.81-0.22c-2.32-0.09-4.64-0.32-6.95-0.47c-1.21-0.08-1.65-0.49-1.65-1.63c-0.01-1.84,0-3.67,0-5.43
	l0.03-8.07v-34.97c10.83-0.35,21.65-0.52,32.54,0.01v5.6c0.03,0.06,0.05,0.14,0.05,0.22v9.18h0.01V146.8z M167.45,185.52
	c-2.27,0.3-4.58,0.53-6.87,0.54c-4.57,0.01-9.15-0.14-13.72-0.25c-0.83-0.02-1.64-0.23-2.47-0.28c-1.29-0.07-1.78-0.91-2.27-1.96
	c9.23,0.89,18.39,0.94,27.57,0.01C169.06,185.4,169.37,185.26,167.45,185.52 M141.32,127.09c1.11-1.28,1.95-2.67,2.15-4.35
	c0.02-0.15,0.35-0.39,0.54-0.4c5.19-0.13,10.38-0.29,15.58-0.32c2.87-0.02,5.74,0.19,8.61,0.3c0.21,0.01,0.42,0.03,0.56,0.04
	c0.33,1.1,0.56,2.16,0.98,3.16c0.41,1,1,1.94,1.48,2.84h-30.89C140.66,127.93,140.96,127.49,141.32,127.09 M175,126.67
	c-0.52-0.89-0.98-1.82-1.39-2.76c-0.33-0.75-0.52-1.51-0.26-2.38c0.38-1.25-0.56-2.55-1.92-2.8c-0.58-0.11-1.18-0.12-1.77-0.16
	c-8.36-0.6-16.73-0.6-25.1-0.2c-1.28,0.06-2.56,0.15-3.82,0.36c-1.7,0.28-2.53,1.76-1.82,3.22c0.28,0.58,0.19,1.02-0.1,1.49
	c-0.22,0.36-0.47,0.72-0.76,1.04c-1.94,2.13-2.87,4.6-2.87,7.39c0.01,7.83,0,15.66,0,23.48c0,8.03,0,16.06,0,24.09
	c0,1.97,0.74,3.56,2.48,4.76c0.74,0.52,1.52,1.15,1.94,1.89c0.57,1.02,1.28,1.79,2.43,2.07c1.44,0.36,2.9,0.7,4.38,0.82
	c6.41,0.54,12.84,0.49,19.25,0c1.68-0.13,3.35-0.36,4.89-1.06c0.81-0.37,1.27-0.97,1.68-1.71c0.42-0.76,0.97-1.55,1.68-2.08
	c1.51-1.14,2.39-2.51,2.39-4.32c0.01-16.08,0.01-32.16,0-48.24C176.31,129.85,175.89,128.21,175,126.67"/>
<path class="st0" d="M142.13,183.57c9.23,0.89,18.39,0.94,27.57,0.01c-0.65,1.82-0.33,1.68-2.25,1.94
	c-2.27,0.31-4.57,0.53-6.86,0.54c-4.57,0.01-9.15-0.14-13.72-0.25c-0.83-0.02-1.64-0.23-2.47-0.28
	C143.11,185.46,142.62,184.61,142.13,183.57"/>
<path class="st0" d="M219,146.8v32.67c0,1.24-0.4,1.61-1.71,1.68c-4.16,0.23-8.32,0.58-12.49,0.68c-3.27,0.08-6.54-0.08-9.81-0.22
	c-2.32-0.09-4.64-0.32-6.95-0.47c-1.21-0.08-1.65-0.49-1.65-1.63c-0.01-1.84,0-3.67,0-5.43l0.02-8.07v-34.97
	c10.83-0.35,21.65-0.52,32.54,0.01v5.6c0.03,0.06,0.06,0.14,0.06,0.22v9.18h0V146.8z M214.39,185.52c-2.27,0.3-4.58,0.53-6.87,0.54
	c-4.57,0.01-9.15-0.14-13.72-0.25c-0.82-0.02-1.64-0.23-2.47-0.28c-1.29-0.07-1.78-0.91-2.27-1.96c9.24,0.89,18.39,0.94,27.57,0.01
	C215.99,185.4,216.31,185.26,214.39,185.52 M188.25,127.09c1.11-1.28,1.95-2.67,2.15-4.35c0.02-0.15,0.35-0.39,0.54-0.4
	c5.19-0.13,10.38-0.29,15.58-0.32c2.87-0.02,5.74,0.19,8.61,0.3c0.21,0.01,0.42,0.03,0.56,0.04c0.33,1.1,0.56,2.16,0.98,3.16
	c0.41,1,1,1.94,1.48,2.84h-30.89C187.59,127.93,187.9,127.49,188.25,127.09 M221.93,126.67c-0.52-0.89-0.98-1.82-1.39-2.76
	c-0.33-0.75-0.52-1.51-0.26-2.38c0.38-1.25-0.56-2.55-1.92-2.8c-0.58-0.11-1.18-0.12-1.77-0.16c-8.36-0.6-16.73-0.6-25.1-0.2
	c-1.28,0.06-2.56,0.15-3.82,0.36c-1.7,0.28-2.54,1.76-1.83,3.22c0.28,0.58,0.19,1.02-0.1,1.49c-0.22,0.36-0.47,0.72-0.76,1.04
	c-1.94,2.13-2.87,4.6-2.87,7.39c0.01,7.83,0,15.66,0,23.48c0,8.03,0,16.06,0,24.09c0,1.97,0.74,3.56,2.48,4.76
	c0.74,0.52,1.52,1.15,1.94,1.89c0.57,1.02,1.28,1.79,2.43,2.07c1.44,0.36,2.9,0.7,4.38,0.82c6.41,0.54,12.84,0.49,19.25,0
	c1.68-0.13,3.35-0.36,4.89-1.06c0.81-0.37,1.27-0.97,1.68-1.71c0.42-0.76,0.97-1.55,1.68-2.08c1.51-1.14,2.39-2.51,2.39-4.32
	c0.01-16.08,0.01-32.16,0-48.24C223.25,129.85,222.83,128.21,221.93,126.67"/>
<path class="st0" d="M189.07,183.57c9.23,0.89,18.39,0.94,27.57,0.01c-0.64,1.82-0.32,1.68-2.25,1.94
	c-2.27,0.31-4.57,0.53-6.86,0.54c-4.57,0.01-9.15-0.14-13.72-0.25c-0.83-0.02-1.64-0.23-2.47-0.28
	C190.04,185.46,189.55,184.61,189.07,183.57"/>
<path class="st0" d="M265.94,146.8c0,10.89,0,21.78,0,32.67c0,1.24-0.4,1.61-1.71,1.68c-4.16,0.23-8.32,0.58-12.49,0.68
	c-3.27,0.08-6.54-0.08-9.81-0.22c-2.32-0.09-4.64-0.32-6.95-0.47c-1.21-0.08-1.65-0.49-1.65-1.63c-0.01-1.84,0-3.67,0-5.43
	l0.03-8.07v-34.97c10.83-0.35,21.65-0.52,32.54,0.01v5.6c0.03,0.06,0.05,0.14,0.05,0.22v9.18h0.01V146.8z M261.32,185.52
	c-2.27,0.3-4.58,0.53-6.87,0.54c-4.57,0.01-9.15-0.14-13.72-0.25c-0.83-0.02-1.64-0.23-2.47-0.28c-1.28-0.07-1.78-0.91-2.26-1.96
	c9.23,0.89,18.39,0.94,27.57,0.01C262.93,185.4,263.24,185.26,261.32,185.52 M235.18,127.09c1.11-1.28,1.95-2.67,2.15-4.35
	c0.02-0.15,0.35-0.39,0.54-0.4c5.19-0.13,10.38-0.29,15.58-0.32c2.87-0.02,5.74,0.19,8.61,0.3c0.21,0.01,0.42,0.03,0.56,0.04
	c0.33,1.1,0.56,2.16,0.98,3.16c0.41,1,1,1.94,1.48,2.84h-30.89C234.53,127.93,234.83,127.49,235.18,127.09 M268.87,126.67
	c-0.52-0.89-0.98-1.82-1.39-2.76c-0.33-0.75-0.52-1.51-0.26-2.38c0.38-1.25-0.56-2.55-1.92-2.8c-0.58-0.11-1.18-0.12-1.77-0.16
	c-8.36-0.6-16.73-0.6-25.1-0.2c-1.28,0.06-2.56,0.15-3.82,0.36c-1.7,0.28-2.53,1.76-1.83,3.22c0.28,0.58,0.19,1.02-0.09,1.49
	c-0.22,0.36-0.47,0.72-0.76,1.04c-1.94,2.13-2.87,4.6-2.87,7.39c0.01,7.83,0,15.66,0,23.48c0,8.03,0,16.06,0,24.09
	c0,1.97,0.74,3.56,2.48,4.76c0.74,0.52,1.52,1.15,1.94,1.89c0.57,1.02,1.28,1.79,2.43,2.07c1.44,0.36,2.9,0.7,4.38,0.82
	c6.41,0.54,12.84,0.49,19.25,0c1.68-0.13,3.35-0.36,4.89-1.06c0.81-0.37,1.27-0.97,1.68-1.71c0.42-0.76,0.97-1.55,1.68-2.08
	c1.51-1.14,2.39-2.51,2.39-4.32c0.01-16.08,0.01-32.16,0-48.24C270.18,129.85,269.76,128.21,268.87,126.67"/>
<path class="st0" d="M236,183.57c9.23,0.89,18.39,0.94,27.57,0.01c-0.65,1.82-0.33,1.68-2.25,1.94c-2.27,0.31-4.57,0.53-6.86,0.54
	c-4.57,0.01-9.15-0.14-13.72-0.25c-0.83-0.02-1.64-0.23-2.47-0.28C236.98,185.46,236.48,184.61,236,183.57"/>
<path class="st0" d="M312.87,146.8c0,10.89,0,21.78,0,32.67c0,1.24-0.4,1.61-1.71,1.68c-4.16,0.23-8.32,0.58-12.49,0.68
	c-3.27,0.08-6.54-0.08-9.81-0.22c-2.32-0.09-4.64-0.32-6.95-0.47c-1.21-0.08-1.65-0.49-1.65-1.63c-0.01-1.84,0-3.67,0-5.43
	l0.03-8.07v-34.97c10.83-0.35,21.65-0.52,32.54,0.01v5.6c0.03,0.06,0.06,0.14,0.06,0.22v9.18h0V146.8z M308.25,185.52
	c-2.27,0.3-4.58,0.53-6.87,0.54c-4.57,0.01-9.15-0.14-13.72-0.25c-0.82-0.02-1.64-0.23-2.47-0.28c-1.29-0.07-1.78-0.91-2.27-1.96
	c9.24,0.89,18.39,0.94,27.57,0.01C309.86,185.4,310.18,185.26,308.25,185.52 M282.12,127.09c1.11-1.28,1.95-2.67,2.15-4.35
	c0.02-0.15,0.35-0.39,0.54-0.4c5.19-0.13,10.38-0.29,15.58-0.32c2.87-0.02,5.74,0.19,8.61,0.3c0.21,0.01,0.42,0.03,0.56,0.04
	c0.33,1.1,0.56,2.16,0.98,3.16c0.41,1,1,1.94,1.48,2.84h-30.89C281.46,127.93,281.77,127.49,282.12,127.09 M315.8,126.67
	c-0.52-0.89-0.98-1.82-1.39-2.76c-0.33-0.75-0.52-1.51-0.26-2.38c0.38-1.25-0.56-2.55-1.92-2.8c-0.58-0.11-1.18-0.12-1.77-0.16
	c-8.36-0.6-16.73-0.6-25.1-0.2c-1.28,0.06-2.56,0.15-3.82,0.36c-1.7,0.28-2.53,1.76-1.82,3.22c0.28,0.58,0.19,1.02-0.1,1.49
	c-0.22,0.36-0.47,0.72-0.76,1.04c-1.94,2.13-2.87,4.6-2.87,7.39c0.01,7.83,0,15.66,0,23.48c0,8.03,0,16.06,0,24.09
	c0,1.97,0.74,3.56,2.48,4.76c0.74,0.52,1.52,1.15,1.94,1.89c0.57,1.02,1.28,1.79,2.43,2.07c1.44,0.36,2.9,0.7,4.38,0.82
	c6.41,0.54,12.84,0.49,19.25,0c1.68-0.13,3.35-0.36,4.89-1.06c0.81-0.37,1.27-0.97,1.68-1.71c0.42-0.76,0.97-1.55,1.68-2.08
	c1.51-1.14,2.39-2.51,2.39-4.32c0.01-16.08,0.01-32.16,0-48.24C317.11,129.85,316.69,128.21,315.8,126.67"/>
<path class="st0" d="M282.93,183.57c9.23,0.89,18.39,0.94,27.57,0.01c-0.65,1.82-0.33,1.68-2.25,1.94
	c-2.27,0.31-4.58,0.53-6.87,0.54c-4.57,0.01-9.15-0.14-13.72-0.25c-0.83-0.02-1.64-0.23-2.47-0.28
	C283.91,185.46,283.42,184.61,282.93,183.57"/>
<path class="st0" d="M125.13,224.07c0,10.89,0,21.78,0,32.67c0,1.24-0.4,1.61-1.71,1.68c-4.17,0.23-8.33,0.58-12.5,0.68
	c-3.27,0.08-6.54-0.09-9.81-0.22c-2.32-0.09-4.64-0.32-6.95-0.47c-1.21-0.08-1.65-0.49-1.65-1.63c-0.01-1.84,0-3.67,0-5.43
	l0.02-8.07v-34.97c10.83-0.35,21.65-0.52,32.54,0.01v5.6c0.03,0.06,0.06,0.14,0.06,0.22v9.18h0V224.07z M120.52,262.79
	c-2.27,0.3-4.58,0.53-6.87,0.54c-4.57,0.01-9.15-0.14-13.72-0.25c-0.82-0.02-1.64-0.23-2.47-0.28c-1.29-0.07-1.78-0.91-2.27-1.96
	c9.24,0.89,18.39,0.94,27.57,0.01C122.12,262.67,122.44,262.53,120.52,262.79 M94.38,204.36c1.11-1.28,1.95-2.67,2.15-4.35
	c0.02-0.15,0.35-0.39,0.54-0.4c5.19-0.13,10.38-0.29,15.58-0.32c2.87-0.02,5.74,0.19,8.61,0.3c0.21,0.01,0.42,0.03,0.56,0.04
	c0.33,1.1,0.56,2.16,0.98,3.16c0.41,1,1,1.94,1.48,2.84H93.38C93.72,205.2,94.03,204.76,94.38,204.36 M128.07,203.94
	c-0.52-0.89-0.98-1.82-1.39-2.76c-0.33-0.75-0.52-1.51-0.26-2.38c0.38-1.25-0.56-2.55-1.92-2.8c-0.58-0.11-1.18-0.12-1.77-0.16
	c-8.36-0.6-16.73-0.6-25.1-0.2c-1.28,0.06-2.56,0.15-3.82,0.36c-1.7,0.28-2.54,1.76-1.83,3.22c0.28,0.58,0.19,1.02-0.1,1.49
	c-0.22,0.36-0.47,0.72-0.76,1.04c-1.94,2.13-2.87,4.6-2.87,7.39c0.01,7.83,0,15.66,0,23.48c0,8.03,0,16.06,0,24.09
	c0,1.97,0.74,3.56,2.48,4.76c0.74,0.52,1.52,1.15,1.94,1.89c0.57,1.02,1.28,1.79,2.44,2.07c1.44,0.36,2.9,0.7,4.38,0.82
	c6.41,0.54,12.84,0.49,19.25,0c1.68-0.13,3.35-0.36,4.89-1.06c0.81-0.37,1.27-0.97,1.68-1.71c0.42-0.76,0.97-1.55,1.68-2.08
	c1.51-1.14,2.39-2.51,2.39-4.32c0.01-16.08,0.01-32.16,0-48.24C129.38,207.12,128.96,205.48,128.07,203.94"/>
<path class="st0" d="M95.2,260.84c9.23,0.89,18.39,0.94,27.57,0.01c-0.65,1.82-0.33,1.68-2.25,1.94c-2.27,0.31-4.57,0.53-6.86,0.54
	c-4.57,0.01-9.15-0.14-13.72-0.25c-0.83-0.02-1.64-0.23-2.47-0.28C96.17,262.73,95.68,261.88,95.2,260.84"/>
<path class="st0" d="M172.07,224.07c0,10.89,0,21.78,0,32.67c0,1.24-0.4,1.61-1.71,1.68c-4.16,0.23-8.32,0.58-12.49,0.68
	c-3.27,0.08-6.54-0.09-9.81-0.22c-2.32-0.09-4.64-0.32-6.95-0.47c-1.21-0.08-1.65-0.49-1.65-1.63c-0.01-1.84,0-3.67,0-5.43
	l0.03-8.07v-34.97c10.83-0.35,21.65-0.52,32.54,0.01v5.6c0.03,0.06,0.05,0.14,0.05,0.22v9.18h0.01V224.07z M167.45,262.79
	c-2.27,0.3-4.58,0.53-6.87,0.54c-4.57,0.01-9.15-0.14-13.72-0.25c-0.83-0.02-1.64-0.23-2.47-0.28c-1.29-0.07-1.78-0.91-2.27-1.96
	c9.23,0.89,18.39,0.94,27.57,0.01C169.06,262.67,169.37,262.53,167.45,262.79 M141.32,204.36c1.11-1.28,1.95-2.67,2.15-4.35
	c0.02-0.15,0.35-0.39,0.54-0.4c5.19-0.13,10.38-0.29,15.58-0.32c2.87-0.02,5.74,0.19,8.61,0.3c0.21,0.01,0.42,0.03,0.56,0.04
	c0.33,1.1,0.56,2.16,0.98,3.16c0.41,1,1,1.94,1.48,2.84h-30.89C140.66,205.2,140.96,204.76,141.32,204.36 M175,203.94
	c-0.52-0.89-0.98-1.82-1.39-2.76c-0.33-0.75-0.52-1.51-0.26-2.38c0.38-1.25-0.56-2.55-1.92-2.8c-0.58-0.11-1.18-0.12-1.77-0.16
	c-8.36-0.6-16.73-0.6-25.1-0.2c-1.28,0.06-2.56,0.15-3.82,0.36c-1.7,0.28-2.53,1.76-1.82,3.22c0.28,0.58,0.19,1.02-0.1,1.49
	c-0.22,0.36-0.47,0.72-0.76,1.04c-1.94,2.13-2.87,4.6-2.87,7.39c0.01,7.83,0,15.66,0,23.48c0,8.03,0,16.06,0,24.09
	c0,1.97,0.74,3.56,2.48,4.76c0.74,0.52,1.52,1.15,1.94,1.89c0.57,1.02,1.28,1.79,2.43,2.07c1.44,0.36,2.9,0.7,4.38,0.82
	c6.41,0.54,12.84,0.49,19.25,0c1.68-0.13,3.35-0.36,4.89-1.06c0.81-0.37,1.27-0.97,1.68-1.71c0.42-0.76,0.97-1.55,1.68-2.08
	c1.51-1.14,2.39-2.51,2.39-4.32c0.01-16.08,0.01-32.16,0-48.24C176.31,207.12,175.89,205.48,175,203.94"/>
<path class="st0" d="M142.13,260.84c9.23,0.89,18.39,0.94,27.57,0.01c-0.65,1.82-0.33,1.68-2.25,1.94
	c-2.27,0.31-4.57,0.53-6.86,0.54c-4.57,0.01-9.15-0.14-13.72-0.25c-0.83-0.02-1.64-0.23-2.47-0.28
	C143.11,262.73,142.62,261.88,142.13,260.84"/>
<path class="st0" d="M219,224.07v32.67c0,1.24-0.4,1.61-1.71,1.68c-4.16,0.23-8.32,0.58-12.49,0.68c-3.27,0.08-6.54-0.09-9.81-0.22
	c-2.32-0.09-4.64-0.32-6.95-0.47c-1.21-0.08-1.65-0.49-1.65-1.63c-0.01-1.84,0-3.67,0-5.43l0.02-8.07v-34.97
	c10.83-0.35,21.65-0.52,32.54,0.01v5.6c0.03,0.06,0.06,0.14,0.06,0.22v9.18h0V224.07z M214.39,262.79c-2.27,0.3-4.58,0.53-6.87,0.54
	c-4.57,0.01-9.15-0.14-13.72-0.25c-0.82-0.02-1.64-0.23-2.47-0.28c-1.29-0.07-1.78-0.91-2.27-1.96c9.24,0.89,18.39,0.94,27.57,0.01
	C215.99,262.67,216.31,262.53,214.39,262.79 M188.25,204.36c1.11-1.28,1.95-2.67,2.15-4.35c0.02-0.15,0.35-0.39,0.54-0.4
	c5.19-0.13,10.38-0.29,15.58-0.32c2.87-0.02,5.74,0.19,8.61,0.3c0.21,0.01,0.42,0.03,0.56,0.04c0.33,1.1,0.56,2.16,0.98,3.16
	c0.41,1,1,1.94,1.48,2.84h-30.89C187.59,205.2,187.9,204.76,188.25,204.36 M221.93,203.94c-0.52-0.89-0.98-1.82-1.39-2.76
	c-0.33-0.75-0.52-1.51-0.26-2.38c0.38-1.25-0.56-2.55-1.92-2.8c-0.58-0.11-1.18-0.12-1.77-0.16c-8.36-0.6-16.73-0.6-25.1-0.2
	c-1.28,0.06-2.56,0.15-3.82,0.36c-1.7,0.28-2.54,1.76-1.83,3.22c0.28,0.58,0.19,1.02-0.1,1.49c-0.22,0.36-0.47,0.72-0.76,1.04
	c-1.94,2.13-2.87,4.6-2.87,7.39c0.01,7.83,0,15.66,0,23.48c0,8.03,0,16.06,0,24.09c0,1.97,0.74,3.56,2.48,4.76
	c0.74,0.52,1.52,1.15,1.94,1.89c0.57,1.02,1.28,1.79,2.43,2.07c1.44,0.36,2.9,0.7,4.38,0.82c6.41,0.54,12.84,0.49,19.25,0
	c1.68-0.13,3.35-0.36,4.89-1.06c0.81-0.37,1.27-0.97,1.68-1.71c0.42-0.76,0.97-1.55,1.68-2.08c1.51-1.14,2.39-2.51,2.39-4.32
	c0.01-16.08,0.01-32.16,0-48.24C223.25,207.12,222.83,205.48,221.93,203.94"/>
<path class="st0" d="M189.07,260.84c9.23,0.89,18.39,0.94,27.57,0.01c-0.64,1.82-0.32,1.68-2.25,1.94
	c-2.27,0.31-4.57,0.53-6.86,0.54c-4.57,0.01-9.15-0.14-13.72-0.25c-0.83-0.02-1.64-0.23-2.47-0.28
	C190.04,262.73,189.55,261.88,189.07,260.84"/>
<path class="st0" d="M265.94,224.07c0,10.89,0,21.78,0,32.67c0,1.24-0.4,1.61-1.71,1.68c-4.16,0.23-8.32,0.58-12.49,0.68
	c-3.27,0.08-6.54-0.09-9.81-0.22c-2.32-0.09-4.64-0.32-6.95-0.47c-1.21-0.08-1.65-0.49-1.65-1.63c-0.01-1.84,0-3.67,0-5.43
	l0.03-8.07v-34.97c10.83-0.35,21.65-0.52,32.54,0.01v5.6c0.03,0.06,0.05,0.14,0.05,0.22v9.18h0.01V224.07z M261.32,262.79
	c-2.27,0.3-4.58,0.53-6.87,0.54c-4.57,0.01-9.15-0.14-13.72-0.25c-0.83-0.02-1.64-0.23-2.47-0.28c-1.28-0.07-1.78-0.91-2.26-1.96
	c9.23,0.89,18.39,0.94,27.57,0.01C262.93,262.67,263.24,262.53,261.32,262.79 M235.18,204.36c1.11-1.28,1.95-2.67,2.15-4.35
	c0.02-0.15,0.35-0.39,0.54-0.4c5.19-0.13,10.38-0.29,15.58-0.32c2.87-0.02,5.74,0.19,8.61,0.3c0.21,0.01,0.42,0.03,0.56,0.04
	c0.33,1.1,0.56,2.16,0.98,3.16c0.41,1,1,1.94,1.48,2.84h-30.89C234.53,205.2,234.83,204.76,235.18,204.36 M268.87,203.94
	c-0.52-0.89-0.98-1.82-1.39-2.76c-0.33-0.75-0.52-1.51-0.26-2.38c0.38-1.25-0.56-2.55-1.92-2.8c-0.58-0.11-1.18-0.12-1.77-0.16
	c-8.36-0.6-16.73-0.6-25.1-0.2c-1.28,0.06-2.56,0.15-3.82,0.36c-1.7,0.28-2.53,1.76-1.83,3.22c0.28,0.58,0.19,1.02-0.09,1.49
	c-0.22,0.36-0.47,0.72-0.76,1.04c-1.94,2.13-2.87,4.6-2.87,7.39c0.01,7.83,0,15.66,0,23.48c0,8.03,0,16.06,0,24.09
	c0,1.97,0.74,3.56,2.48,4.76c0.74,0.52,1.52,1.15,1.94,1.89c0.57,1.02,1.28,1.79,2.43,2.07c1.44,0.36,2.9,0.7,4.38,0.82
	c6.41,0.54,12.84,0.49,19.25,0c1.68-0.13,3.35-0.36,4.89-1.06c0.81-0.37,1.27-0.97,1.68-1.71c0.42-0.76,0.97-1.55,1.68-2.08
	c1.51-1.14,2.39-2.51,2.39-4.32c0.01-16.08,0.01-32.16,0-48.24C270.18,207.12,269.76,205.48,268.87,203.94"/>
<path class="st0" d="M236,260.84c9.23,0.89,18.39,0.94,27.57,0.01c-0.65,1.82-0.33,1.68-2.25,1.94c-2.27,0.31-4.57,0.53-6.86,0.54
	c-4.57,0.01-9.15-0.14-13.72-0.25c-0.83-0.02-1.64-0.23-2.47-0.28C236.98,262.73,236.48,261.88,236,260.84"/>
<path class="st0" d="M312.87,224.07c0,10.89,0,21.78,0,32.67c0,1.24-0.4,1.61-1.71,1.68c-4.16,0.23-8.32,0.58-12.49,0.68
	c-3.27,0.08-6.54-0.09-9.81-0.22c-2.32-0.09-4.64-0.32-6.95-0.47c-1.21-0.08-1.65-0.49-1.65-1.63c-0.01-1.84,0-3.67,0-5.43
	l0.03-8.07v-34.97c10.83-0.35,21.65-0.52,32.54,0.01v5.6c0.03,0.06,0.06,0.14,0.06,0.22v9.18h0V224.07z M308.25,262.79
	c-2.27,0.3-4.58,0.53-6.87,0.54c-4.57,0.01-9.15-0.14-13.72-0.25c-0.82-0.02-1.64-0.23-2.47-0.28c-1.29-0.07-1.78-0.91-2.27-1.96
	c9.24,0.89,18.39,0.94,27.57,0.01C309.86,262.67,310.18,262.53,308.25,262.79 M282.12,204.36c1.11-1.28,1.95-2.67,2.15-4.35
	c0.02-0.15,0.35-0.39,0.54-0.4c5.19-0.13,10.38-0.29,15.58-0.32c2.87-0.02,5.74,0.19,8.61,0.3c0.21,0.01,0.42,0.03,0.56,0.04
	c0.33,1.1,0.56,2.16,0.98,3.16c0.41,1,1,1.94,1.48,2.84h-30.89C281.46,205.2,281.77,204.76,282.12,204.36 M315.8,203.94
	c-0.52-0.89-0.98-1.82-1.39-2.76c-0.33-0.75-0.52-1.51-0.26-2.38c0.38-1.25-0.56-2.55-1.92-2.8c-0.58-0.11-1.18-0.12-1.77-0.16
	c-8.36-0.6-16.73-0.6-25.1-0.2c-1.28,0.06-2.56,0.15-3.82,0.36c-1.7,0.28-2.53,1.76-1.82,3.22c0.28,0.58,0.19,1.02-0.1,1.49
	c-0.22,0.36-0.47,0.72-0.76,1.04c-1.94,2.13-2.87,4.6-2.87,7.39c0.01,7.83,0,15.66,0,23.48c0,8.03,0,16.06,0,24.09
	c0,1.97,0.74,3.56,2.48,4.76c0.74,0.52,1.52,1.15,1.94,1.89c0.57,1.02,1.28,1.79,2.43,2.07c1.44,0.36,2.9,0.7,4.38,0.82
	c6.41,0.54,12.84,0.49,19.25,0c1.68-0.13,3.35-0.36,4.89-1.06c0.81-0.37,1.27-0.97,1.68-1.71c0.42-0.76,0.97-1.55,1.68-2.08
	c1.51-1.14,2.39-2.51,2.39-4.32c0.01-16.08,0.01-32.16,0-48.24C317.11,207.12,316.69,205.48,315.8,203.94"/>
<path class="st0" d="M282.93,260.84c9.23,0.89,18.39,0.94,27.57,0.01c-0.65,1.82-0.33,1.68-2.25,1.94
	c-2.27,0.31-4.58,0.53-6.87,0.54c-4.57,0.01-9.15-0.14-13.72-0.25c-0.83-0.02-1.64-0.23-2.47-0.28
	C283.91,262.73,283.42,261.88,282.93,260.84"/>
<path class="st0" d="M125.13,301.34c0,10.89,0,21.78,0,32.67c0,1.24-0.4,1.61-1.71,1.68c-4.17,0.23-8.33,0.58-12.5,0.68
	c-3.27,0.09-6.54-0.08-9.81-0.22c-2.32-0.09-4.64-0.32-6.95-0.47c-1.21-0.08-1.65-0.49-1.65-1.63c-0.01-1.84,0-3.67,0-5.43
	l0.02-8.07v-34.97c10.83-0.35,21.65-0.52,32.54,0.01v5.6c0.03,0.06,0.06,0.14,0.06,0.22v9.18h0V301.34z M120.52,340.06
	c-2.27,0.3-4.58,0.53-6.87,0.54c-4.57,0.01-9.15-0.14-13.72-0.25c-0.82-0.02-1.64-0.24-2.47-0.28c-1.29-0.07-1.78-0.91-2.27-1.96
	c9.24,0.89,18.39,0.94,27.57,0.01C122.12,339.94,122.44,339.8,120.52,340.06 M94.38,281.63c1.11-1.28,1.95-2.66,2.15-4.35
	c0.02-0.15,0.35-0.39,0.54-0.4c5.19-0.13,10.38-0.29,15.58-0.32c2.87-0.02,5.74,0.19,8.61,0.3c0.21,0.01,0.42,0.03,0.56,0.04
	c0.33,1.1,0.56,2.16,0.98,3.16c0.41,1,1,1.94,1.48,2.84H93.38C93.72,282.47,94.03,282.03,94.38,281.63 M128.07,281.21
	c-0.52-0.89-0.98-1.82-1.39-2.76c-0.33-0.75-0.52-1.51-0.26-2.38c0.38-1.25-0.56-2.55-1.92-2.8c-0.58-0.11-1.18-0.12-1.77-0.16
	c-8.36-0.6-16.73-0.6-25.1-0.2c-1.28,0.06-2.56,0.15-3.82,0.36c-1.7,0.28-2.54,1.76-1.83,3.22c0.28,0.57,0.19,1.02-0.1,1.49
	c-0.22,0.36-0.47,0.72-0.76,1.04c-1.94,2.13-2.87,4.6-2.87,7.39c0.01,7.83,0,15.66,0,23.48c0,8.03,0,16.06,0,24.09
	c0,1.97,0.74,3.56,2.48,4.76c0.74,0.52,1.52,1.15,1.94,1.89c0.57,1.02,1.28,1.79,2.44,2.07c1.44,0.36,2.9,0.7,4.38,0.82
	c6.41,0.54,12.84,0.49,19.25,0c1.68-0.13,3.35-0.36,4.89-1.06c0.81-0.37,1.27-0.97,1.68-1.71c0.42-0.76,0.97-1.55,1.68-2.08
	c1.51-1.14,2.39-2.51,2.39-4.32c0.01-16.08,0.01-32.16,0-48.24C129.38,284.39,128.96,282.75,128.07,281.21"/>
<path class="st0" d="M95.2,338.11c9.23,0.89,18.39,0.94,27.57,0.01c-0.65,1.82-0.33,1.68-2.25,1.94c-2.27,0.31-4.57,0.53-6.86,0.54
	c-4.57,0.01-9.15-0.14-13.72-0.25c-0.83-0.02-1.64-0.23-2.47-0.28C96.17,339.99,95.68,339.15,95.2,338.11"/>
<path class="st0" d="M172.07,301.34c0,10.89,0,21.78,0,32.67c0,1.24-0.4,1.61-1.71,1.68c-4.16,0.23-8.32,0.58-12.49,0.68
	c-3.27,0.09-6.54-0.08-9.81-0.22c-2.32-0.09-4.64-0.32-6.95-0.47c-1.21-0.08-1.65-0.49-1.65-1.63c-0.01-1.84,0-3.67,0-5.43
	l0.03-8.07v-34.97c10.83-0.35,21.65-0.52,32.54,0.01v5.6c0.03,0.06,0.05,0.14,0.05,0.22v9.18h0.01V301.34z M167.45,340.06
	c-2.27,0.3-4.58,0.53-6.87,0.54c-4.57,0.01-9.15-0.14-13.72-0.25c-0.83-0.02-1.64-0.24-2.47-0.28c-1.29-0.07-1.78-0.91-2.27-1.96
	c9.23,0.89,18.39,0.94,27.57,0.01C169.06,339.94,169.37,339.8,167.45,340.06 M141.32,281.63c1.11-1.28,1.95-2.66,2.15-4.35
	c0.02-0.15,0.35-0.39,0.54-0.4c5.19-0.13,10.38-0.29,15.58-0.32c2.87-0.02,5.74,0.19,8.61,0.3c0.21,0.01,0.42,0.03,0.56,0.04
	c0.33,1.1,0.56,2.16,0.98,3.16c0.41,1,1,1.94,1.48,2.84h-30.89C140.66,282.47,140.96,282.03,141.32,281.63 M175,281.21
	c-0.52-0.89-0.98-1.82-1.39-2.76c-0.33-0.75-0.52-1.51-0.26-2.38c0.38-1.25-0.56-2.55-1.92-2.8c-0.58-0.11-1.18-0.12-1.77-0.16
	c-8.36-0.6-16.73-0.6-25.1-0.2c-1.28,0.06-2.56,0.15-3.82,0.36c-1.7,0.28-2.53,1.76-1.82,3.22c0.28,0.57,0.19,1.02-0.1,1.49
	c-0.22,0.36-0.47,0.72-0.76,1.04c-1.94,2.13-2.87,4.6-2.87,7.39c0.01,7.83,0,15.66,0,23.48c0,8.03,0,16.06,0,24.09
	c0,1.97,0.74,3.56,2.48,4.76c0.74,0.52,1.52,1.15,1.94,1.89c0.57,1.02,1.28,1.79,2.43,2.07c1.44,0.36,2.9,0.7,4.38,0.82
	c6.41,0.54,12.84,0.49,19.25,0c1.68-0.13,3.35-0.36,4.89-1.06c0.81-0.37,1.27-0.97,1.68-1.71c0.42-0.76,0.97-1.55,1.68-2.08
	c1.51-1.14,2.39-2.51,2.39-4.32c0.01-16.08,0.01-32.16,0-48.24C176.31,284.39,175.89,282.75,175,281.21"/>
<path class="st0" d="M142.13,338.11c9.23,0.89,18.39,0.94,27.57,0.01c-0.65,1.82-0.33,1.68-2.25,1.94
	c-2.27,0.31-4.57,0.53-6.86,0.54c-4.57,0.01-9.15-0.14-13.72-0.25c-0.83-0.02-1.64-0.23-2.47-0.28
	C143.11,339.99,142.62,339.15,142.13,338.11"/>
<path class="st0" d="M219,301.34V334c0,1.24-0.4,1.61-1.71,1.68c-4.16,0.23-8.32,0.58-12.49,0.68c-3.27,0.09-6.54-0.08-9.81-0.22
	c-2.32-0.09-4.64-0.32-6.95-0.47c-1.21-0.08-1.65-0.49-1.65-1.63c-0.01-1.84,0-3.67,0-5.43l0.02-8.07v-34.97
	c10.83-0.35,21.65-0.52,32.54,0.01v5.6c0.03,0.06,0.06,0.14,0.06,0.22v9.18h0V301.34z M214.39,340.06c-2.27,0.3-4.58,0.53-6.87,0.54
	c-4.57,0.01-9.15-0.14-13.72-0.25c-0.82-0.02-1.64-0.24-2.47-0.28c-1.29-0.07-1.78-0.91-2.27-1.96c9.24,0.89,18.39,0.94,27.57,0.01
	C215.99,339.94,216.31,339.8,214.39,340.06 M188.25,281.63c1.11-1.28,1.95-2.66,2.15-4.35c0.02-0.15,0.35-0.39,0.54-0.4
	c5.19-0.13,10.38-0.29,15.58-0.32c2.87-0.02,5.74,0.19,8.61,0.3c0.21,0.01,0.42,0.03,0.56,0.04c0.33,1.1,0.56,2.16,0.98,3.16
	c0.41,1,1,1.94,1.48,2.84h-30.89C187.59,282.47,187.9,282.03,188.25,281.63 M221.93,281.21c-0.52-0.89-0.98-1.82-1.39-2.76
	c-0.33-0.75-0.52-1.51-0.26-2.38c0.38-1.25-0.56-2.55-1.92-2.8c-0.58-0.11-1.18-0.12-1.77-0.16c-8.36-0.6-16.73-0.6-25.1-0.2
	c-1.28,0.06-2.56,0.15-3.82,0.36c-1.7,0.28-2.54,1.76-1.83,3.22c0.28,0.57,0.19,1.02-0.1,1.49c-0.22,0.36-0.47,0.72-0.76,1.04
	c-1.94,2.13-2.87,4.6-2.87,7.39c0.01,7.83,0,15.66,0,23.48c0,8.03,0,16.06,0,24.09c0,1.97,0.74,3.56,2.48,4.76
	c0.74,0.52,1.52,1.15,1.94,1.89c0.57,1.02,1.28,1.79,2.43,2.07c1.44,0.36,2.9,0.7,4.38,0.82c6.41,0.54,12.84,0.49,19.25,0
	c1.68-0.13,3.35-0.36,4.89-1.06c0.81-0.37,1.27-0.97,1.68-1.71c0.42-0.76,0.97-1.55,1.68-2.08c1.51-1.14,2.39-2.51,2.39-4.32
	c0.01-16.08,0.01-32.16,0-48.24C223.25,284.39,222.83,282.75,221.93,281.21"/>
<path class="st0" d="M189.07,338.11c9.23,0.89,18.39,0.94,27.57,0.01c-0.64,1.82-0.32,1.68-2.25,1.94
	c-2.27,0.31-4.57,0.53-6.86,0.54c-4.57,0.01-9.15-0.14-13.72-0.25c-0.83-0.02-1.64-0.23-2.47-0.28
	C190.04,339.99,189.55,339.15,189.07,338.11"/>
<path class="st0" d="M265.94,301.34c0,10.89,0,21.78,0,32.67c0,1.24-0.4,1.61-1.71,1.68c-4.16,0.23-8.32,0.58-12.49,0.68
	c-3.27,0.09-6.54-0.08-9.81-0.22c-2.32-0.09-4.64-0.32-6.95-0.47c-1.21-0.08-1.65-0.49-1.65-1.63c-0.01-1.84,0-3.67,0-5.43
	l0.03-8.07v-34.97c10.83-0.35,21.65-0.52,32.54,0.01v5.6c0.03,0.06,0.05,0.14,0.05,0.22v9.18h0.01V301.34z M261.32,340.06
	c-2.27,0.3-4.58,0.53-6.87,0.54c-4.57,0.01-9.15-0.14-13.72-0.25c-0.83-0.02-1.64-0.24-2.47-0.28c-1.28-0.07-1.78-0.91-2.26-1.96
	c9.23,0.89,18.39,0.94,27.57,0.01C262.93,339.94,263.24,339.8,261.32,340.06 M235.18,281.63c1.11-1.28,1.95-2.66,2.15-4.35
	c0.02-0.15,0.35-0.39,0.54-0.4c5.19-0.13,10.38-0.29,15.58-0.32c2.87-0.02,5.74,0.19,8.61,0.3c0.21,0.01,0.42,0.03,0.56,0.04
	c0.33,1.1,0.56,2.16,0.98,3.16c0.41,1,1,1.94,1.48,2.84h-30.89C234.53,282.47,234.83,282.03,235.18,281.63 M268.87,281.21
	c-0.52-0.89-0.98-1.82-1.39-2.76c-0.33-0.75-0.52-1.51-0.26-2.38c0.38-1.25-0.56-2.55-1.92-2.8c-0.58-0.11-1.18-0.12-1.77-0.16
	c-8.36-0.6-16.73-0.6-25.1-0.2c-1.28,0.06-2.56,0.15-3.82,0.36c-1.7,0.28-2.53,1.76-1.83,3.22c0.28,0.57,0.19,1.02-0.09,1.49
	c-0.22,0.36-0.47,0.72-0.76,1.04c-1.94,2.13-2.87,4.6-2.87,7.39c0.01,7.83,0,15.66,0,23.48c0,8.03,0,16.06,0,24.09
	c0,1.97,0.74,3.56,2.48,4.76c0.74,0.52,1.52,1.15,1.94,1.89c0.57,1.02,1.28,1.79,2.43,2.07c1.44,0.36,2.9,0.7,4.38,0.82
	c6.41,0.54,12.84,0.49,19.25,0c1.68-0.13,3.35-0.36,4.89-1.06c0.81-0.37,1.27-0.97,1.68-1.71c0.42-0.76,0.97-1.55,1.68-2.08
	c1.51-1.14,2.39-2.51,2.39-4.32c0.01-16.08,0.01-32.16,0-48.24C270.18,284.39,269.76,282.75,268.87,281.21"/>
<path class="st0" d="M236,338.11c9.23,0.89,18.39,0.94,27.57,0.01c-0.65,1.82-0.33,1.68-2.25,1.94c-2.27,0.31-4.57,0.53-6.86,0.54
	c-4.57,0.01-9.15-0.14-13.72-0.25c-0.83-0.02-1.64-0.23-2.47-0.28C236.98,339.99,236.48,339.15,236,338.11"/>
<path class="st0" d="M312.87,301.34c0,10.89,0,21.78,0,32.67c0,1.24-0.4,1.61-1.71,1.68c-4.16,0.23-8.32,0.58-12.49,0.68
	c-3.27,0.09-6.54-0.08-9.81-0.22c-2.32-0.09-4.64-0.32-6.95-0.47c-1.21-0.08-1.65-0.49-1.65-1.63c-0.01-1.84,0-3.67,0-5.43
	l0.03-8.07v-34.97c10.83-0.35,21.65-0.52,32.54,0.01v5.6c0.03,0.06,0.06,0.14,0.06,0.22v9.18h0V301.34z M308.25,340.06
	c-2.27,0.3-4.58,0.53-6.87,0.54c-4.57,0.01-9.15-0.14-13.72-0.25c-0.82-0.02-1.64-0.24-2.47-0.28c-1.29-0.07-1.78-0.91-2.27-1.96
	c9.24,0.89,18.39,0.94,27.57,0.01C309.86,339.94,310.18,339.8,308.25,340.06 M282.12,281.63c1.11-1.28,1.95-2.66,2.15-4.35
	c0.02-0.15,0.35-0.39,0.54-0.4c5.19-0.13,10.38-0.29,15.58-0.32c2.87-0.02,5.74,0.19,8.61,0.3c0.21,0.01,0.42,0.03,0.56,0.04
	c0.33,1.1,0.56,2.16,0.98,3.16c0.41,1,1,1.94,1.48,2.84h-30.89C281.46,282.47,281.77,282.03,282.12,281.63 M315.8,281.21
	c-0.52-0.89-0.98-1.82-1.39-2.76c-0.33-0.75-0.52-1.51-0.26-2.38c0.38-1.25-0.56-2.55-1.92-2.8c-0.58-0.11-1.18-0.12-1.77-0.16
	c-8.36-0.6-16.73-0.6-25.1-0.2c-1.28,0.06-2.56,0.15-3.82,0.36c-1.7,0.28-2.53,1.76-1.82,3.22c0.28,0.57,0.19,1.02-0.1,1.49
	c-0.22,0.36-0.47,0.72-0.76,1.04c-1.94,2.13-2.87,4.6-2.87,7.39c0.01,7.83,0,15.66,0,23.48c0,8.03,0,16.06,0,24.09
	c0,1.97,0.74,3.56,2.48,4.76c0.74,0.52,1.52,1.15,1.94,1.89c0.57,1.02,1.28,1.79,2.43,2.07c1.44,0.36,2.9,0.7,4.38,0.82
	c6.41,0.54,12.84,0.49,19.25,0c1.68-0.13,3.35-0.36,4.89-1.06c0.81-0.37,1.27-0.97,1.68-1.71c0.42-0.76,0.97-1.55,1.68-2.08
	c1.51-1.14,2.39-2.51,2.39-4.32c0.01-16.08,0.01-32.16,0-48.24C317.11,284.39,316.69,282.75,315.8,281.21"/>
<path class="st0" d="M282.93,338.11c9.23,0.89,18.39,0.94,27.57,0.01c-0.65,1.82-0.33,1.68-2.25,1.94
	c-2.27,0.31-4.58,0.53-6.87,0.54c-4.57,0.01-9.15-0.14-13.72-0.25c-0.83-0.02-1.64-0.23-2.47-0.28
	C283.91,339.99,283.42,339.15,282.93,338.11"/>
<path class="st1" d="M316.1,111.69H89.59c-3.38,0-6.12-2.56-6.12-5.72c0-3.16,2.74-5.73,6.12-5.73H316.1c3.38,0,6.12,2.56,6.12,5.73
	C322.22,109.12,319.48,111.69,316.1,111.69"/>
<path class="st1" d="M316.1,359.71H89.59c-3.38,0-6.12-2.56-6.12-5.72c0-3.16,2.74-5.73,6.12-5.73H316.1c3.38,0,6.12,2.56,6.12,5.73
	C322.22,357.15,319.48,359.71,316.1,359.71"/>
<g>
	<path class="st2" d="M329.83,71.79l3.61,9.61c0.4,1.08,1.41,1.81,2.56,1.87l10.25,0.53c2.03,0.11,3.32,2.23,2.48,4.08l-4.25,9.35
		c-0.48,1.05-0.29,2.28,0.48,3.13l6.88,7.63c1.36,1.51,0.78,3.93-1.13,4.64l-9.61,3.61c-1.08,0.4-1.81,1.41-1.87,2.56l-0.53,10.25
		c-0.11,2.03-2.23,3.32-4.08,2.48l-9.35-4.25c-1.05-0.48-2.28-0.29-3.13,0.48l-7.63,6.88c-1.51,1.36-3.93,0.78-4.64-1.13l-3.61-9.61
		c-0.4-1.08-1.41-1.81-2.56-1.87l-10.25-0.53c-2.03-0.11-3.32-2.23-2.48-4.08l4.25-9.35c0.48-1.05,0.29-2.28-0.48-3.13l-6.88-7.63
		c-1.36-1.51-0.78-3.93,1.13-4.64l9.61-3.61c1.08-0.4,1.81-1.41,1.87-2.56l0.53-10.25c0.11-2.03,2.23-3.32,4.08-2.48l9.35,4.25
		c1.05,0.48,2.28,0.29,3.13-0.48l7.63-6.88C326.71,69.29,329.12,69.88,329.83,71.79z"/>
	<line class="st3" x1="291.89" y1="82.2" x2="281.74" y2="74.79"/>
	<line class="st3" x1="314.8" y1="68.58" x2="312.87" y2="56.16"/>
	<line class="st3" x1="340.62" y1="75.14" x2="348.04" y2="65"/>
	<line class="st3" x1="354.25" y1="98.05" x2="366.67" y2="96.12"/>
	<line class="st3" x1="347.69" y1="123.88" x2="357.83" y2="131.29"/>
	<line class="st3" x1="324.78" y1="137.5" x2="326.71" y2="149.92"/>
	<line class="st3" x1="299.89" y1="132.12" x2="292.47" y2="142.27"/>
	<line class="st3" x1="286.09" y1="110.71" x2="273.67" y2="112.64"/>
</g>
</svg>
