<?xml version="1.0" encoding="utf-8"?>
<!-- Generator: Adobe Illustrator 27.6.1, SVG Export Plug-In . SVG Version: 6.00 Build 0)  -->
<svg version="1.1" id="Layer_1" xmlns="http://www.w3.org/2000/svg" xmlns:xlink="http://www.w3.org/1999/xlink" x="0px" y="0px"
	 viewBox="0 0 432 432" style="enable-background:new 0 0 432 432;" xml:space="preserve">
<style type="text/css">
	.st0{fill:#FBFCF5;}
	.st1{fill:#FBC862;}
	.st2{fill:#FCFDF6;stroke:#383738;stroke-width:8.1873;stroke-linecap:round;stroke-linejoin:round;stroke-miterlimit:10;}
	.st3{fill:#FCFDF6;stroke:#383738;stroke-width:6.1404;stroke-linecap:round;stroke-linejoin:round;stroke-miterlimit:10;}
	.st4{fill:none;stroke:#383738;stroke-width:6.1404;stroke-linecap:round;stroke-linejoin:round;stroke-miterlimit:10;}
</style>
<path class="st0" d="M124.35,146.8c0,10.88,0,21.76,0,32.64c0,1.24-0.4,1.61-1.71,1.68c-4.16,0.23-8.32,0.58-12.48,0.68
	c-3.26,0.08-6.54-0.08-9.8-0.22c-2.32-0.09-4.63-0.32-6.95-0.47c-1.21-0.08-1.65-0.49-1.65-1.63c-0.01-1.83,0-3.67,0-5.42l0.02-8.07
	v-34.94c10.82-0.35,21.63-0.52,32.51,0.01v5.6c0.03,0.06,0.06,0.14,0.06,0.22v9.17h0V146.8z M119.73,185.49
	c-2.27,0.3-4.57,0.53-6.86,0.54c-4.57,0.01-9.14-0.14-13.71-0.25c-0.82-0.02-1.64-0.23-2.46-0.28c-1.29-0.07-1.78-0.91-2.27-1.95
	c9.23,0.89,18.37,0.94,27.54,0.01C121.34,185.37,121.65,185.23,119.73,185.49 M93.62,127.12c1.11-1.28,1.95-2.66,2.15-4.34
	c0.02-0.15,0.35-0.39,0.54-0.4c5.19-0.13,10.38-0.29,15.56-0.32c2.87-0.02,5.73,0.19,8.6,0.3c0.21,0.01,0.42,0.03,0.56,0.04
	c0.33,1.09,0.56,2.16,0.98,3.16c0.41,1,1,1.93,1.48,2.84H92.62C92.97,127.96,93.27,127.52,93.62,127.12 M127.28,126.7
	c-0.51-0.89-0.98-1.82-1.39-2.76c-0.33-0.75-0.52-1.51-0.26-2.37c0.38-1.25-0.56-2.55-1.91-2.79c-0.58-0.11-1.18-0.12-1.77-0.16
	c-8.36-0.59-16.71-0.6-25.08-0.2c-1.27,0.06-2.56,0.15-3.81,0.35c-1.7,0.28-2.53,1.75-1.82,3.22c0.28,0.58,0.19,1.02-0.1,1.49
	c-0.22,0.36-0.47,0.72-0.76,1.04c-1.94,2.13-2.87,4.59-2.87,7.39c0.01,7.82,0,15.64,0,23.46c0,8.02,0,16.04,0,24.06
	c0,1.96,0.74,3.55,2.48,4.76c0.74,0.52,1.52,1.14,1.93,1.89c0.57,1.02,1.28,1.78,2.43,2.07c1.43,0.35,2.9,0.7,4.37,0.82
	c6.41,0.54,12.82,0.49,19.24,0c1.67-0.13,3.34-0.36,4.89-1.06c0.81-0.37,1.27-0.97,1.68-1.71c0.42-0.76,0.97-1.54,1.68-2.07
	c1.51-1.14,2.38-2.51,2.38-4.32c0.01-16.06,0.01-32.13,0-48.19C128.59,129.88,128.17,128.23,127.28,126.7"/>
<path class="st0" d="M94.44,183.54c9.22,0.89,18.37,0.94,27.54,0.01c-0.64,1.82-0.33,1.68-2.25,1.93c-2.27,0.31-4.57,0.53-6.86,0.54
	c-4.57,0.01-9.14-0.14-13.71-0.25c-0.83-0.02-1.64-0.23-2.47-0.28C95.41,185.43,94.92,184.58,94.44,183.54"/>
<path class="st0" d="M171.24,146.8c0,10.88,0,21.76,0,32.64c0,1.24-0.4,1.61-1.71,1.68c-4.16,0.23-8.32,0.58-12.48,0.68
	c-3.26,0.08-6.54-0.08-9.8-0.22c-2.32-0.09-4.63-0.32-6.95-0.47c-1.21-0.08-1.65-0.49-1.65-1.63c-0.01-1.83,0-3.67,0-5.42l0.03-8.07
	v-34.94c10.82-0.35,21.63-0.52,32.51,0.01v5.6c0.03,0.06,0.05,0.14,0.05,0.22v9.17h0.01V146.8z M166.63,185.49
	c-2.27,0.3-4.57,0.53-6.86,0.54c-4.57,0.01-9.14-0.14-13.71-0.25c-0.83-0.02-1.64-0.23-2.46-0.28c-1.29-0.07-1.78-0.91-2.27-1.95
	c9.22,0.89,18.37,0.94,27.54,0.01C168.23,185.37,168.55,185.23,166.63,185.49 M140.51,127.12c1.11-1.28,1.95-2.66,2.15-4.34
	c0.02-0.15,0.35-0.39,0.54-0.4c5.19-0.13,10.38-0.29,15.56-0.32c2.87-0.02,5.73,0.19,8.6,0.3c0.21,0.01,0.42,0.03,0.56,0.04
	c0.33,1.09,0.56,2.16,0.98,3.16c0.41,1,1,1.93,1.48,2.84h-30.87C139.86,127.96,140.16,127.52,140.51,127.12 M174.17,126.7
	c-0.52-0.89-0.98-1.82-1.39-2.76c-0.33-0.75-0.52-1.51-0.26-2.37c0.38-1.25-0.56-2.55-1.91-2.79c-0.58-0.11-1.18-0.12-1.77-0.16
	c-8.36-0.59-16.71-0.6-25.08-0.2c-1.27,0.06-2.56,0.15-3.82,0.35c-1.7,0.28-2.53,1.75-1.82,3.22c0.28,0.58,0.19,1.02-0.1,1.49
	c-0.22,0.36-0.47,0.72-0.76,1.04c-1.94,2.13-2.87,4.59-2.87,7.39c0.01,7.82,0,15.64,0,23.46c0,8.02,0,16.04,0,24.06
	c0,1.96,0.74,3.55,2.48,4.76c0.74,0.52,1.52,1.14,1.93,1.89c0.57,1.02,1.28,1.78,2.43,2.07c1.44,0.35,2.9,0.7,4.37,0.82
	c6.41,0.54,12.82,0.49,19.24,0c1.67-0.13,3.34-0.36,4.89-1.06c0.81-0.37,1.27-0.97,1.68-1.71c0.42-0.76,0.97-1.54,1.68-2.07
	c1.51-1.14,2.38-2.51,2.38-4.32c0.01-16.06,0.01-32.13,0-48.19C175.48,129.88,175.06,128.23,174.17,126.7"/>
<path class="st0" d="M141.33,183.54c9.22,0.89,18.37,0.94,27.54,0.01c-0.64,1.82-0.33,1.68-2.25,1.93
	c-2.27,0.31-4.57,0.53-6.86,0.54c-4.57,0.01-9.14-0.14-13.71-0.25c-0.83-0.02-1.64-0.23-2.47-0.28
	C142.3,185.43,141.81,184.58,141.33,183.54"/>
<path class="st0" d="M218.13,146.8v32.64c0,1.24-0.4,1.61-1.71,1.68c-4.16,0.23-8.32,0.58-12.48,0.68c-3.26,0.08-6.54-0.08-9.8-0.22
	c-2.32-0.09-4.63-0.32-6.95-0.47c-1.21-0.08-1.65-0.49-1.65-1.63c-0.01-1.83,0-3.67,0-5.42l0.02-8.07v-34.94
	c10.82-0.35,21.63-0.52,32.51,0.01v5.6c0.03,0.06,0.06,0.14,0.06,0.22v9.17h0V146.8z M213.52,185.49c-2.27,0.3-4.57,0.53-6.86,0.54
	c-4.57,0.01-9.14-0.14-13.71-0.25c-0.82-0.02-1.64-0.23-2.46-0.28c-1.29-0.07-1.78-0.91-2.27-1.95c9.23,0.89,18.37,0.94,27.54,0.01
	C215.12,185.37,215.44,185.23,213.52,185.49 M187.4,127.12c1.11-1.28,1.95-2.66,2.15-4.34c0.02-0.15,0.35-0.39,0.54-0.4
	c5.19-0.13,10.38-0.29,15.56-0.32c2.87-0.02,5.73,0.19,8.6,0.3c0.21,0.01,0.42,0.03,0.56,0.04c0.33,1.09,0.56,2.16,0.98,3.16
	c0.41,1,1,1.93,1.48,2.84H186.4C186.75,127.96,187.06,127.52,187.4,127.12 M221.06,126.7c-0.51-0.89-0.98-1.82-1.39-2.76
	c-0.33-0.75-0.52-1.51-0.26-2.37c0.38-1.25-0.56-2.55-1.91-2.79c-0.58-0.11-1.18-0.12-1.77-0.16c-8.36-0.59-16.71-0.6-25.08-0.2
	c-1.27,0.06-2.56,0.15-3.81,0.35c-1.7,0.28-2.53,1.75-1.82,3.22c0.28,0.58,0.19,1.02-0.1,1.49c-0.22,0.36-0.47,0.72-0.76,1.04
	c-1.94,2.13-2.87,4.59-2.87,7.39c0.01,7.82,0,15.64,0,23.46c0,8.02,0,16.04,0,24.06c0,1.96,0.74,3.55,2.48,4.76
	c0.74,0.52,1.52,1.14,1.93,1.89c0.57,1.02,1.28,1.78,2.43,2.07c1.44,0.35,2.9,0.7,4.37,0.82c6.41,0.54,12.82,0.49,19.24,0
	c1.67-0.13,3.34-0.36,4.89-1.06c0.81-0.37,1.27-0.97,1.68-1.71c0.42-0.76,0.97-1.54,1.68-2.07c1.51-1.14,2.38-2.51,2.38-4.32
	c0.01-16.06,0.01-32.13,0-48.19C222.37,129.88,221.95,128.23,221.06,126.7"/>
<path class="st0" d="M188.22,183.54c9.22,0.89,18.37,0.94,27.54,0.01c-0.64,1.82-0.32,1.68-2.24,1.93
	c-2.27,0.31-4.57,0.53-6.86,0.54c-4.57,0.01-9.14-0.14-13.71-0.25c-0.83-0.02-1.64-0.23-2.47-0.28
	C189.2,185.43,188.7,184.58,188.22,183.54"/>
<path class="st0" d="M265.02,146.8c0,10.88,0,21.76,0,32.64c0,1.24-0.4,1.61-1.71,1.68c-4.16,0.23-8.32,0.58-12.48,0.68
	c-3.26,0.08-6.54-0.08-9.8-0.22c-2.32-0.09-4.63-0.32-6.95-0.47c-1.21-0.08-1.65-0.49-1.65-1.63c-0.01-1.83,0-3.67,0-5.42l0.03-8.07
	v-34.94c10.82-0.35,21.63-0.52,32.51,0.01v5.6c0.03,0.06,0.05,0.14,0.05,0.22v9.17h0.01V146.8z M260.41,185.49
	c-2.27,0.3-4.57,0.53-6.86,0.54c-4.57,0.01-9.14-0.14-13.71-0.25c-0.83-0.02-1.64-0.23-2.47-0.28c-1.28-0.07-1.78-0.91-2.26-1.95
	c9.22,0.89,18.37,0.94,27.54,0.01C262.01,185.37,262.33,185.23,260.41,185.49 M234.3,127.12c1.11-1.28,1.95-2.66,2.15-4.34
	c0.02-0.15,0.35-0.39,0.54-0.4c5.19-0.13,10.38-0.29,15.56-0.32c2.87-0.02,5.73,0.19,8.6,0.3c0.21,0.01,0.42,0.03,0.56,0.04
	c0.33,1.09,0.56,2.16,0.98,3.16c0.41,1,1,1.93,1.48,2.84H233.3C233.64,127.96,233.94,127.52,234.3,127.12 M267.95,126.7
	c-0.52-0.89-0.98-1.82-1.39-2.76c-0.33-0.75-0.52-1.51-0.26-2.37c0.38-1.25-0.56-2.55-1.91-2.79c-0.58-0.11-1.18-0.12-1.77-0.16
	c-8.36-0.59-16.71-0.6-25.08-0.2c-1.27,0.06-2.56,0.15-3.82,0.35c-1.7,0.28-2.53,1.75-1.82,3.22c0.28,0.58,0.19,1.02-0.09,1.49
	c-0.22,0.36-0.47,0.72-0.76,1.04c-1.94,2.13-2.87,4.59-2.87,7.39c0.01,7.82,0,15.64,0,23.46c0,8.02,0,16.04,0,24.06
	c0,1.96,0.74,3.55,2.48,4.76c0.74,0.52,1.52,1.14,1.93,1.89c0.57,1.02,1.28,1.78,2.43,2.07c1.44,0.35,2.9,0.7,4.37,0.82
	c6.41,0.54,12.82,0.49,19.24,0c1.67-0.13,3.34-0.36,4.89-1.06c0.81-0.37,1.27-0.97,1.68-1.71c0.42-0.76,0.97-1.54,1.68-2.07
	c1.51-1.14,2.38-2.51,2.38-4.32c0.01-16.06,0.01-32.13,0-48.19C269.26,129.88,268.84,128.23,267.95,126.7"/>
<path class="st0" d="M235.11,183.54c9.22,0.89,18.37,0.94,27.54,0.01c-0.64,1.82-0.33,1.68-2.25,1.93
	c-2.27,0.31-4.57,0.53-6.86,0.54c-4.57,0.01-9.14-0.14-13.71-0.25c-0.83-0.02-1.64-0.23-2.47-0.28
	C236.09,185.43,235.6,184.58,235.11,183.54"/>
<path class="st0" d="M311.91,146.8c0,10.88,0,21.76,0,32.64c0,1.24-0.4,1.61-1.71,1.68c-4.16,0.23-8.32,0.58-12.48,0.68
	c-3.26,0.08-6.54-0.08-9.8-0.22c-2.32-0.09-4.63-0.32-6.95-0.47c-1.21-0.08-1.65-0.49-1.65-1.63c-0.01-1.83,0-3.67,0-5.42l0.03-8.07
	v-34.94c10.82-0.35,21.63-0.52,32.51,0.01v5.6c0.03,0.06,0.06,0.14,0.06,0.22v9.17h0V146.8z M307.3,185.49
	c-2.27,0.3-4.57,0.53-6.86,0.54c-4.57,0.01-9.14-0.14-13.71-0.25c-0.82-0.02-1.64-0.23-2.46-0.28c-1.29-0.07-1.78-0.91-2.27-1.95
	c9.23,0.89,18.37,0.94,27.54,0.01C308.9,185.37,309.22,185.23,307.3,185.49 M281.19,127.12c1.11-1.28,1.95-2.66,2.15-4.34
	c0.02-0.15,0.35-0.39,0.54-0.4c5.19-0.13,10.38-0.29,15.56-0.32c2.87-0.02,5.73,0.19,8.6,0.3c0.21,0.01,0.42,0.03,0.56,0.04
	c0.33,1.09,0.56,2.16,0.98,3.16c0.41,1,1,1.93,1.48,2.84h-30.87C280.53,127.96,280.84,127.52,281.19,127.12 M314.84,126.7
	c-0.51-0.89-0.98-1.82-1.39-2.76c-0.33-0.75-0.52-1.51-0.26-2.37c0.38-1.25-0.56-2.55-1.91-2.79c-0.58-0.11-1.18-0.12-1.77-0.16
	c-8.36-0.59-16.71-0.6-25.08-0.2c-1.27,0.06-2.56,0.15-3.82,0.35c-1.7,0.28-2.53,1.75-1.82,3.22c0.28,0.58,0.19,1.02-0.1,1.49
	c-0.22,0.36-0.47,0.72-0.76,1.04c-1.94,2.13-2.87,4.59-2.87,7.39c0.01,7.82,0,15.64,0,23.46c0,8.02,0,16.04,0,24.06
	c0,1.96,0.74,3.55,2.48,4.76c0.74,0.52,1.52,1.14,1.93,1.89c0.57,1.02,1.28,1.78,2.43,2.07c1.44,0.35,2.9,0.7,4.37,0.82
	c6.41,0.54,12.82,0.49,19.24,0c1.67-0.13,3.34-0.36,4.89-1.06c0.81-0.37,1.27-0.97,1.68-1.71c0.42-0.76,0.97-1.54,1.68-2.07
	c1.51-1.14,2.38-2.51,2.38-4.32c0.01-16.06,0.01-32.13,0-48.19C316.15,129.88,315.73,128.23,314.84,126.7"/>
<path class="st0" d="M282,183.54c9.22,0.89,18.37,0.94,27.54,0.01c-0.64,1.82-0.33,1.68-2.24,1.93c-2.27,0.31-4.57,0.53-6.86,0.54
	c-4.57,0.01-9.14-0.14-13.71-0.25c-0.83-0.02-1.64-0.23-2.47-0.28C282.98,185.43,282.49,184.58,282,183.54"/>
<path class="st0" d="M124.35,224c0,10.88,0,21.76,0,32.64c0,1.24-0.4,1.61-1.71,1.68c-4.16,0.23-8.32,0.58-12.48,0.68
	c-3.26,0.08-6.54-0.09-9.8-0.22c-2.32-0.09-4.63-0.32-6.95-0.47c-1.21-0.08-1.65-0.49-1.65-1.63c-0.01-1.83,0-3.67,0-5.42l0.02-8.07
	v-34.94c10.82-0.35,21.63-0.52,32.51,0.01v5.6c0.03,0.06,0.06,0.14,0.06,0.22v9.17h0V224z M119.73,262.69
	c-2.27,0.3-4.57,0.53-6.86,0.54c-4.57,0.01-9.14-0.14-13.71-0.25c-0.82-0.02-1.64-0.23-2.46-0.28c-1.29-0.07-1.78-0.91-2.27-1.95
	c9.23,0.89,18.37,0.94,27.54,0.01C121.34,262.57,121.65,262.43,119.73,262.69 M93.62,204.31c1.11-1.28,1.95-2.66,2.15-4.34
	c0.02-0.15,0.35-0.39,0.54-0.4c5.19-0.13,10.38-0.29,15.56-0.32c2.87-0.02,5.73,0.19,8.6,0.3c0.21,0.01,0.42,0.03,0.56,0.04
	c0.33,1.09,0.56,2.16,0.98,3.16c0.41,1,1,1.93,1.48,2.84H92.62C92.97,205.15,93.27,204.72,93.62,204.31 M127.28,203.89
	c-0.51-0.89-0.98-1.82-1.39-2.76c-0.33-0.75-0.52-1.51-0.26-2.37c0.38-1.25-0.56-2.55-1.91-2.79c-0.58-0.11-1.18-0.12-1.77-0.16
	c-8.36-0.59-16.71-0.6-25.08-0.2c-1.27,0.06-2.56,0.15-3.81,0.35c-1.7,0.28-2.53,1.75-1.82,3.22c0.28,0.58,0.19,1.02-0.1,1.49
	c-0.22,0.36-0.47,0.72-0.76,1.04c-1.94,2.13-2.87,4.59-2.87,7.39c0.01,7.82,0,15.64,0,23.46c0,8.02,0,16.04,0,24.06
	c0,1.96,0.74,3.55,2.48,4.76c0.74,0.52,1.52,1.14,1.93,1.89c0.57,1.02,1.28,1.78,2.43,2.07c1.43,0.35,2.9,0.7,4.37,0.82
	c6.41,0.54,12.82,0.49,19.24,0c1.67-0.13,3.34-0.36,4.89-1.06c0.81-0.37,1.27-0.97,1.68-1.71c0.42-0.76,0.97-1.54,1.68-2.07
	c1.51-1.14,2.38-2.51,2.38-4.32c0.01-16.06,0.01-32.13,0-48.19C128.59,207.07,128.17,205.43,127.28,203.89"/>
<path class="st0" d="M94.44,260.74c9.22,0.89,18.37,0.94,27.54,0.01c-0.64,1.82-0.33,1.68-2.25,1.93c-2.27,0.31-4.57,0.53-6.86,0.54
	c-4.57,0.01-9.14-0.14-13.71-0.25c-0.83-0.02-1.64-0.23-2.47-0.28C95.41,262.62,94.92,261.78,94.44,260.74"/>
<path class="st0" d="M171.24,224c0,10.88,0,21.76,0,32.64c0,1.24-0.4,1.61-1.71,1.68c-4.16,0.23-8.32,0.58-12.48,0.68
	c-3.26,0.08-6.54-0.09-9.8-0.22c-2.32-0.09-4.63-0.32-6.95-0.47c-1.21-0.08-1.65-0.49-1.65-1.63c-0.01-1.83,0-3.67,0-5.42l0.03-8.07
	v-34.94c10.82-0.35,21.63-0.52,32.51,0.01v5.6c0.03,0.06,0.05,0.14,0.05,0.22v9.17h0.01V224z M166.63,262.69
	c-2.27,0.3-4.57,0.53-6.86,0.54c-4.57,0.01-9.14-0.14-13.71-0.25c-0.83-0.02-1.64-0.23-2.46-0.28c-1.29-0.07-1.78-0.91-2.27-1.95
	c9.22,0.89,18.37,0.94,27.54,0.01C168.23,262.57,168.55,262.43,166.63,262.69 M140.51,204.31c1.11-1.28,1.95-2.66,2.15-4.34
	c0.02-0.15,0.35-0.39,0.54-0.4c5.19-0.13,10.38-0.29,15.56-0.32c2.87-0.02,5.73,0.19,8.6,0.3c0.21,0.01,0.42,0.03,0.56,0.04
	c0.33,1.09,0.56,2.16,0.98,3.16c0.41,1,1,1.93,1.48,2.84h-30.87C139.86,205.15,140.16,204.72,140.51,204.31 M174.17,203.89
	c-0.52-0.89-0.98-1.82-1.39-2.76c-0.33-0.75-0.52-1.51-0.26-2.37c0.38-1.25-0.56-2.55-1.91-2.79c-0.58-0.11-1.18-0.12-1.77-0.16
	c-8.36-0.59-16.71-0.6-25.08-0.2c-1.27,0.06-2.56,0.15-3.82,0.35c-1.7,0.28-2.53,1.75-1.82,3.22c0.28,0.58,0.19,1.02-0.1,1.49
	c-0.22,0.36-0.47,0.72-0.76,1.04c-1.94,2.13-2.87,4.59-2.87,7.39c0.01,7.82,0,15.64,0,23.46c0,8.02,0,16.04,0,24.06
	c0,1.96,0.74,3.55,2.48,4.76c0.74,0.52,1.52,1.14,1.93,1.89c0.57,1.02,1.28,1.78,2.43,2.07c1.44,0.35,2.9,0.7,4.37,0.82
	c6.41,0.54,12.82,0.49,19.24,0c1.67-0.13,3.34-0.36,4.89-1.06c0.81-0.37,1.27-0.97,1.68-1.71c0.42-0.76,0.97-1.54,1.68-2.07
	c1.51-1.14,2.38-2.51,2.38-4.32c0.01-16.06,0.01-32.13,0-48.19C175.48,207.07,175.06,205.43,174.17,203.89"/>
<path class="st0" d="M141.33,260.74c9.22,0.89,18.37,0.94,27.54,0.01c-0.64,1.82-0.33,1.68-2.25,1.93
	c-2.27,0.31-4.57,0.53-6.86,0.54c-4.57,0.01-9.14-0.14-13.71-0.25c-0.83-0.02-1.64-0.23-2.47-0.28
	C142.3,262.62,141.81,261.78,141.33,260.74"/>
<path class="st0" d="M218.13,224v32.64c0,1.24-0.4,1.61-1.71,1.68c-4.16,0.23-8.32,0.58-12.48,0.68c-3.26,0.08-6.54-0.09-9.8-0.22
	c-2.32-0.09-4.63-0.32-6.95-0.47c-1.21-0.08-1.65-0.49-1.65-1.63c-0.01-1.83,0-3.67,0-5.42l0.02-8.07v-34.94
	c10.82-0.35,21.63-0.52,32.51,0.01v5.6c0.03,0.06,0.06,0.14,0.06,0.22v9.17h0V224z M213.52,262.69c-2.27,0.3-4.57,0.53-6.86,0.54
	c-4.57,0.01-9.14-0.14-13.71-0.25c-0.82-0.02-1.64-0.23-2.46-0.28c-1.29-0.07-1.78-0.91-2.27-1.95c9.23,0.89,18.37,0.94,27.54,0.01
	C215.12,262.57,215.44,262.43,213.52,262.69 M187.4,204.31c1.11-1.28,1.95-2.66,2.15-4.34c0.02-0.15,0.35-0.39,0.54-0.4
	c5.19-0.13,10.38-0.29,15.56-0.32c2.87-0.02,5.73,0.19,8.6,0.3c0.21,0.01,0.42,0.03,0.56,0.04c0.33,1.09,0.56,2.16,0.98,3.16
	c0.41,1,1,1.93,1.48,2.84H186.4C186.75,205.15,187.06,204.72,187.4,204.31 M221.06,203.89c-0.51-0.89-0.98-1.82-1.39-2.76
	c-0.33-0.75-0.52-1.51-0.26-2.37c0.38-1.25-0.56-2.55-1.91-2.79c-0.58-0.11-1.18-0.12-1.77-0.16c-8.36-0.59-16.71-0.6-25.08-0.2
	c-1.27,0.06-2.56,0.15-3.81,0.35c-1.7,0.28-2.53,1.75-1.82,3.22c0.28,0.58,0.19,1.02-0.1,1.49c-0.22,0.36-0.47,0.72-0.76,1.04
	c-1.94,2.13-2.87,4.59-2.87,7.39c0.01,7.82,0,15.64,0,23.46c0,8.02,0,16.04,0,24.06c0,1.96,0.74,3.55,2.48,4.76
	c0.74,0.52,1.52,1.14,1.93,1.89c0.57,1.02,1.28,1.78,2.43,2.07c1.44,0.35,2.9,0.7,4.37,0.82c6.41,0.54,12.82,0.49,19.24,0
	c1.67-0.13,3.34-0.36,4.89-1.06c0.81-0.37,1.27-0.97,1.68-1.71c0.42-0.76,0.97-1.54,1.68-2.07c1.51-1.14,2.38-2.51,2.38-4.32
	c0.01-16.06,0.01-32.13,0-48.19C222.37,207.07,221.95,205.43,221.06,203.89"/>
<path class="st0" d="M188.22,260.74c9.22,0.89,18.37,0.94,27.54,0.01c-0.64,1.82-0.32,1.68-2.24,1.93
	c-2.27,0.31-4.57,0.53-6.86,0.54c-4.57,0.01-9.14-0.14-13.71-0.25c-0.83-0.02-1.64-0.23-2.47-0.28
	C189.2,262.62,188.7,261.78,188.22,260.74"/>
<path class="st0" d="M265.02,224c0,10.88,0,21.76,0,32.64c0,1.24-0.4,1.61-1.71,1.68c-4.16,0.23-8.32,0.58-12.48,0.68
	c-3.26,0.08-6.54-0.09-9.8-0.22c-2.32-0.09-4.63-0.32-6.95-0.47c-1.21-0.08-1.65-0.49-1.65-1.63c-0.01-1.83,0-3.67,0-5.42l0.03-8.07
	v-34.94c10.82-0.35,21.63-0.52,32.51,0.01v5.6c0.03,0.06,0.05,0.14,0.05,0.22v9.17h0.01V224z M260.41,262.69
	c-2.27,0.3-4.57,0.53-6.86,0.54c-4.57,0.01-9.14-0.14-13.71-0.25c-0.83-0.02-1.64-0.23-2.47-0.28c-1.28-0.07-1.78-0.91-2.26-1.95
	c9.22,0.89,18.37,0.94,27.54,0.01C262.01,262.57,262.33,262.43,260.41,262.69 M234.3,204.31c1.11-1.28,1.95-2.66,2.15-4.34
	c0.02-0.15,0.35-0.39,0.54-0.4c5.19-0.13,10.38-0.29,15.56-0.32c2.87-0.02,5.73,0.19,8.6,0.3c0.21,0.01,0.42,0.03,0.56,0.04
	c0.33,1.09,0.56,2.16,0.98,3.16c0.41,1,1,1.93,1.48,2.84H233.3C233.64,205.15,233.94,204.72,234.3,204.31 M267.95,203.89
	c-0.52-0.89-0.98-1.82-1.39-2.76c-0.33-0.75-0.52-1.51-0.26-2.37c0.38-1.25-0.56-2.55-1.91-2.79c-0.58-0.11-1.18-0.12-1.77-0.16
	c-8.36-0.59-16.71-0.6-25.08-0.2c-1.27,0.06-2.56,0.15-3.82,0.35c-1.7,0.28-2.53,1.75-1.82,3.22c0.28,0.58,0.19,1.02-0.09,1.49
	c-0.22,0.36-0.47,0.72-0.76,1.04c-1.94,2.13-2.87,4.59-2.87,7.39c0.01,7.82,0,15.64,0,23.46c0,8.02,0,16.04,0,24.06
	c0,1.96,0.74,3.55,2.48,4.76c0.74,0.52,1.52,1.14,1.93,1.89c0.57,1.02,1.28,1.78,2.43,2.07c1.44,0.35,2.9,0.7,4.37,0.82
	c6.41,0.54,12.82,0.49,19.24,0c1.67-0.13,3.34-0.36,4.89-1.06c0.81-0.37,1.27-0.97,1.68-1.71c0.42-0.76,0.97-1.54,1.68-2.07
	c1.51-1.14,2.38-2.51,2.38-4.32c0.01-16.06,0.01-32.13,0-48.19C269.26,207.07,268.84,205.43,267.95,203.89"/>
<path class="st0" d="M235.11,260.74c9.22,0.89,18.37,0.94,27.54,0.01c-0.64,1.82-0.33,1.68-2.25,1.93
	c-2.27,0.31-4.57,0.53-6.86,0.54c-4.57,0.01-9.14-0.14-13.71-0.25c-0.83-0.02-1.64-0.23-2.47-0.28
	C236.09,262.62,235.6,261.78,235.11,260.74"/>
<path class="st0" d="M311.91,224c0,10.88,0,21.76,0,32.64c0,1.24-0.4,1.61-1.71,1.68c-4.16,0.23-8.32,0.58-12.48,0.68
	c-3.26,0.08-6.54-0.09-9.8-0.22c-2.32-0.09-4.63-0.32-6.95-0.47c-1.21-0.08-1.65-0.49-1.65-1.63c-0.01-1.83,0-3.67,0-5.42l0.03-8.07
	v-34.94c10.82-0.35,21.63-0.52,32.51,0.01v5.6c0.03,0.06,0.06,0.14,0.06,0.22v9.17h0V224z M307.3,262.69
	c-2.27,0.3-4.57,0.53-6.86,0.54c-4.57,0.01-9.14-0.14-13.71-0.25c-0.82-0.02-1.64-0.23-2.46-0.28c-1.29-0.07-1.78-0.91-2.27-1.95
	c9.23,0.89,18.37,0.94,27.54,0.01C308.9,262.57,309.22,262.43,307.3,262.69 M281.19,204.31c1.11-1.28,1.95-2.66,2.15-4.34
	c0.02-0.15,0.35-0.39,0.54-0.4c5.19-0.13,10.38-0.29,15.56-0.32c2.87-0.02,5.73,0.19,8.6,0.3c0.21,0.01,0.42,0.03,0.56,0.04
	c0.33,1.09,0.56,2.16,0.98,3.16c0.41,1,1,1.93,1.48,2.84h-30.87C280.53,205.15,280.84,204.72,281.19,204.31 M314.84,203.89
	c-0.51-0.89-0.98-1.82-1.39-2.76c-0.33-0.75-0.52-1.51-0.26-2.37c0.38-1.25-0.56-2.55-1.91-2.79c-0.58-0.11-1.18-0.12-1.77-0.16
	c-8.36-0.59-16.71-0.6-25.08-0.2c-1.27,0.06-2.56,0.15-3.82,0.35c-1.7,0.28-2.53,1.75-1.82,3.22c0.28,0.58,0.19,1.02-0.1,1.49
	c-0.22,0.36-0.47,0.72-0.76,1.04c-1.94,2.13-2.87,4.59-2.87,7.39c0.01,7.82,0,15.64,0,23.46c0,8.02,0,16.04,0,24.06
	c0,1.96,0.74,3.55,2.48,4.76c0.74,0.52,1.52,1.14,1.93,1.89c0.57,1.02,1.28,1.78,2.43,2.07c1.44,0.35,2.9,0.7,4.37,0.82
	c6.41,0.54,12.82,0.49,19.24,0c1.67-0.13,3.34-0.36,4.89-1.06c0.81-0.37,1.27-0.97,1.68-1.71c0.42-0.76,0.97-1.54,1.68-2.07
	c1.51-1.14,2.38-2.51,2.38-4.32c0.01-16.06,0.01-32.13,0-48.19C316.15,207.07,315.73,205.43,314.84,203.89"/>
<path class="st0" d="M282,260.74c9.22,0.89,18.37,0.94,27.54,0.01c-0.64,1.82-0.33,1.68-2.24,1.93c-2.27,0.31-4.57,0.53-6.86,0.54
	c-4.57,0.01-9.14-0.14-13.71-0.25c-0.83-0.02-1.64-0.23-2.47-0.28C282.98,262.62,282.49,261.78,282,260.74"/>
<path class="st0" d="M124.35,301.2c0,10.88,0,21.76,0,32.64c0,1.24-0.4,1.61-1.71,1.68c-4.16,0.23-8.32,0.58-12.48,0.68
	c-3.26,0.09-6.54-0.08-9.8-0.22c-2.32-0.09-4.63-0.32-6.95-0.47c-1.21-0.08-1.65-0.49-1.65-1.63c-0.01-1.83,0-3.67,0-5.42l0.02-8.07
	v-34.94c10.82-0.35,21.63-0.52,32.51,0.01v5.6c0.03,0.06,0.06,0.14,0.06,0.22v9.17h0V301.2z M119.73,339.88
	c-2.27,0.3-4.57,0.53-6.86,0.54c-4.57,0.01-9.14-0.14-13.71-0.25c-0.82-0.02-1.64-0.24-2.46-0.28c-1.29-0.07-1.78-0.91-2.27-1.95
	c9.23,0.89,18.37,0.94,27.54,0.01C121.34,339.76,121.65,339.62,119.73,339.88 M93.62,281.51c1.11-1.28,1.95-2.66,2.15-4.34
	c0.02-0.15,0.35-0.39,0.54-0.4c5.19-0.13,10.38-0.29,15.56-0.32c2.87-0.02,5.73,0.19,8.6,0.3c0.21,0.01,0.42,0.03,0.56,0.04
	c0.33,1.09,0.56,2.16,0.98,3.16c0.41,1,1,1.93,1.48,2.84H92.62C92.97,282.35,93.27,281.91,93.62,281.51 M127.28,281.09
	c-0.51-0.89-0.98-1.82-1.39-2.76c-0.33-0.75-0.52-1.51-0.26-2.37c0.38-1.25-0.56-2.55-1.91-2.79c-0.58-0.11-1.18-0.12-1.77-0.16
	c-8.36-0.59-16.71-0.6-25.08-0.2c-1.27,0.06-2.56,0.15-3.81,0.35c-1.7,0.28-2.53,1.75-1.82,3.22c0.28,0.57,0.19,1.02-0.1,1.49
	c-0.22,0.36-0.47,0.72-0.76,1.04c-1.94,2.13-2.87,4.59-2.87,7.39c0.01,7.82,0,15.64,0,23.46c0,8.02,0,16.04,0,24.06
	c0,1.96,0.74,3.55,2.48,4.76c0.74,0.52,1.52,1.14,1.93,1.89c0.57,1.02,1.28,1.79,2.43,2.07c1.43,0.35,2.9,0.7,4.37,0.82
	c6.41,0.54,12.82,0.49,19.24,0c1.67-0.13,3.34-0.36,4.89-1.06c0.81-0.37,1.27-0.97,1.68-1.71c0.42-0.76,0.97-1.54,1.68-2.07
	c1.51-1.14,2.38-2.51,2.38-4.32c0.01-16.06,0.01-32.13,0-48.19C128.59,284.27,128.17,282.63,127.28,281.09"/>
<path class="st0" d="M94.44,337.94c9.22,0.89,18.37,0.94,27.54,0.01c-0.64,1.82-0.33,1.68-2.25,1.93c-2.27,0.31-4.57,0.53-6.86,0.54
	c-4.57,0.01-9.14-0.14-13.71-0.25c-0.83-0.02-1.64-0.23-2.47-0.28C95.41,339.82,94.92,338.98,94.44,337.94"/>
<path class="st0" d="M171.24,301.2c0,10.88,0,21.76,0,32.64c0,1.24-0.4,1.61-1.71,1.68c-4.16,0.23-8.32,0.58-12.48,0.68
	c-3.26,0.09-6.54-0.08-9.8-0.22c-2.32-0.09-4.63-0.32-6.95-0.47c-1.21-0.08-1.65-0.49-1.65-1.63c-0.01-1.83,0-3.67,0-5.42l0.03-8.07
	v-34.94c10.82-0.35,21.63-0.52,32.51,0.01v5.6c0.03,0.06,0.05,0.14,0.05,0.22v9.17h0.01V301.2z M166.63,339.88
	c-2.27,0.3-4.57,0.53-6.86,0.54c-4.57,0.01-9.14-0.14-13.71-0.25c-0.83-0.02-1.64-0.24-2.46-0.28c-1.29-0.07-1.78-0.91-2.27-1.95
	c9.22,0.89,18.37,0.94,27.54,0.01C168.23,339.76,168.55,339.62,166.63,339.88 M140.51,281.51c1.11-1.28,1.95-2.66,2.15-4.34
	c0.02-0.15,0.35-0.39,0.54-0.4c5.19-0.13,10.38-0.29,15.56-0.32c2.87-0.02,5.73,0.19,8.6,0.3c0.21,0.01,0.42,0.03,0.56,0.04
	c0.33,1.09,0.56,2.16,0.98,3.16c0.41,1,1,1.93,1.48,2.84h-30.87C139.86,282.35,140.16,281.91,140.51,281.51 M174.17,281.09
	c-0.52-0.89-0.98-1.82-1.39-2.76c-0.33-0.75-0.52-1.51-0.26-2.37c0.38-1.25-0.56-2.55-1.91-2.79c-0.58-0.11-1.18-0.12-1.77-0.16
	c-8.36-0.59-16.71-0.6-25.08-0.2c-1.27,0.06-2.56,0.15-3.82,0.35c-1.7,0.28-2.53,1.75-1.82,3.22c0.28,0.57,0.19,1.02-0.1,1.49
	c-0.22,0.36-0.47,0.72-0.76,1.04c-1.94,2.13-2.87,4.59-2.87,7.39c0.01,7.82,0,15.64,0,23.46c0,8.02,0,16.04,0,24.06
	c0,1.96,0.74,3.55,2.48,4.76c0.74,0.52,1.52,1.14,1.93,1.89c0.57,1.02,1.28,1.79,2.43,2.07c1.44,0.35,2.9,0.7,4.37,0.82
	c6.41,0.54,12.82,0.49,19.24,0c1.67-0.13,3.34-0.36,4.89-1.06c0.81-0.37,1.27-0.97,1.68-1.71c0.42-0.76,0.97-1.54,1.68-2.07
	c1.51-1.14,2.38-2.51,2.38-4.32c0.01-16.06,0.01-32.13,0-48.19C175.48,284.27,175.06,282.63,174.17,281.09"/>
<path class="st0" d="M141.33,337.94c9.22,0.89,18.37,0.94,27.54,0.01c-0.64,1.82-0.33,1.68-2.25,1.93
	c-2.27,0.31-4.57,0.53-6.86,0.54c-4.57,0.01-9.14-0.14-13.71-0.25c-0.83-0.02-1.64-0.23-2.47-0.28
	C142.3,339.82,141.81,338.98,141.33,337.94"/>
<path class="st0" d="M218.13,301.2v32.64c0,1.24-0.4,1.61-1.71,1.68c-4.16,0.23-8.32,0.58-12.48,0.68c-3.26,0.09-6.54-0.08-9.8-0.22
	c-2.32-0.09-4.63-0.32-6.95-0.47c-1.21-0.08-1.65-0.49-1.65-1.63c-0.01-1.83,0-3.67,0-5.42l0.02-8.07v-34.94
	c10.82-0.35,21.63-0.52,32.51,0.01v5.6c0.03,0.06,0.06,0.14,0.06,0.22v9.17h0V301.2z M213.52,339.88c-2.27,0.3-4.57,0.53-6.86,0.54
	c-4.57,0.01-9.14-0.14-13.71-0.25c-0.82-0.02-1.64-0.24-2.46-0.28c-1.29-0.07-1.78-0.91-2.27-1.95c9.23,0.89,18.37,0.94,27.54,0.01
	C215.12,339.76,215.44,339.62,213.52,339.88 M187.4,281.51c1.11-1.28,1.95-2.66,2.15-4.34c0.02-0.15,0.35-0.39,0.54-0.4
	c5.19-0.13,10.38-0.29,15.56-0.32c2.87-0.02,5.73,0.19,8.6,0.3c0.21,0.01,0.42,0.03,0.56,0.04c0.33,1.09,0.56,2.16,0.98,3.16
	c0.41,1,1,1.93,1.48,2.84H186.4C186.75,282.35,187.06,281.91,187.4,281.51 M221.06,281.09c-0.51-0.89-0.98-1.82-1.39-2.76
	c-0.33-0.75-0.52-1.51-0.26-2.37c0.38-1.25-0.56-2.55-1.91-2.79c-0.58-0.11-1.18-0.12-1.77-0.16c-8.36-0.59-16.71-0.6-25.08-0.2
	c-1.27,0.06-2.56,0.15-3.81,0.35c-1.7,0.28-2.53,1.75-1.82,3.22c0.28,0.57,0.19,1.02-0.1,1.49c-0.22,0.36-0.47,0.72-0.76,1.04
	c-1.94,2.13-2.87,4.59-2.87,7.39c0.01,7.82,0,15.64,0,23.46c0,8.02,0,16.04,0,24.06c0,1.96,0.74,3.55,2.48,4.76
	c0.74,0.52,1.52,1.14,1.93,1.89c0.57,1.02,1.28,1.79,2.43,2.07c1.44,0.35,2.9,0.7,4.37,0.82c6.41,0.54,12.82,0.49,19.24,0
	c1.67-0.13,3.34-0.36,4.89-1.06c0.81-0.37,1.27-0.97,1.68-1.71c0.42-0.76,0.97-1.54,1.68-2.07c1.51-1.14,2.38-2.51,2.38-4.32
	c0.01-16.06,0.01-32.13,0-48.19C222.37,284.27,221.95,282.63,221.06,281.09"/>
<path class="st0" d="M188.22,337.94c9.22,0.89,18.37,0.94,27.54,0.01c-0.64,1.82-0.32,1.68-2.24,1.93
	c-2.27,0.31-4.57,0.53-6.86,0.54c-4.57,0.01-9.14-0.14-13.71-0.25c-0.83-0.02-1.64-0.23-2.47-0.28
	C189.2,339.82,188.7,338.98,188.22,337.94"/>
<path class="st0" d="M265.02,301.2c0,10.88,0,21.76,0,32.64c0,1.24-0.4,1.61-1.71,1.68c-4.16,0.23-8.32,0.58-12.48,0.68
	c-3.26,0.09-6.54-0.08-9.8-0.22c-2.32-0.09-4.63-0.32-6.95-0.47c-1.21-0.08-1.65-0.49-1.65-1.63c-0.01-1.83,0-3.67,0-5.42l0.03-8.07
	v-34.94c10.82-0.35,21.63-0.52,32.51,0.01v5.6c0.03,0.06,0.05,0.14,0.05,0.22v9.17h0.01V301.2z M260.41,339.88
	c-2.27,0.3-4.57,0.53-6.86,0.54c-4.57,0.01-9.14-0.14-13.71-0.25c-0.83-0.02-1.64-0.24-2.47-0.28c-1.28-0.07-1.78-0.91-2.26-1.95
	c9.22,0.89,18.37,0.94,27.54,0.01C262.01,339.76,262.33,339.62,260.41,339.88 M234.3,281.51c1.11-1.28,1.95-2.66,2.15-4.34
	c0.02-0.15,0.35-0.39,0.54-0.4c5.19-0.13,10.38-0.29,15.56-0.32c2.87-0.02,5.73,0.19,8.6,0.3c0.21,0.01,0.42,0.03,0.56,0.04
	c0.33,1.09,0.56,2.16,0.98,3.16c0.41,1,1,1.93,1.48,2.84H233.3C233.64,282.35,233.94,281.91,234.3,281.51 M267.95,281.09
	c-0.52-0.89-0.98-1.82-1.39-2.76c-0.33-0.75-0.52-1.51-0.26-2.37c0.38-1.25-0.56-2.55-1.91-2.79c-0.58-0.11-1.18-0.12-1.77-0.16
	c-8.36-0.59-16.71-0.6-25.08-0.2c-1.27,0.06-2.56,0.15-3.82,0.35c-1.7,0.28-2.53,1.75-1.82,3.22c0.28,0.57,0.19,1.02-0.09,1.49
	c-0.22,0.36-0.47,0.72-0.76,1.04c-1.94,2.13-2.87,4.59-2.87,7.39c0.01,7.82,0,15.64,0,23.46c0,8.02,0,16.04,0,24.06
	c0,1.96,0.74,3.55,2.48,4.76c0.74,0.52,1.52,1.14,1.93,1.89c0.57,1.02,1.28,1.79,2.43,2.07c1.44,0.35,2.9,0.7,4.37,0.82
	c6.41,0.54,12.82,0.49,19.24,0c1.67-0.13,3.34-0.36,4.89-1.06c0.81-0.37,1.27-0.97,1.68-1.71c0.42-0.76,0.97-1.54,1.68-2.07
	c1.51-1.14,2.38-2.51,2.38-4.32c0.01-16.06,0.01-32.13,0-48.19C269.26,284.27,268.84,282.63,267.95,281.09"/>
<path class="st0" d="M235.11,337.94c9.22,0.89,18.37,0.94,27.54,0.01c-0.64,1.82-0.33,1.68-2.25,1.93
	c-2.27,0.31-4.57,0.53-6.86,0.54c-4.57,0.01-9.14-0.14-13.71-0.25c-0.83-0.02-1.64-0.23-2.47-0.28
	C236.09,339.82,235.6,338.98,235.11,337.94"/>
<path class="st0" d="M311.91,301.2c0,10.88,0,21.76,0,32.64c0,1.24-0.4,1.61-1.71,1.68c-4.16,0.23-8.32,0.58-12.48,0.68
	c-3.26,0.09-6.54-0.08-9.8-0.22c-2.32-0.09-4.63-0.32-6.95-0.47c-1.21-0.08-1.65-0.49-1.65-1.63c-0.01-1.83,0-3.67,0-5.42l0.03-8.07
	v-34.94c10.82-0.35,21.63-0.52,32.51,0.01v5.6c0.03,0.06,0.06,0.14,0.06,0.22v9.17h0V301.2z M307.3,339.88
	c-2.27,0.3-4.57,0.53-6.86,0.54c-4.57,0.01-9.14-0.14-13.71-0.25c-0.82-0.02-1.64-0.24-2.46-0.28c-1.29-0.07-1.78-0.91-2.27-1.95
	c9.23,0.89,18.37,0.94,27.54,0.01C308.9,339.76,309.22,339.62,307.3,339.88 M281.19,281.51c1.11-1.28,1.95-2.66,2.15-4.34
	c0.02-0.15,0.35-0.39,0.54-0.4c5.19-0.13,10.38-0.29,15.56-0.32c2.87-0.02,5.73,0.19,8.6,0.3c0.21,0.01,0.42,0.03,0.56,0.04
	c0.33,1.09,0.56,2.16,0.98,3.16c0.41,1,1,1.93,1.48,2.84h-30.87C280.53,282.35,280.84,281.91,281.19,281.51 M314.84,281.09
	c-0.51-0.89-0.98-1.82-1.39-2.76c-0.33-0.75-0.52-1.51-0.26-2.37c0.38-1.25-0.56-2.55-1.91-2.79c-0.58-0.11-1.18-0.12-1.77-0.16
	c-8.36-0.59-16.71-0.6-25.08-0.2c-1.27,0.06-2.56,0.15-3.82,0.35c-1.7,0.28-2.53,1.75-1.82,3.22c0.28,0.57,0.19,1.02-0.1,1.49
	c-0.22,0.36-0.47,0.72-0.76,1.04c-1.94,2.13-2.87,4.59-2.87,7.39c0.01,7.82,0,15.64,0,23.46c0,8.02,0,16.04,0,24.06
	c0,1.96,0.74,3.55,2.48,4.76c0.74,0.52,1.52,1.14,1.93,1.89c0.57,1.02,1.28,1.79,2.43,2.07c1.44,0.35,2.9,0.7,4.37,0.82
	c6.41,0.54,12.82,0.49,19.24,0c1.67-0.13,3.34-0.36,4.89-1.06c0.81-0.37,1.27-0.97,1.68-1.71c0.42-0.76,0.97-1.54,1.68-2.07
	c1.51-1.14,2.38-2.51,2.38-4.32c0.01-16.06,0.01-32.13,0-48.19C316.15,284.27,315.73,282.63,314.84,281.09"/>
<path class="st0" d="M282,337.94c9.22,0.89,18.37,0.94,27.54,0.01c-0.64,1.82-0.33,1.68-2.24,1.93c-2.27,0.31-4.57,0.53-6.86,0.54
	c-4.57,0.01-9.14-0.14-13.71-0.25c-0.83-0.02-1.64-0.23-2.47-0.28C282.98,339.82,282.49,338.98,282,337.94"/>
<path class="st1" d="M315.14,111.72H88.84c-3.38,0-6.12-2.56-6.12-5.72c0-3.16,2.74-5.72,6.12-5.72h226.3
	c3.38,0,6.12,2.56,6.12,5.72C321.25,109.16,318.52,111.72,315.14,111.72"/>
<path class="st1" d="M315.14,359.52H88.84c-3.38,0-6.12-2.56-6.12-5.72c0-3.16,2.74-5.72,6.12-5.72h226.3
	c3.38,0,6.12,2.56,6.12,5.72C321.25,356.96,318.52,359.52,315.14,359.52"/>
<g>
	<circle class="st2" cx="307.26" cy="113.74" r="41.39"/>
	<g>
		<path class="st3" d="M327.02,107.81c-2.55-8.51-10.43-14.71-19.76-14.71c-9.34,0-17.22,6.2-19.76,14.71"/>
		<path class="st3" d="M287.49,119.67c2.55,8.51,10.43,14.71,19.76,14.71c9.34,0,17.22-6.2,19.76-14.71"/>
		<polyline class="st4" points="295.68,105.19 287.49,107.81 284.87,99.63 		"/>
		<polyline class="st4" points="318.84,122.29 327.02,119.67 329.65,127.85 		"/>
	</g>
</g>
</svg>
