<?xml version="1.0" encoding="utf-8"?>
<!-- Generator: Adobe Illustrator 27.6.1, SVG Export Plug-In . SVG Version: 6.00 Build 0)  -->
<svg version="1.1" id="Layer_1" xmlns="http://www.w3.org/2000/svg" xmlns:xlink="http://www.w3.org/1999/xlink" x="0px" y="0px"
	 viewBox="0 0 432 432" style="enable-background:new 0 0 432 432;" xml:space="preserve">
<style type="text/css">
	.st0{fill:#383738;stroke:#FCFDF6;stroke-width:3.2737;stroke-miterlimit:10;}
	.st1{fill:none;stroke:#FCFDF6;stroke-width:3.2737;stroke-miterlimit:10;}
	.st2{fill:none;stroke:#FCFDF6;stroke-width:3.2737;stroke-linecap:round;stroke-miterlimit:10;}
	.st3{fill:#383738;stroke:#FCFDF6;stroke-width:3.2737;stroke-linecap:round;stroke-miterlimit:10;}
	.st4{fill:#231F20;stroke:#FCFDF6;stroke-width:3.2737;stroke-miterlimit:10;}
	.st5{fill:#FCC962;stroke:#FCFDF6;stroke-width:4.4264;stroke-linecap:round;stroke-linejoin:round;stroke-miterlimit:10;}
	.st6{fill:none;stroke:#221E20;stroke-width:4.4264;stroke-linecap:round;stroke-linejoin:round;stroke-miterlimit:10;}
	.st7{fill:none;stroke:#221E20;stroke-width:4.492;stroke-linecap:round;stroke-linejoin:round;stroke-miterlimit:10;}
	.st8{fill:none;stroke:#221E20;stroke-width:4.5234;stroke-linecap:round;stroke-linejoin:round;stroke-miterlimit:10;}
	.st9{clip-path:url(#SVGID_00000150089328276826199490000000911634307732611201_);}
	.st10{fill:none;stroke:#221E20;stroke-width:3.9528;stroke-linecap:round;stroke-linejoin:round;stroke-miterlimit:10;}
	.st11{fill:none;stroke:#383738;stroke-width:4.4264;stroke-linecap:round;stroke-linejoin:round;stroke-miterlimit:10;}
</style>
<g>
	<g>
		<g>
			<g>
				
					<ellipse transform="matrix(0.9981 -0.0617 0.0617 0.9981 -11.8134 7.4014)" class="st0" cx="113.84" cy="194.83" rx="48.05" ry="24.32"/>
				<path class="st1" d="M124.26,198.64c-4.09,2.9-12.11,1.8-20.48-0.54c-8.14-2.28-9.92-5.82-5.83-8.72s11.58-3.41,18.39-0.19
					C123.33,192.48,128.35,195.74,124.26,198.64z"/>
				<path class="st0" d="M136.5,177.6"/>
				<path class="st2" d="M150.66,184c-7.62-5.52-22.54-8.47-39.2-7.02c-16.03,1.4-29.49,6.51-35.93,12.88
					c-2.93,2.89-4.41,6.05-4.01,9.23"/>
				<path class="st3" d="M114.64,206.02c-0.62-0.01-2.25,3.64,2.17,4.83c6.83,1.84,15.82-0.16,21.83-4.37
					c6.21-4.35,6.73-9.66,2.41-11.92c-3.29-1.72-5.8-1.12-8.67-0.17"/>
			</g>
			<path class="st2" d="M67.59,206.35c2.76,11.99,23.96,20.11,49.1,18.38c20.72-1.43,37.88-9.13,43.96-18.65"/>
		</g>
		
			<ellipse transform="matrix(0.9864 -0.1647 0.1647 0.9864 -30.1316 20.0314)" class="st4" cx="105.76" cy="191.77" rx="5.56" ry="1.97"/>
	</g>
	<g>
		<g>
			<g>
				
					<ellipse transform="matrix(0.9981 -0.0617 0.0617 0.9981 -11.3699 7.3508)" class="st0" cx="113.24" cy="187.63" rx="48.05" ry="24.32"/>
				<path class="st1" d="M123.67,191.44c-4.09,2.9-12.11,1.8-20.48-0.54c-8.14-2.28-9.92-5.82-5.83-8.72s11.58-3.41,18.39-0.19
					C122.73,185.28,127.76,188.54,123.67,191.44z"/>
				<path class="st0" d="M135.9,170.39"/>
				<path class="st2" d="M150.06,176.8c-7.62-5.52-22.54-8.47-39.2-7.02c-16.03,1.4-29.49,6.51-35.93,12.88
					c-2.93,2.89-4.41,6.05-4.01,9.23"/>
				<path class="st3" d="M114.04,198.81c-0.62-0.01-2.25,3.64,2.17,4.83c6.83,1.84,15.82-0.16,21.83-4.37
					c6.21-4.35,6.73-9.66,2.41-11.92c-3.29-1.72-5.8-1.12-8.67-0.17"/>
			</g>
			<path class="st2" d="M66.99,199.15c2.76,11.99,23.96,20.11,49.1,18.38c20.72-1.43,37.88-9.13,43.96-18.65"/>
		</g>
		
			<ellipse transform="matrix(0.9864 -0.1647 0.1647 0.9864 -28.9541 19.8348)" class="st4" cx="105.17" cy="184.57" rx="5.56" ry="1.97"/>
	</g>
	<g>
		<g>
			<g>
				
					<ellipse transform="matrix(0.9981 -0.0617 0.0617 0.9981 -10.9263 7.3002)" class="st0" cx="112.65" cy="180.43" rx="48.05" ry="24.32"/>
				<path class="st1" d="M123.07,184.24c-4.09,2.9-12.11,1.8-20.48-0.54c-8.14-2.28-9.92-5.82-5.83-8.72s11.58-3.41,18.39-0.19
					C122.13,178.08,127.16,181.34,123.07,184.24z"/>
				<path class="st0" d="M135.3,163.19"/>
				<path class="st2" d="M149.47,169.6c-7.62-5.52-22.54-8.47-39.2-7.02c-16.03,1.4-29.49,6.51-35.93,12.88
					c-2.93,2.89-4.41,6.05-4.01,9.23"/>
				<path class="st3" d="M113.44,191.61c-0.62-0.01-2.25,3.64,2.17,4.83c6.83,1.84,15.82-0.16,21.83-4.37
					c6.21-4.35,6.73-9.66,2.41-11.92c-3.29-1.72-5.8-1.12-8.67-0.17"/>
			</g>
			<path class="st2" d="M66.39,191.95c2.76,11.99,23.96,20.11,49.1,18.38c20.72-1.43,37.88-9.13,43.96-18.65"/>
		</g>
		
			<ellipse transform="matrix(0.9864 -0.1647 0.1647 0.9864 -27.7766 19.6383)" class="st4" cx="104.57" cy="177.37" rx="5.56" ry="1.97"/>
	</g>
	<g>
		<g>
			<g>
				
					<ellipse transform="matrix(0.9981 -0.0617 0.0617 0.9981 -10.4828 7.2496)" class="st0" cx="112.05" cy="173.23" rx="48.05" ry="24.32"/>
				<path class="st1" d="M122.47,177.04c-4.09,2.9-12.11,1.8-20.48-0.54c-8.14-2.28-9.92-5.82-5.83-8.72s11.58-3.41,18.39-0.19
					C121.54,170.88,126.56,174.14,122.47,177.04z"/>
				<path class="st0" d="M134.71,155.99"/>
				<path class="st2" d="M148.87,162.4c-7.62-5.52-22.54-8.47-39.2-7.02c-16.03,1.4-29.49,6.51-35.93,12.88
					c-2.93,2.89-4.41,6.05-4.01,9.23"/>
				<path class="st3" d="M112.85,184.41c-0.62-0.01-2.25,3.64,2.17,4.83c6.83,1.84,15.82-0.16,21.83-4.37
					c6.21-4.35,6.73-9.66,2.41-11.92c-3.29-1.72-5.8-1.12-8.67-0.17"/>
			</g>
			<path class="st2" d="M65.8,184.75c2.76,11.99,23.96,20.11,49.1,18.38c20.72-1.43,37.88-9.13,43.96-18.65"/>
		</g>
		
			<ellipse transform="matrix(0.9864 -0.1647 0.1647 0.9864 -26.5991 19.4417)" class="st4" cx="103.97" cy="170.17" rx="5.56" ry="1.97"/>
	</g>
	<g>
		<g>
			<g>
				
					<ellipse transform="matrix(0.9981 -0.0617 0.0617 0.9981 -10.0393 7.199)" class="st0" cx="111.45" cy="166.03" rx="48.05" ry="24.32"/>
				<path class="st1" d="M121.88,169.84c-4.09,2.9-12.11,1.8-20.48-0.54c-8.14-2.28-9.92-5.82-5.83-8.72s11.58-3.41,18.39-0.19
					C120.94,163.68,125.97,166.94,121.88,169.84z"/>
				<path class="st0" d="M134.11,148.79"/>
				<path class="st2" d="M148.27,155.2c-7.62-5.52-22.54-8.47-39.2-7.02c-16.03,1.4-29.49,6.51-35.93,12.88
					c-2.93,2.89-4.41,6.05-4.01,9.23"/>
				<path class="st3" d="M112.25,177.21c-0.62-0.01-2.25,3.64,2.17,4.83c6.83,1.84,15.82-0.16,21.83-4.37
					c6.21-4.35,6.73-9.66,2.41-11.92c-3.29-1.72-5.8-1.12-8.67-0.17"/>
			</g>
			<path class="st2" d="M65.2,177.55c2.76,11.99,23.96,20.11,49.1,18.38c20.72-1.43,37.88-9.13,43.96-18.65"/>
		</g>
		
			<ellipse transform="matrix(0.9864 -0.1647 0.1647 0.9864 -25.4216 19.2451)" class="st4" cx="103.38" cy="162.96" rx="5.56" ry="1.97"/>
	</g>
	<g>
		<g>
			<g>
				
					<ellipse transform="matrix(0.9981 -0.0617 0.0617 0.9981 -9.5958 7.1484)" class="st0" cx="110.86" cy="158.83" rx="48.05" ry="24.32"/>
				<path class="st1" d="M121.28,162.63c-4.09,2.9-12.11,1.8-20.48-0.54c-8.14-2.28-9.92-5.82-5.83-8.72s11.58-3.41,18.39-0.19
					C120.34,156.48,125.37,159.74,121.28,162.63z"/>
				<path class="st0" d="M133.51,141.59"/>
				<path class="st2" d="M147.68,148c-7.62-5.52-22.54-8.47-39.2-7.02c-16.03,1.4-29.49,6.51-35.93,12.88
					c-2.93,2.89-4.41,6.05-4.01,9.23"/>
				<path class="st3" d="M111.65,170.01c-0.62-0.01-2.25,3.64,2.17,4.83c6.83,1.84,15.82-0.16,21.83-4.37
					c6.21-4.35,6.73-9.66,2.41-11.92c-3.29-1.72-5.8-1.12-8.67-0.17"/>
			</g>
			<path class="st2" d="M64.6,170.35c2.76,11.99,23.96,20.11,49.1,18.38c20.72-1.43,37.88-9.13,43.96-18.65"/>
		</g>
		
			<ellipse transform="matrix(0.9864 -0.1647 0.1647 0.9864 -24.244 19.0486)" class="st4" cx="102.78" cy="155.76" rx="5.56" ry="1.97"/>
	</g>
	<g>
		<g>
			<g>
				
					<ellipse transform="matrix(0.9981 -0.0617 0.0617 0.9981 -9.1523 7.0978)" class="st0" cx="110.26" cy="151.63" rx="48.05" ry="24.32"/>
				<path class="st1" d="M120.68,155.43c-4.09,2.9-12.11,1.8-20.48-0.54c-8.14-2.28-9.92-5.82-5.83-8.72s11.58-3.41,18.39-0.19
					C119.75,149.28,124.77,152.54,120.68,155.43z"/>
				<path class="st0" d="M132.92,134.39"/>
				<path class="st2" d="M147.08,140.79c-7.62-5.52-22.54-8.47-39.2-7.02c-16.03,1.4-29.49,6.51-35.93,12.88
					c-2.93,2.89-4.41,6.05-4.01,9.23"/>
				<path class="st3" d="M111.06,162.81c-0.62-0.01-2.25,3.64,2.17,4.83c6.83,1.84,15.82-0.16,21.83-4.37
					c6.21-4.35,6.73-9.66,2.41-11.92c-3.29-1.72-5.8-1.12-8.67-0.17"/>
			</g>
			<path class="st2" d="M64,163.14c2.76,11.99,23.96,20.11,49.1,18.38c20.72-1.43,37.88-9.13,43.96-18.65"/>
		</g>
		
			<ellipse transform="matrix(0.9864 -0.1647 0.1647 0.9864 -23.0665 18.852)" class="st4" cx="102.18" cy="148.56" rx="5.56" ry="1.97"/>
	</g>
	<g>
		<g>
			<g>
				
					<ellipse transform="matrix(0.9981 -0.0617 0.0617 0.9981 -8.7088 7.0472)" class="st0" cx="109.66" cy="144.42" rx="48.05" ry="24.32"/>
				<path class="st1" d="M120.09,148.23c-4.09,2.9-12.11,1.8-20.48-0.54c-8.14-2.28-9.92-5.82-5.83-8.72s11.58-3.41,18.39-0.19
					C119.15,142.08,124.18,145.33,120.09,148.23z"/>
				<path class="st0" d="M132.32,127.19"/>
				<path class="st2" d="M146.48,133.59c-7.62-5.52-22.54-8.47-39.2-7.02c-16.03,1.4-29.49,6.51-35.93,12.88
					c-2.93,2.89-4.41,6.05-4.01,9.23"/>
				<path class="st3" d="M110.46,155.61c-0.62-0.01-2.25,3.64,2.17,4.83c6.83,1.84,15.82-0.16,21.83-4.37
					c6.21-4.35,6.73-9.66,2.41-11.92c-3.29-1.72-5.8-1.12-8.67-0.17"/>
			</g>
			<path class="st2" d="M63.41,155.94c2.76,11.99,23.96,20.11,49.1,18.38c20.72-1.43,37.88-9.13,43.96-18.65"/>
		</g>
		
			<ellipse transform="matrix(0.9864 -0.1647 0.1647 0.9864 -21.889 18.6554)" class="st4" cx="101.58" cy="141.36" rx="5.56" ry="1.97"/>
	</g>
	<g>
		<g>
			<g>
				
					<ellipse transform="matrix(0.9981 -0.0617 0.0617 0.9981 -8.2652 6.9966)" class="st0" cx="109.07" cy="137.22" rx="48.05" ry="24.32"/>
				<path class="st1" d="M119.49,141.03c-4.09,2.9-12.11,1.8-20.48-0.54c-8.14-2.28-9.92-5.82-5.83-8.72s11.58-3.41,18.39-0.19
					C118.55,134.87,123.58,138.13,119.49,141.03z"/>
				<path class="st0" d="M131.72,119.99"/>
				<path class="st2" d="M145.88,126.39c-7.62-5.52-22.54-8.47-39.2-7.02c-16.03,1.4-29.49,6.51-35.93,12.88
					c-2.93,2.89-4.41,6.05-4.01,9.23"/>
				<path class="st3" d="M109.86,148.41c-0.62-0.01-2.25,3.64,2.17,4.83c6.83,1.84,15.82-0.16,21.83-4.37
					c6.21-4.35,6.73-9.66,2.41-11.92c-3.29-1.72-5.8-1.12-8.67-0.17"/>
			</g>
			<path class="st2" d="M62.81,148.74c2.76,11.99,23.96,20.11,49.1,18.38c20.72-1.43,37.88-9.13,43.96-18.65"/>
		</g>
		
			<ellipse transform="matrix(0.9864 -0.1647 0.1647 0.9864 -20.7115 18.4589)" class="st4" cx="100.99" cy="134.16" rx="5.56" ry="1.97"/>
	</g>
	<g>
		<g>
			<g>
				
					<ellipse transform="matrix(0.9981 -0.0617 0.0617 0.9981 -7.8217 6.946)" class="st0" cx="108.47" cy="130.02" rx="48.05" ry="24.32"/>
				<path class="st1" d="M118.89,133.83c-4.09,2.9-12.11,1.8-20.48-0.54c-8.14-2.28-9.92-5.82-5.83-8.72s11.58-3.41,18.39-0.19
					C117.95,127.67,122.98,130.93,118.89,133.83z"/>
				<path class="st0" d="M131.12,112.79"/>
				<path class="st2" d="M145.29,119.19c-7.62-5.52-22.54-8.47-39.2-7.02c-16.03,1.4-29.49,6.51-35.93,12.88
					c-2.93,2.89-4.41,6.05-4.01,9.23"/>
				<path class="st3" d="M109.27,141.21c-0.62-0.01-2.25,3.64,2.17,4.83c6.83,1.84,15.82-0.16,21.83-4.37
					c6.21-4.35,6.73-9.66,2.41-11.92c-3.29-1.72-5.8-1.12-8.67-0.17"/>
			</g>
			<path class="st2" d="M62.21,141.54c2.76,11.99,23.96,20.11,49.1,18.38c20.72-1.43,37.88-9.13,43.96-18.65"/>
		</g>
		
			<ellipse transform="matrix(0.9864 -0.1647 0.1647 0.9864 -19.534 18.2623)" class="st4" cx="100.39" cy="126.96" rx="5.56" ry="1.97"/>
	</g>
	<g>
		<g>
			<g>
				
					<ellipse transform="matrix(0.9981 -0.0617 0.0617 0.9981 -7.3782 6.8954)" class="st0" cx="107.87" cy="122.82" rx="48.05" ry="24.32"/>
				<path class="st1" d="M118.3,126.63c-4.09,2.9-12.11,1.8-20.48-0.54c-8.14-2.28-9.92-5.82-5.83-8.72
					c4.09-2.9,11.58-3.41,18.39-0.19C117.36,120.47,122.39,123.73,118.3,126.63z"/>
				<path class="st0" d="M130.53,105.59"/>
				<path class="st2" d="M144.69,111.99c-7.62-5.52-22.54-8.47-39.2-7.02c-16.03,1.4-29.49,6.51-35.93,12.88
					c-2.93,2.89-4.41,6.05-4.01,9.23"/>
				<path class="st3" d="M108.67,134c-0.62-0.01-2.25,3.64,2.17,4.83c6.83,1.84,15.82-0.16,21.83-4.37
					c6.21-4.35,6.73-9.66,2.41-11.92c-3.29-1.72-5.8-1.12-8.67-0.17"/>
			</g>
			<path class="st2" d="M61.62,134.34c2.76,11.99,23.96,20.11,49.1,18.38c20.72-1.43,37.88-9.13,43.96-18.65"/>
		</g>
		
			<ellipse transform="matrix(0.9864 -0.1647 0.1647 0.9864 -18.3565 18.0658)" class="st4" cx="99.79" cy="119.76" rx="5.56" ry="1.97"/>
	</g>
	<g>
		<g>
			<g>
				
					<ellipse transform="matrix(0.9981 -0.0617 0.0617 0.9981 -6.9347 6.8448)" class="st0" cx="107.28" cy="115.62" rx="48.05" ry="24.32"/>
				<path class="st1" d="M117.7,119.43c-4.09,2.9-12.11,1.8-20.48-0.54c-8.14-2.28-9.92-5.82-5.83-8.72
					c4.09-2.9,11.58-3.41,18.39-0.19C116.76,113.27,121.79,116.53,117.7,119.43z"/>
				<path class="st0" d="M129.93,98.38"/>
				<path class="st2" d="M144.09,104.79c-7.62-5.52-22.54-8.47-39.2-7.02c-16.03,1.4-29.49,6.51-35.93,12.88
					c-2.93,2.89-4.41,6.05-4.01,9.23"/>
				<path class="st3" d="M108.07,126.8c-0.62-0.01-2.25,3.64,2.17,4.83c6.83,1.84,15.82-0.16,21.83-4.37
					c6.21-4.35,6.73-9.66,2.41-11.92c-3.29-1.72-5.8-1.12-8.67-0.17"/>
			</g>
			<path class="st2" d="M61.02,127.14c2.76,11.99,23.96,20.11,49.1,18.38c20.72-1.43,37.88-9.13,43.96-18.65"/>
		</g>
		
			<ellipse transform="matrix(0.9864 -0.1647 0.1647 0.9864 -17.1789 17.8692)" class="st4" cx="99.2" cy="112.56" rx="5.56" ry="1.97"/>
	</g>
	<g>
		<g>
			<g>
				
					<ellipse transform="matrix(0.9981 -0.0617 0.0617 0.9981 -6.4912 6.7942)" class="st0" cx="106.68" cy="108.42" rx="48.05" ry="24.32"/>
				<path class="st1" d="M117.1,112.23c-4.09,2.9-12.11,1.8-20.48-0.54c-8.14-2.28-9.92-5.82-5.83-8.72
					c4.09-2.9,11.58-3.41,18.39-0.19C116.16,106.07,121.19,109.33,117.1,112.23z"/>
				<path class="st0" d="M129.33,91.18"/>
				<path class="st2" d="M143.5,97.59c-7.62-5.52-22.54-8.47-39.2-7.02c-16.03,1.4-29.49,6.51-35.93,12.88
					c-2.93,2.89-4.41,6.05-4.01,9.23"/>
				<path class="st3" d="M107.47,119.6c-0.62-0.01-2.25,3.64,2.17,4.83c6.83,1.84,15.82-0.16,21.83-4.37
					c6.21-4.35,6.73-9.66,2.41-11.92c-3.29-1.72-5.8-1.12-8.67-0.17"/>
			</g>
			<path class="st2" d="M60.42,119.94c2.76,11.99,23.96,20.11,49.1,18.38c20.72-1.43,37.88-9.13,43.96-18.65"/>
		</g>
		
			<ellipse transform="matrix(0.9864 -0.1647 0.1647 0.9864 -16.0014 17.6726)" class="st4" cx="98.6" cy="105.36" rx="5.56" ry="1.97"/>
	</g>
</g>
<g>
	<path class="st5" d="M206.65,295.89c0,0-55.19,30.64-87.21-6.23c-1.12-1.29-1.79-2.89-2.03-4.58
		c-4.05-28.2-10.15-60.71-10.15-60.71s0.7-4.56,1.93-6.49s0.7-7.71,0.7-7.71s4.21-13.85,27.87-21.04c4.21,0.88,5.08,1.14,5.08,1.14
		s10.43-3.59,23.05-4.03l2.98-3.16h7.19l-1.14-21.12c0,0,0.7-15.6,21.21-25.07c2.98,1.05,5.08,2.1,5.08,2.1s8.06-2.98,19.81-2.1
		c1.75-2.45,2.45-3.68,2.45-3.68s21.39-0.35,32.96,8.77c1.75,3.68,2.63,7.19,2.63,7.19s6.14,1.75,8.59,7.71
		c2.45,5.96-0.35,11.39,1.75,11.92s8.94,4.38,11.92,1.58c2.98-2.8,8.24-6.14,11.39-6.49c3.33,1.23,4.91,1.58,4.91,1.58
		s11.39-3.51,19.81-3.33l1.75-2.28c0,0,19.98-3.33,37.16,6.66c4.73,8.94,0.7,4.38,4.03,7.19c3.33,2.8,6.84,6.66,11.22,6.84
		c3.51,2.28,2.98,5.79,3.68,8.06c0.7,2.28-4.21,59.78-4.21,59.78s-8.41,17.53-31.38,20.51l-3.51,41.37c0,0-3.33,35.94-55.4,36.64
		c-52.07,0.7-59.43-37.34-59.43-37.34l-0.18-9.47C221.2,300.1,217.87,295.36,206.65,295.89z"/>
	<path class="st6" d="M341.63,245.58c-0.7-5.26-2.63-8.59-2.63-8.59s0,0-4.56-1.4c-2.1-4.91-11.57-11.39-11.57-11.39s0,0-0.7-5.26
		c-21.91-12.97-46.98-10.87-46.98-10.87s0,0-1.93,3.68c-11.22-0.53-23.67,3.86-23.67,3.86s-1.05-0.35-6.31-1.75
		c-8.77,2.28-15.25,10.52-15.25,10.52l-8.41-2.98c0,0,0.53-1.93,0-7.19c-0.53-5.26-2.45-7.01-2.45-7.01l-5.61-1.58
		c-2.28-3.16-7.01-10.17-7.01-10.17s0,0,2.63-3.68c-5.96-5.61-22.09-7.8-22.09-7.8"/>
	<path class="st6" d="M186.4,167l-2.76,2.89c0,0,7.76,8.94,37.73,12.36c2.37-3.68,2.37-3.68,2.37-3.68s10.91,1.18,20.77-3.16
		c6.31,2.1,6.57,3.02,6.57,3.02s8.02-3.81,11.44-7.63"/>
	<path class="st6" d="M275.15,176.59l0.92,4.73l4.73,0.92c0,0,3.16,7.49,9.07,10.26c-3.16,2.76-3.16,2.76-3.16,2.76
		s21.56,10.91,44.57,11.04c2.1-3.55,2.1-3.55,2.1-3.55s9.47,0.39,21.43-3.16c6.84,1.05,6.18,1.31,6.18,1.31s6.31-3.02,9.47-6.44"/>
	<path class="st7" d="M121.98,230.69l-2.51,3.18c0,0,8.91,8.02,39.97,8.07c2.02-3.92,2.02-3.92,2.02-3.92s11.3-0.04,20.93-5.46
		c6.69,1.39,7.06,2.27,7.06,2.27s7.8-4.69,10.88-8.86"/>
	<path class="st8" d="M226.51,249.95l1.38,4.63l5.01,0.47c0,0,3.95,7.17,10.36,9.36c-3.03,3.05-3.03,3.05-3.03,3.05
		s23.41,8.85,47.35,6.82c1.87-3.73,1.87-3.73,1.87-3.73s9.88-0.49,22.01-5.15c7.21,0.41,6.55,0.73,6.55,0.73s6.29-3.6,9.27-7.3"/>
	<g>
		<defs>
			<polygon id="SVGID_1_" points="325.11,213.15 333.53,201.71 365.21,200.26 361,255.35 358.21,266.79 339.71,268.89 
				341.63,240.06 333.66,232.36 325.11,221.82 			"/>
		</defs>
		<clipPath id="SVGID_00000022526306880038966690000008093715681999935891_">
			<use xlink:href="#SVGID_1_"  style="overflow:visible;"/>
		</clipPath>
		<g style="clip-path:url(#SVGID_00000022526306880038966690000008093715681999935891_);">
			<path class="st10" d="M338.15,212.22c0,0-0.31,1.18,1.15,1.45c1.47,0.26,17.19-1.84,21.7-5v-2.37"/>
			<path class="st10" d="M337.03,224.67c0,0-0.31,1.18,1.15,1.45c1.47,0.26,17.19-1.84,21.7-5v-2.37"/>
			<path class="st10" d="M335.92,237.12c0,0-0.31,1.18,1.15,1.45c1.47,0.26,17.19-1.84,21.7-5v-2.37"/>
			<path class="st10" d="M334.8,249.57c0,0-0.31,1.18,1.15,1.45c1.47,0.26,17.19-1.84,21.7-5v-2.37"/>
			<path class="st10" d="M333.69,262.02c0,0-0.31,1.18,1.15,1.45c1.47,0.26,17.19-1.84,21.7-5v-2.37"/>
		</g>
	</g>
	<g>
		<g>
			<path class="st6" d="M290.76,280.3c0,0-0.31,1.21,1.54,1.35c1.85,0.14,21.39-3.29,26.82-6.82l-0.16-2.36"/>
			<path class="st6" d="M290.21,293.96c0,0-0.31,1.21,1.54,1.35c1.85,0.14,21.39-3.29,26.82-6.82l-0.16-2.36"/>
			<path class="st6" d="M289.65,307.62c0,0-0.31,1.21,1.54,1.35c1.85,0.14,21.39-3.29,26.82-6.82l-0.16-2.36"/>
			<path class="st6" d="M289.1,321.28c0,0-0.31,1.21,1.54,1.35c1.85,0.14,21.39-3.29,26.82-6.82l-0.16-2.36"/>
			<path class="st6" d="M288.54,334.94c0,0-0.31,1.21,1.54,1.35c1.85,0.14,21.39-3.29,26.82-6.82l-0.16-2.36"/>
		</g>
	</g>
	<g>
		<g>
			<path class="st6" d="M163.59,247.11c0,0-0.31,1.21,1.54,1.35c1.85,0.14,21.39-3.29,26.82-6.82l-0.16-2.36"/>
		</g>
		<g>
			<path class="st6" d="M165.01,260.17c0,0-0.31,1.21,1.54,1.35c1.85,0.14,21.39-3.29,26.82-6.82l-0.16-2.36"/>
		</g>
		<g>
			<path class="st6" d="M166.43,273.22c0,0-0.31,1.21,1.54,1.35c1.85,0.14,21.39-3.29,26.82-6.82l-0.16-2.36"/>
		</g>
		<g>
			<path class="st6" d="M167.86,286.28c0,0-0.31,1.21,1.54,1.35c1.85,0.14,21.39-3.29,26.82-6.82l-0.16-2.36"/>
		</g>
		<g>
			<path class="st6" d="M169.28,299.33c0,0-0.31,1.21,1.54,1.35c1.85,0.14,21.39-3.29,26.82-6.82l-0.16-2.36"/>
		</g>
	</g>
	
		<ellipse transform="matrix(0.9941 -0.1084 0.1084 0.9941 -21.7002 18.9488)" class="st11" cx="163.38" cy="209" rx="36.64" ry="15.92"/>
	
		<ellipse transform="matrix(0.0363 -0.9993 0.9993 0.0363 33.5733 510.3535)" class="st11" cx="281.4" cy="237.77" rx="19.61" ry="40.83"/>
	
		<ellipse transform="matrix(0.0916 -0.9958 0.9958 0.0916 117.2998 486.1387)" class="st11" cx="325.11" cy="178.78" rx="13.58" ry="32.65"/>
	
		<ellipse transform="matrix(0.0363 -0.9993 0.9993 0.0363 60.5061 368.9234)" class="st11" cx="221.53" cy="153.09" rx="13.58" ry="31.1"/>
	<path class="st6" d="M221.53,196.67c0,0,18.13,13.06,41.83,12.34c22.7-3.92,14.64-6.15,14.64-6.15s-2.45,3.11-6.31-2.59
		c-3.86-5.7-14.37-8.81-14.37-8.81s-2.8,3.11-11.57,4.51c-8.77,1.4-16.13,1.75-16.13,1.75"/>
	<line class="st6" x1="204.55" y1="243.86" x2="205.6" y2="289.4"/>
	<line class="st6" x1="218.75" y1="256.92" x2="219.53" y2="290.71"/>
</g>
</svg>
